<svg width="773" height="346" viewBox="0 0 773 346" fill="none" xmlns="http://www.w3.org/2000/svg">
<rect x="0.799805" y="0.199707" width="772.2" height="345.6" rx="28.8" fill="white"/>
<path d="M181.433 154.611C181.433 152.907 181.679 151.473 182.171 150.309C182.675 149.145 183.323 148.269 184.115 147.681C184.907 147.081 185.747 146.781 186.635 146.781C187.691 146.781 188.513 147.075 189.101 147.663C189.689 148.251 189.983 149.061 189.983 150.093C189.983 150.909 189.803 151.527 189.443 151.947C189.095 152.355 188.651 152.559 188.111 152.559C187.559 152.559 187.133 152.403 186.833 152.091C186.533 151.779 186.377 151.347 186.365 150.795V150.201C186.365 149.793 186.269 149.487 186.077 149.283C185.897 149.079 185.591 148.977 185.159 148.977C184.643 148.977 184.139 149.187 183.647 149.607C183.167 150.027 182.771 150.651 182.459 151.479C182.159 152.307 182.009 153.351 182.009 154.611H181.433ZM181.829 147.771L182.009 152.217V161.595C182.009 161.883 182.075 162.105 182.207 162.261C182.339 162.405 182.561 162.495 182.873 162.531L184.511 162.765C184.739 162.801 184.907 162.867 185.015 162.963C185.123 163.059 185.177 163.191 185.177 163.359C185.177 163.527 185.111 163.659 184.979 163.755C184.859 163.851 184.679 163.899 184.439 163.899H176.879C176.627 163.899 176.441 163.851 176.321 163.755C176.201 163.659 176.141 163.527 176.141 163.359C176.141 163.227 176.189 163.113 176.285 163.017C176.381 162.921 176.525 162.849 176.717 162.801L177.599 162.621C177.827 162.561 177.995 162.459 178.103 162.315C178.223 162.159 178.283 161.931 178.283 161.631V150.201C178.283 149.949 178.241 149.769 178.157 149.661C178.073 149.553 177.935 149.487 177.743 149.463L176.501 149.409C176.321 149.385 176.189 149.337 176.105 149.265C176.033 149.181 175.997 149.079 175.997 148.959C175.997 148.815 176.039 148.695 176.123 148.599C176.219 148.503 176.387 148.419 176.627 148.347L179.741 147.303C180.161 147.147 180.473 147.045 180.677 146.997C180.881 146.949 181.049 146.925 181.181 146.925C181.385 146.925 181.535 146.991 181.631 147.123C181.739 147.243 181.805 147.459 181.829 147.771ZM206.721 153.513C206.721 154.005 206.577 154.383 206.289 154.647C206.001 154.899 205.575 155.025 205.011 155.025H193.545V153.981H202.113C202.653 153.981 202.923 153.741 202.923 153.261C202.923 151.605 202.581 150.321 201.897 149.409C201.213 148.497 200.301 148.041 199.161 148.041C198.249 148.041 197.451 148.305 196.767 148.833C196.095 149.349 195.567 150.087 195.183 151.047C194.799 152.007 194.607 153.141 194.607 154.449C194.607 156.849 195.171 158.673 196.299 159.921C197.439 161.157 198.927 161.775 200.763 161.775C201.951 161.775 202.977 161.499 203.841 160.947C204.717 160.383 205.323 159.639 205.659 158.715C205.791 158.535 205.905 158.415 206.001 158.355C206.097 158.283 206.199 158.247 206.307 158.247C206.451 158.247 206.553 158.313 206.613 158.445C206.685 158.565 206.721 158.709 206.721 158.877C206.637 159.873 206.277 160.785 205.641 161.613C205.005 162.441 204.159 163.101 203.103 163.593C202.059 164.073 200.865 164.313 199.521 164.313C197.877 164.313 196.425 163.965 195.165 163.269C193.905 162.561 192.921 161.577 192.213 160.317C191.517 159.045 191.169 157.557 191.169 155.853C191.169 154.101 191.511 152.547 192.195 151.191C192.879 149.823 193.857 148.749 195.129 147.969C196.401 147.177 197.907 146.781 199.647 146.781C201.087 146.781 202.335 147.069 203.391 147.645C204.459 148.209 205.281 149.001 205.857 150.021C206.433 151.029 206.721 152.193 206.721 153.513ZM221.762 161.037L221.672 160.929V140.625C221.672 140.373 221.63 140.193 221.546 140.085C221.462 139.977 221.324 139.911 221.132 139.887L219.89 139.851C219.698 139.815 219.56 139.761 219.476 139.689C219.404 139.605 219.368 139.503 219.368 139.383C219.368 139.239 219.41 139.125 219.494 139.041C219.59 138.945 219.758 138.855 219.998 138.771L223.166 137.691C223.502 137.571 223.772 137.487 223.976 137.439C224.192 137.379 224.39 137.349 224.57 137.349C224.834 137.349 225.032 137.427 225.164 137.583C225.308 137.727 225.38 137.931 225.38 138.195V161.613C225.38 161.913 225.44 162.141 225.56 162.297C225.68 162.453 225.848 162.561 226.064 162.621L226.928 162.783C227.12 162.843 227.264 162.921 227.36 163.017C227.456 163.101 227.504 163.215 227.504 163.359C227.504 163.527 227.444 163.659 227.324 163.755C227.204 163.851 227.018 163.899 226.766 163.899H223.382C222.89 163.899 222.494 163.755 222.194 163.467C221.906 163.179 221.762 162.771 221.762 162.243V161.037ZM208.748 155.943C208.748 154.059 209.114 152.433 209.846 151.065C210.59 149.685 211.586 148.629 212.834 147.897C214.082 147.153 215.468 146.781 216.992 146.781C218.396 146.781 219.638 147.123 220.718 147.807C221.798 148.479 222.674 149.433 223.346 150.669L222.518 151.479C221.942 150.435 221.228 149.643 220.376 149.103C219.536 148.551 218.618 148.275 217.622 148.275C216.686 148.275 215.84 148.539 215.084 149.067C214.328 149.595 213.728 150.393 213.284 151.461C212.852 152.529 212.636 153.879 212.636 155.511C212.636 157.047 212.846 158.331 213.266 159.363C213.686 160.395 214.256 161.175 214.976 161.703C215.708 162.219 216.536 162.477 217.46 162.477C218.384 162.477 219.272 162.207 220.124 161.667C220.976 161.127 221.756 160.317 222.464 159.237L223.004 160.083C222.08 161.439 221.03 162.483 219.854 163.215C218.678 163.947 217.4 164.313 216.02 164.313C214.616 164.313 213.368 163.959 212.276 163.251C211.184 162.531 210.32 161.541 209.684 160.281C209.06 159.021 208.748 157.575 208.748 155.943ZM244.832 153.513C244.832 154.005 244.688 154.383 244.4 154.647C244.112 154.899 243.686 155.025 243.122 155.025H231.656V153.981H240.224C240.764 153.981 241.034 153.741 241.034 153.261C241.034 151.605 240.692 150.321 240.008 149.409C239.324 148.497 238.412 148.041 237.272 148.041C236.36 148.041 235.562 148.305 234.878 148.833C234.206 149.349 233.678 150.087 233.294 151.047C232.91 152.007 232.718 153.141 232.718 154.449C232.718 156.849 233.282 158.673 234.41 159.921C235.55 161.157 237.038 161.775 238.874 161.775C240.062 161.775 241.088 161.499 241.952 160.947C242.828 160.383 243.434 159.639 243.77 158.715C243.902 158.535 244.016 158.415 244.112 158.355C244.208 158.283 244.31 158.247 244.418 158.247C244.562 158.247 244.664 158.313 244.724 158.445C244.796 158.565 244.832 158.709 244.832 158.877C244.748 159.873 244.388 160.785 243.752 161.613C243.116 162.441 242.27 163.101 241.214 163.593C240.17 164.073 238.976 164.313 237.632 164.313C235.988 164.313 234.536 163.965 233.276 163.269C232.016 162.561 231.032 161.577 230.324 160.317C229.628 159.045 229.28 157.557 229.28 155.853C229.28 154.101 229.622 152.547 230.306 151.191C230.99 149.823 231.968 148.749 233.24 147.969C234.512 147.177 236.018 146.781 237.758 146.781C239.198 146.781 240.446 147.069 241.502 147.645C242.57 148.209 243.392 149.001 243.968 150.021C244.544 151.029 244.832 152.193 244.832 153.513ZM253.429 161.595C253.429 161.883 253.495 162.111 253.627 162.279C253.759 162.447 253.963 162.549 254.239 162.585L256.093 162.783C256.321 162.807 256.489 162.873 256.597 162.981C256.705 163.077 256.759 163.203 256.759 163.359C256.759 163.719 256.519 163.899 256.039 163.899H247.957C247.753 163.899 247.585 163.851 247.453 163.755C247.333 163.659 247.273 163.533 247.273 163.377C247.273 163.221 247.321 163.095 247.417 162.999C247.525 162.903 247.687 162.831 247.903 162.783L248.857 162.603C249.145 162.519 249.361 162.405 249.505 162.261C249.649 162.105 249.721 161.895 249.721 161.631V149.841C249.721 149.613 249.661 149.427 249.541 149.283C249.433 149.139 249.235 149.019 248.947 148.923L247.795 148.635C247.459 148.527 247.231 148.419 247.111 148.311C247.003 148.203 246.949 148.083 246.949 147.951C246.949 147.795 247.003 147.675 247.111 147.591C247.219 147.507 247.387 147.465 247.615 147.465H250.513L249.739 148.041V147.465C249.739 147.069 249.649 146.697 249.469 146.349C249.289 145.989 249.079 145.617 248.839 145.233C248.611 144.849 248.407 144.429 248.227 143.973C248.047 143.505 247.957 142.965 247.957 142.353C247.957 140.985 248.431 139.881 249.379 139.041C250.327 138.189 251.611 137.763 253.231 137.763C254.275 137.763 255.157 137.937 255.877 138.285C256.609 138.621 257.161 139.071 257.533 139.635C257.917 140.199 258.109 140.817 258.109 141.489C258.109 142.125 257.947 142.611 257.623 142.947C257.311 143.283 256.897 143.451 256.381 143.451C255.841 143.451 255.403 143.277 255.067 142.929C254.743 142.581 254.581 142.107 254.581 141.507V140.571C254.581 139.983 254.425 139.533 254.113 139.221C253.801 138.909 253.351 138.753 252.763 138.753C252.031 138.753 251.467 138.987 251.071 139.455C250.675 139.911 250.477 140.553 250.477 141.381C250.477 141.909 250.567 142.395 250.747 142.839C250.939 143.271 251.167 143.679 251.431 144.063C251.707 144.435 251.977 144.795 252.241 145.143C252.517 145.491 252.745 145.851 252.925 146.223C253.117 146.583 253.213 146.967 253.213 147.375V148.077L252.745 147.465H256.867C257.083 147.465 257.251 147.507 257.371 147.591C257.491 147.663 257.551 147.783 257.551 147.951C257.551 148.179 257.431 148.371 257.191 148.527C256.963 148.671 256.603 148.743 256.111 148.743H253.429V161.595ZM265.543 147.753V161.613C265.543 161.913 265.597 162.141 265.705 162.297C265.825 162.453 265.999 162.561 266.227 162.621L267.073 162.783C267.265 162.843 267.409 162.921 267.505 163.017C267.601 163.101 267.649 163.215 267.649 163.359C267.649 163.527 267.589 163.659 267.469 163.755C267.349 163.851 267.163 163.899 266.911 163.899H260.395C260.155 163.899 259.975 163.851 259.855 163.755C259.735 163.659 259.675 163.527 259.675 163.359C259.675 163.227 259.717 163.119 259.801 163.035C259.897 162.939 260.041 162.861 260.233 162.801L261.133 162.621C261.361 162.549 261.529 162.441 261.637 162.297C261.757 162.153 261.817 161.931 261.817 161.631V150.183C261.817 149.931 261.775 149.751 261.691 149.643C261.607 149.535 261.469 149.469 261.277 149.445L260.035 149.409C259.855 149.373 259.723 149.319 259.639 149.247C259.555 149.163 259.513 149.061 259.513 148.941C259.513 148.797 259.561 148.683 259.657 148.599C259.753 148.503 259.921 148.413 260.161 148.329L263.311 147.249C263.659 147.129 263.935 147.045 264.139 146.997C264.355 146.937 264.541 146.907 264.697 146.907C264.973 146.907 265.183 146.985 265.327 147.141C265.471 147.285 265.543 147.489 265.543 147.753ZM263.311 143.613C262.555 143.613 261.943 143.403 261.475 142.983C261.007 142.551 260.773 142.005 260.773 141.345C260.773 140.685 261.007 140.145 261.475 139.725C261.943 139.305 262.555 139.095 263.311 139.095C264.079 139.095 264.697 139.305 265.165 139.725C265.633 140.145 265.867 140.685 265.867 141.345C265.867 142.005 265.633 142.551 265.165 142.983C264.697 143.403 264.079 143.613 263.311 143.613ZM275.265 147.753V161.613C275.265 161.913 275.319 162.141 275.427 162.297C275.547 162.441 275.721 162.549 275.949 162.621L276.777 162.801C277.125 162.909 277.299 163.089 277.299 163.341C277.299 163.713 277.053 163.899 276.561 163.899H270.117C269.877 163.899 269.697 163.851 269.577 163.755C269.457 163.659 269.397 163.527 269.397 163.359C269.397 163.227 269.439 163.119 269.523 163.035C269.619 162.939 269.763 162.861 269.955 162.801L270.855 162.621C271.083 162.549 271.251 162.441 271.359 162.297C271.479 162.153 271.539 161.931 271.539 161.631V150.183C271.539 149.931 271.497 149.751 271.413 149.643C271.329 149.535 271.191 149.469 270.999 149.445L269.757 149.409C269.577 149.373 269.445 149.319 269.361 149.247C269.289 149.163 269.253 149.061 269.253 148.941C269.253 148.797 269.295 148.683 269.379 148.599C269.475 148.503 269.643 148.413 269.883 148.329L273.033 147.249C273.369 147.129 273.645 147.045 273.861 146.997C274.077 146.937 274.269 146.907 274.437 146.907C274.713 146.907 274.917 146.985 275.049 147.141C275.193 147.285 275.265 147.489 275.265 147.753ZM274.779 151.497L274.149 150.867L274.905 150.201C276.297 148.965 277.491 148.089 278.487 147.573C279.483 147.045 280.443 146.781 281.367 146.781C282.771 146.781 283.857 147.249 284.625 148.185C285.405 149.109 285.885 150.375 286.065 151.983L287.199 161.541C287.235 161.865 287.307 162.111 287.415 162.279C287.535 162.447 287.721 162.561 287.973 162.621L288.747 162.801C288.939 162.861 289.077 162.939 289.161 163.035C289.257 163.119 289.305 163.227 289.305 163.359C289.305 163.527 289.245 163.659 289.125 163.755C289.017 163.851 288.837 163.899 288.585 163.899H282.087C281.583 163.899 281.331 163.713 281.331 163.341C281.331 163.089 281.499 162.909 281.835 162.801L282.735 162.621C282.987 162.549 283.173 162.429 283.293 162.261C283.425 162.093 283.473 161.853 283.437 161.541L282.357 152.523C282.213 151.335 281.907 150.447 281.439 149.859C280.971 149.271 280.287 148.977 279.387 148.977C278.823 148.977 278.223 149.133 277.587 149.445C276.963 149.757 276.279 150.225 275.535 150.849L274.779 151.497ZM296.254 147.753V161.613C296.254 161.913 296.308 162.141 296.416 162.297C296.536 162.453 296.71 162.561 296.938 162.621L297.784 162.783C297.976 162.843 298.12 162.921 298.216 163.017C298.312 163.101 298.36 163.215 298.36 163.359C298.36 163.527 298.3 163.659 298.18 163.755C298.06 163.851 297.874 163.899 297.622 163.899H291.106C290.866 163.899 290.686 163.851 290.566 163.755C290.446 163.659 290.386 163.527 290.386 163.359C290.386 163.227 290.428 163.119 290.512 163.035C290.608 162.939 290.752 162.861 290.944 162.801L291.844 162.621C292.072 162.549 292.24 162.441 292.348 162.297C292.468 162.153 292.528 161.931 292.528 161.631V150.183C292.528 149.931 292.486 149.751 292.402 149.643C292.318 149.535 292.18 149.469 291.988 149.445L290.746 149.409C290.566 149.373 290.434 149.319 290.35 149.247C290.266 149.163 290.224 149.061 290.224 148.941C290.224 148.797 290.272 148.683 290.368 148.599C290.464 148.503 290.632 148.413 290.872 148.329L294.022 147.249C294.37 147.129 294.646 147.045 294.85 146.997C295.066 146.937 295.252 146.907 295.408 146.907C295.684 146.907 295.894 146.985 296.038 147.141C296.182 147.285 296.254 147.489 296.254 147.753ZM294.022 143.613C293.266 143.613 292.654 143.403 292.186 142.983C291.718 142.551 291.484 142.005 291.484 141.345C291.484 140.685 291.718 140.145 292.186 139.725C292.654 139.305 293.266 139.095 294.022 139.095C294.79 139.095 295.408 139.305 295.876 139.725C296.344 140.145 296.578 140.685 296.578 141.345C296.578 142.005 296.344 142.551 295.876 142.983C295.408 143.403 294.79 143.613 294.022 143.613ZM305.993 147.753V161.613C305.993 161.913 306.047 162.141 306.155 162.297C306.275 162.441 306.449 162.549 306.677 162.621L307.505 162.801C307.853 162.909 308.027 163.089 308.027 163.341C308.027 163.713 307.781 163.899 307.289 163.899H300.845C300.605 163.899 300.425 163.851 300.305 163.755C300.185 163.659 300.125 163.527 300.125 163.359C300.125 163.227 300.167 163.119 300.251 163.035C300.347 162.939 300.491 162.861 300.683 162.801L301.583 162.621C301.811 162.549 301.979 162.441 302.087 162.297C302.207 162.153 302.267 161.931 302.267 161.631V150.183C302.267 149.931 302.225 149.751 302.141 149.643C302.057 149.535 301.919 149.469 301.727 149.445L300.485 149.409C300.305 149.373 300.173 149.319 300.089 149.247C300.017 149.163 299.981 149.061 299.981 148.941C299.981 148.797 300.023 148.683 300.107 148.599C300.203 148.503 300.371 148.413 300.611 148.329L303.761 147.249C304.097 147.129 304.373 147.045 304.589 146.997C304.805 146.937 304.997 146.907 305.165 146.907C305.441 146.907 305.645 146.985 305.777 147.141C305.921 147.285 305.993 147.489 305.993 147.753ZM305.507 151.497L304.877 150.867L305.633 150.201C307.025 148.965 308.219 148.089 309.215 147.573C310.211 147.045 311.171 146.781 312.095 146.781C313.499 146.781 314.585 147.249 315.353 148.185C316.133 149.109 316.613 150.375 316.793 151.983L317.927 161.541C317.963 161.865 318.035 162.111 318.143 162.279C318.263 162.447 318.449 162.561 318.701 162.621L319.475 162.801C319.667 162.861 319.805 162.939 319.889 163.035C319.985 163.119 320.033 163.227 320.033 163.359C320.033 163.527 319.973 163.659 319.853 163.755C319.745 163.851 319.565 163.899 319.313 163.899H312.815C312.311 163.899 312.059 163.713 312.059 163.341C312.059 163.089 312.227 162.909 312.563 162.801L313.463 162.621C313.715 162.549 313.901 162.429 314.021 162.261C314.153 162.093 314.201 161.853 314.165 161.541L313.085 152.523C312.941 151.335 312.635 150.447 312.167 149.859C311.699 149.271 311.015 148.977 310.115 148.977C309.551 148.977 308.951 149.133 308.315 149.445C307.691 149.757 307.007 150.225 306.263 150.849L305.507 151.497ZM331.734 162.873C333.402 163.137 334.716 163.479 335.676 163.899C336.648 164.307 337.338 164.805 337.746 165.393C338.154 165.993 338.358 166.701 338.358 167.517C338.358 169.041 337.56 170.289 335.964 171.261C334.368 172.233 332.082 172.719 329.106 172.719C327.078 172.719 325.446 172.533 324.21 172.161C322.974 171.801 322.074 171.309 321.51 170.685C320.958 170.061 320.682 169.353 320.682 168.561C320.682 167.577 321.162 166.689 322.122 165.897C323.082 165.117 324.768 164.577 327.18 164.277L327.522 164.763C326.214 164.931 325.224 165.297 324.552 165.861C323.892 166.437 323.562 167.079 323.562 167.787C323.562 168.891 324.024 169.785 324.948 170.469C325.884 171.153 327.456 171.495 329.664 171.495C330.912 171.495 331.932 171.375 332.724 171.135C333.528 170.907 334.122 170.571 334.506 170.127C334.902 169.695 335.1 169.173 335.1 168.561C335.1 168.105 334.944 167.697 334.632 167.337C334.332 166.989 333.786 166.671 332.994 166.383C332.214 166.095 331.11 165.825 329.682 165.573C327.93 165.273 326.598 164.961 325.686 164.637C324.786 164.325 324.168 163.977 323.832 163.593C323.508 163.197 323.346 162.741 323.346 162.225C323.346 161.793 323.46 161.385 323.688 161.001C323.928 160.617 324.318 160.275 324.858 159.975C325.41 159.675 326.172 159.447 327.144 159.291L327.558 159.525C327.126 159.717 326.814 159.915 326.622 160.119C326.442 160.323 326.352 160.551 326.352 160.803C326.352 161.019 326.454 161.229 326.658 161.433C326.862 161.637 327.342 161.853 328.098 162.081C328.854 162.309 330.066 162.573 331.734 162.873ZM332.49 148.545L333.03 147.555C333.534 146.559 334.134 145.803 334.83 145.287C335.526 144.771 336.264 144.513 337.044 144.513C337.728 144.513 338.28 144.699 338.7 145.071C339.132 145.443 339.348 145.947 339.348 146.583C339.348 147.111 339.216 147.531 338.952 147.843C338.688 148.155 338.334 148.311 337.89 148.311C337.566 148.311 337.308 148.233 337.116 148.077C336.924 147.909 336.756 147.723 336.612 147.519C336.468 147.303 336.306 147.117 336.126 146.961C335.946 146.793 335.712 146.709 335.424 146.709C335.076 146.709 334.752 146.847 334.452 147.123C334.164 147.399 333.798 147.933 333.354 148.725L332.49 148.545ZM336.936 153.207C336.936 154.551 336.594 155.739 335.91 156.771C335.238 157.791 334.302 158.589 333.102 159.165C331.902 159.741 330.528 160.029 328.98 160.029C327.456 160.029 326.118 159.753 324.966 159.201C323.826 158.637 322.938 157.869 322.302 156.897C321.666 155.925 321.348 154.845 321.348 153.657C321.348 152.301 321.684 151.113 322.356 150.093C323.028 149.061 323.964 148.257 325.164 147.681C326.364 147.105 327.75 146.817 329.322 146.817C330.846 146.817 332.178 147.099 333.318 147.663C334.458 148.215 335.346 148.977 335.982 149.949C336.618 150.909 336.936 151.995 336.936 153.207ZM328.62 147.969C327.84 147.993 327.18 148.221 326.64 148.653C326.112 149.085 325.728 149.697 325.488 150.489C325.248 151.269 325.17 152.211 325.254 153.315C325.338 154.467 325.566 155.463 325.938 156.303C326.322 157.131 326.832 157.767 327.468 158.211C328.104 158.643 328.824 158.847 329.628 158.823C330.816 158.775 331.704 158.289 332.292 157.365C332.892 156.429 333.132 155.133 333.012 153.477C332.892 151.737 332.436 150.375 331.644 149.391C330.864 148.395 329.856 147.921 328.62 147.969ZM352.241 138.195V161.757L350.513 163.809C350.141 163.989 349.871 164.109 349.703 164.169C349.535 164.241 349.361 164.277 349.181 164.277C348.989 164.277 348.827 164.217 348.695 164.097C348.575 163.977 348.515 163.803 348.515 163.575V140.625C348.515 140.373 348.473 140.193 348.389 140.085C348.317 139.977 348.185 139.911 347.993 139.887L346.751 139.851C346.559 139.815 346.421 139.761 346.337 139.689C346.265 139.605 346.229 139.503 346.229 139.383C346.229 139.239 346.271 139.125 346.355 139.041C346.451 138.945 346.619 138.855 346.859 138.771L350.009 137.691C350.369 137.571 350.651 137.487 350.855 137.439C351.059 137.379 351.239 137.349 351.395 137.349C351.683 137.349 351.893 137.427 352.025 137.583C352.169 137.727 352.241 137.931 352.241 138.195ZM351.449 151.857L350.909 150.993C351.833 149.637 352.883 148.599 354.059 147.879C355.235 147.147 356.513 146.781 357.893 146.781C359.285 146.781 360.527 147.135 361.619 147.843C362.723 148.551 363.587 149.535 364.211 150.795C364.847 152.055 365.165 153.507 365.165 155.151C365.165 157.023 364.799 158.643 364.067 160.011C363.335 161.379 362.345 162.441 361.097 163.197C359.849 163.941 358.457 164.313 356.921 164.313C355.517 164.313 354.269 163.977 353.177 163.305C352.097 162.621 351.227 161.655 350.567 160.407L351.377 159.597C351.977 160.641 352.697 161.439 353.537 161.991C354.377 162.543 355.289 162.819 356.273 162.819C357.209 162.819 358.055 162.555 358.811 162.027C359.567 161.499 360.161 160.701 360.593 159.633C361.037 158.553 361.259 157.203 361.259 155.583C361.259 154.035 361.049 152.745 360.629 151.713C360.221 150.681 359.651 149.907 358.919 149.391C358.199 148.863 357.377 148.599 356.453 148.599C355.529 148.599 354.641 148.869 353.789 149.409C352.937 149.949 352.157 150.765 351.449 151.857ZM376.167 146.781C377.895 146.781 379.419 147.153 380.739 147.897C382.071 148.641 383.109 149.679 383.853 151.011C384.609 152.331 384.987 153.855 384.987 155.583C384.987 157.251 384.603 158.745 383.835 160.065C383.079 161.385 382.029 162.423 380.685 163.179C379.341 163.935 377.787 164.313 376.023 164.313C374.295 164.313 372.765 163.941 371.433 163.197C370.113 162.441 369.081 161.403 368.337 160.083C367.593 158.763 367.221 157.245 367.221 155.529C367.221 153.837 367.599 152.337 368.355 151.029C369.111 149.709 370.155 148.671 371.487 147.915C372.831 147.159 374.391 146.781 376.167 146.781ZM377.373 162.927C378.357 162.783 379.161 162.375 379.785 161.703C380.409 161.031 380.829 160.119 381.045 158.967C381.261 157.815 381.243 156.453 380.991 154.881C380.739 153.297 380.319 151.983 379.731 150.939C379.155 149.883 378.447 149.121 377.607 148.653C376.767 148.185 375.843 148.023 374.835 148.167C373.839 148.311 373.029 148.719 372.405 149.391C371.781 150.063 371.361 150.981 371.145 152.145C370.941 153.297 370.959 154.653 371.199 156.213C371.451 157.797 371.871 159.111 372.459 160.155C373.047 161.199 373.761 161.955 374.601 162.423C375.441 162.891 376.365 163.059 377.373 162.927ZM388.166 148.509L387.122 148.257C386.846 148.185 386.654 148.101 386.546 148.005C386.45 147.909 386.402 147.795 386.402 147.663C386.402 147.495 386.462 147.369 386.582 147.285C386.702 147.189 386.858 147.141 387.05 147.141H388.274C388.562 147.141 388.796 147.099 388.976 147.015C389.156 146.919 389.312 146.745 389.444 146.493L391.028 143.793C391.196 143.541 391.358 143.361 391.514 143.253C391.67 143.133 391.838 143.073 392.018 143.073C392.21 143.073 392.354 143.133 392.45 143.253C392.558 143.373 392.612 143.541 392.612 143.757V159.543C392.612 160.383 392.786 161.025 393.134 161.469C393.482 161.901 393.956 162.117 394.556 162.117C394.976 162.117 395.306 162.051 395.546 161.919C395.786 161.775 395.978 161.613 396.122 161.433C396.266 161.241 396.404 161.067 396.536 160.911C396.668 160.743 396.818 160.641 396.986 160.605C397.118 160.593 397.22 160.635 397.292 160.731C397.376 160.815 397.418 160.953 397.418 161.145C397.394 161.685 397.196 162.189 396.824 162.657C396.464 163.113 395.966 163.485 395.33 163.773C394.706 164.061 393.986 164.205 393.17 164.205C391.862 164.205 390.824 163.869 390.056 163.197C389.288 162.525 388.904 161.505 388.904 160.137V149.463C388.904 149.199 388.85 148.995 388.742 148.851C388.634 148.707 388.442 148.593 388.166 148.509ZM390.992 148.419L391.01 147.141H396.608C396.824 147.141 396.992 147.183 397.112 147.267C397.232 147.351 397.292 147.477 397.292 147.645C397.292 147.873 397.172 148.059 396.932 148.203C396.704 148.347 396.344 148.419 395.852 148.419H390.992ZM405.032 138.195V161.613C405.032 161.913 405.086 162.141 405.194 162.297C405.314 162.441 405.488 162.549 405.716 162.621L406.544 162.801C406.892 162.909 407.066 163.089 407.066 163.341C407.066 163.713 406.82 163.899 406.328 163.899H399.884C399.644 163.899 399.464 163.851 399.344 163.755C399.224 163.659 399.164 163.527 399.164 163.359C399.164 163.227 399.212 163.113 399.308 163.017C399.404 162.921 399.548 162.849 399.74 162.801L400.622 162.621C400.85 162.549 401.018 162.441 401.126 162.297C401.246 162.153 401.306 161.931 401.306 161.631V140.625C401.306 140.373 401.264 140.193 401.18 140.085C401.096 139.977 400.958 139.911 400.766 139.887L399.524 139.851C399.344 139.815 399.212 139.761 399.128 139.689C399.056 139.605 399.02 139.503 399.02 139.383C399.02 139.239 399.062 139.125 399.146 139.041C399.242 138.945 399.41 138.855 399.65 138.771L402.8 137.691C403.136 137.571 403.412 137.487 403.628 137.439C403.844 137.379 404.036 137.349 404.204 137.349C404.48 137.349 404.684 137.427 404.816 137.583C404.96 137.727 405.032 137.931 405.032 138.195ZM404.546 151.497L403.916 150.867L404.672 150.201C406.064 148.965 407.258 148.089 408.254 147.573C409.25 147.045 410.21 146.781 411.134 146.781C412.538 146.781 413.624 147.249 414.392 148.185C415.172 149.109 415.652 150.375 415.832 151.983L416.966 161.541C417.002 161.865 417.074 162.111 417.182 162.279C417.302 162.447 417.488 162.561 417.74 162.621L418.514 162.801C418.706 162.861 418.844 162.939 418.928 163.035C419.024 163.119 419.072 163.227 419.072 163.359C419.072 163.527 419.012 163.659 418.892 163.755C418.784 163.851 418.604 163.899 418.352 163.899H411.854C411.35 163.899 411.098 163.713 411.098 163.341C411.098 163.089 411.266 162.909 411.602 162.801L412.502 162.621C412.754 162.549 412.94 162.429 413.06 162.261C413.192 162.093 413.24 161.853 413.204 161.541L412.124 152.523C411.98 151.335 411.674 150.447 411.206 149.859C410.738 149.271 410.054 148.977 409.154 148.977C408.59 148.977 407.99 149.133 407.354 149.445C406.73 149.757 406.046 150.225 405.302 150.849L404.546 151.497ZM440.179 161.037L440.089 160.929V140.625C440.089 140.373 440.047 140.193 439.963 140.085C439.879 139.977 439.741 139.911 439.549 139.887L438.307 139.851C438.115 139.815 437.977 139.761 437.893 139.689C437.821 139.605 437.785 139.503 437.785 139.383C437.785 139.239 437.827 139.125 437.911 139.041C438.007 138.945 438.175 138.855 438.415 138.771L441.583 137.691C441.919 137.571 442.189 137.487 442.393 137.439C442.609 137.379 442.807 137.349 442.987 137.349C443.251 137.349 443.449 137.427 443.581 137.583C443.725 137.727 443.797 137.931 443.797 138.195V161.613C443.797 161.913 443.857 162.141 443.977 162.297C444.097 162.453 444.265 162.561 444.481 162.621L445.345 162.783C445.537 162.843 445.681 162.921 445.777 163.017C445.873 163.101 445.921 163.215 445.921 163.359C445.921 163.527 445.861 163.659 445.741 163.755C445.621 163.851 445.435 163.899 445.183 163.899H441.799C441.307 163.899 440.911 163.755 440.611 163.467C440.323 163.179 440.179 162.771 440.179 162.243V161.037ZM427.165 155.943C427.165 154.059 427.531 152.433 428.263 151.065C429.007 149.685 430.003 148.629 431.251 147.897C432.499 147.153 433.885 146.781 435.409 146.781C436.813 146.781 438.055 147.123 439.135 147.807C440.215 148.479 441.091 149.433 441.763 150.669L440.935 151.479C440.359 150.435 439.645 149.643 438.793 149.103C437.953 148.551 437.035 148.275 436.039 148.275C435.103 148.275 434.257 148.539 433.501 149.067C432.745 149.595 432.145 150.393 431.701 151.461C431.269 152.529 431.053 153.879 431.053 155.511C431.053 157.047 431.263 158.331 431.683 159.363C432.103 160.395 432.673 161.175 433.393 161.703C434.125 162.219 434.953 162.477 435.877 162.477C436.801 162.477 437.689 162.207 438.541 161.667C439.393 161.127 440.173 160.317 440.881 159.237L441.421 160.083C440.497 161.439 439.447 162.483 438.271 163.215C437.095 163.947 435.817 164.313 434.437 164.313C433.033 164.313 431.785 163.959 430.693 163.251C429.601 162.531 428.737 161.541 428.101 160.281C427.477 159.021 427.165 157.575 427.165 155.943ZM458.569 161.757V161.433L458.353 161.343V150.993C458.353 149.949 458.095 149.151 457.579 148.599C457.075 148.047 456.355 147.771 455.419 147.771C454.507 147.771 453.823 147.963 453.367 148.347C452.911 148.731 452.683 149.181 452.683 149.697V151.083C452.683 151.659 452.497 152.103 452.125 152.415C451.753 152.727 451.243 152.883 450.595 152.883C450.031 152.883 449.599 152.739 449.299 152.451C448.999 152.151 448.849 151.743 448.849 151.227C448.849 150.507 449.131 149.811 449.695 149.139C450.259 148.455 451.075 147.891 452.143 147.447C453.223 147.003 454.537 146.781 456.085 146.781C458.089 146.781 459.583 147.219 460.567 148.095C461.551 148.959 462.043 150.123 462.043 151.587V161.307C462.043 161.703 462.115 161.997 462.259 162.189C462.415 162.369 462.625 162.459 462.889 162.459C463.177 162.459 463.387 162.393 463.519 162.261C463.651 162.117 463.759 161.973 463.843 161.829C463.903 161.757 463.963 161.697 464.023 161.649C464.083 161.589 464.155 161.559 464.239 161.559C464.347 161.559 464.425 161.601 464.473 161.685C464.533 161.769 464.563 161.883 464.563 162.027C464.563 162.351 464.449 162.687 464.221 163.035C463.993 163.383 463.657 163.677 463.213 163.917C462.769 164.169 462.211 164.295 461.539 164.295C460.603 164.295 459.871 164.079 459.343 163.647C458.827 163.203 458.569 162.573 458.569 161.757ZM448.039 160.191C448.039 158.799 448.657 157.659 449.893 156.771C451.129 155.871 452.869 155.421 455.113 155.421C455.929 155.421 456.667 155.499 457.327 155.655C457.999 155.799 458.593 155.991 459.109 156.231L458.839 157.095C458.347 156.891 457.837 156.723 457.309 156.591C456.793 156.447 456.229 156.375 455.617 156.375C454.441 156.375 453.523 156.663 452.863 157.239C452.203 157.815 451.873 158.601 451.873 159.597C451.873 160.569 452.143 161.319 452.683 161.847C453.235 162.363 453.943 162.621 454.807 162.621C455.575 162.621 456.319 162.447 457.039 162.099C457.759 161.751 458.383 161.247 458.911 160.587L459.253 161.343C458.569 162.291 457.675 163.023 456.571 163.539C455.479 164.043 454.321 164.295 453.097 164.295C451.609 164.295 450.391 163.923 449.443 163.179C448.507 162.435 448.039 161.439 448.039 160.191ZM475.369 161.631L473.461 165.573L466.621 149.769C466.405 149.253 466.177 148.899 465.937 148.707C465.697 148.515 465.313 148.365 464.785 148.257C464.569 148.197 464.419 148.125 464.335 148.041C464.263 147.945 464.227 147.825 464.227 147.681C464.227 147.513 464.287 147.381 464.407 147.285C464.539 147.189 464.719 147.141 464.947 147.141H472.183C472.411 147.141 472.585 147.189 472.705 147.285C472.837 147.381 472.903 147.513 472.903 147.681C472.903 147.825 472.855 147.945 472.759 148.041C472.675 148.125 472.519 148.191 472.291 148.239L471.445 148.383C470.905 148.479 470.587 148.659 470.491 148.923C470.395 149.175 470.479 149.625 470.743 150.273L475.369 161.631ZM472.255 167.571L473.785 163.755L474.235 162.837L479.149 150.507C479.425 149.823 479.509 149.331 479.401 149.031C479.305 148.731 478.969 148.527 478.393 148.419L477.565 148.275C477.337 148.227 477.175 148.155 477.079 148.059C476.983 147.963 476.935 147.837 476.935 147.681C476.935 147.513 476.995 147.381 477.115 147.285C477.247 147.189 477.427 147.141 477.655 147.141H482.713C482.929 147.141 483.103 147.189 483.235 147.285C483.367 147.381 483.433 147.513 483.433 147.681C483.433 147.813 483.385 147.927 483.289 148.023C483.205 148.119 483.049 148.197 482.821 148.257C482.245 148.401 481.813 148.599 481.525 148.851C481.249 149.103 480.991 149.541 480.751 150.165L473.803 167.427C473.263 168.771 472.747 169.815 472.255 170.559C471.763 171.303 471.229 171.825 470.653 172.125C470.089 172.425 469.417 172.575 468.637 172.575C467.461 172.575 466.537 172.257 465.865 171.621C465.193 170.997 464.857 170.247 464.857 169.371C464.857 168.735 465.007 168.237 465.307 167.877C465.607 167.529 466.003 167.355 466.495 167.355C466.975 167.355 467.347 167.505 467.611 167.805C467.875 168.117 468.073 168.525 468.205 169.029L468.349 169.641C468.421 170.073 468.559 170.391 468.763 170.595C468.967 170.811 469.219 170.919 469.519 170.919C469.819 170.919 470.107 170.823 470.383 170.631C470.671 170.439 470.965 170.097 471.265 169.605C471.565 169.125 471.895 168.447 472.255 167.571ZM494.541 152.577C495.153 152.577 495.351 152.865 495.135 153.441L494.739 154.557C494.643 154.821 494.523 155.001 494.379 155.097C494.247 155.193 494.049 155.241 493.785 155.241H485.271C484.659 155.241 484.461 154.953 484.677 154.377L485.055 153.261C485.163 152.985 485.283 152.805 485.415 152.721C485.559 152.625 485.763 152.577 486.027 152.577H494.541ZM498.79 148.509L497.746 148.257C497.47 148.185 497.278 148.101 497.17 148.005C497.074 147.909 497.026 147.795 497.026 147.663C497.026 147.495 497.086 147.369 497.206 147.285C497.326 147.189 497.482 147.141 497.674 147.141H498.898C499.186 147.141 499.42 147.099 499.6 147.015C499.78 146.919 499.936 146.745 500.068 146.493L501.652 143.793C501.82 143.541 501.982 143.361 502.138 143.253C502.294 143.133 502.462 143.073 502.642 143.073C502.834 143.073 502.978 143.133 503.074 143.253C503.182 143.373 503.236 143.541 503.236 143.757V159.543C503.236 160.383 503.41 161.025 503.758 161.469C504.106 161.901 504.58 162.117 505.18 162.117C505.6 162.117 505.93 162.051 506.17 161.919C506.41 161.775 506.602 161.613 506.746 161.433C506.89 161.241 507.028 161.067 507.16 160.911C507.292 160.743 507.442 160.641 507.61 160.605C507.742 160.593 507.844 160.635 507.916 160.731C508 160.815 508.042 160.953 508.042 161.145C508.018 161.685 507.82 162.189 507.448 162.657C507.088 163.113 506.59 163.485 505.954 163.773C505.33 164.061 504.61 164.205 503.794 164.205C502.486 164.205 501.448 163.869 500.68 163.197C499.912 162.525 499.528 161.505 499.528 160.137V149.463C499.528 149.199 499.474 148.995 499.366 148.851C499.258 148.707 499.066 148.593 498.79 148.509ZM501.616 148.419L501.634 147.141H507.232C507.448 147.141 507.616 147.183 507.736 147.267C507.856 147.351 507.916 147.477 507.916 147.645C507.916 147.873 507.796 148.059 507.556 148.203C507.328 148.347 506.968 148.419 506.476 148.419H501.616ZM518.609 146.781C520.337 146.781 521.861 147.153 523.181 147.897C524.513 148.641 525.551 149.679 526.295 151.011C527.051 152.331 527.429 153.855 527.429 155.583C527.429 157.251 527.045 158.745 526.277 160.065C525.521 161.385 524.471 162.423 523.127 163.179C521.783 163.935 520.229 164.313 518.465 164.313C516.737 164.313 515.207 163.941 513.875 163.197C512.555 162.441 511.523 161.403 510.779 160.083C510.035 158.763 509.663 157.245 509.663 155.529C509.663 153.837 510.041 152.337 510.797 151.029C511.553 149.709 512.597 148.671 513.929 147.915C515.273 147.159 516.833 146.781 518.609 146.781ZM519.815 162.927C520.799 162.783 521.603 162.375 522.227 161.703C522.851 161.031 523.271 160.119 523.487 158.967C523.703 157.815 523.685 156.453 523.433 154.881C523.181 153.297 522.761 151.983 522.173 150.939C521.597 149.883 520.889 149.121 520.049 148.653C519.209 148.185 518.285 148.023 517.277 148.167C516.281 148.311 515.471 148.719 514.847 149.391C514.223 150.063 513.803 150.981 513.587 152.145C513.383 153.297 513.401 154.653 513.641 156.213C513.893 157.797 514.313 159.111 514.901 160.155C515.489 161.199 516.203 161.955 517.043 162.423C517.883 162.891 518.807 163.059 519.815 162.927ZM539.841 152.577C540.453 152.577 540.651 152.865 540.435 153.441L540.039 154.557C539.943 154.821 539.823 155.001 539.679 155.097C539.547 155.193 539.349 155.241 539.085 155.241H530.571C529.959 155.241 529.761 154.953 529.977 154.377L530.355 153.261C530.463 152.985 530.583 152.805 530.715 152.721C530.859 152.625 531.063 152.577 531.327 152.577H539.841ZM556.007 161.037L555.917 160.929V140.625C555.917 140.373 555.875 140.193 555.791 140.085C555.707 139.977 555.569 139.911 555.377 139.887L554.135 139.851C553.943 139.815 553.805 139.761 553.721 139.689C553.649 139.605 553.613 139.503 553.613 139.383C553.613 139.239 553.655 139.125 553.739 139.041C553.835 138.945 554.003 138.855 554.243 138.771L557.411 137.691C557.747 137.571 558.017 137.487 558.221 137.439C558.437 137.379 558.635 137.349 558.815 137.349C559.079 137.349 559.277 137.427 559.409 137.583C559.553 137.727 559.625 137.931 559.625 138.195V161.613C559.625 161.913 559.685 162.141 559.805 162.297C559.925 162.453 560.093 162.561 560.309 162.621L561.173 162.783C561.365 162.843 561.509 162.921 561.605 163.017C561.701 163.101 561.749 163.215 561.749 163.359C561.749 163.527 561.689 163.659 561.569 163.755C561.449 163.851 561.263 163.899 561.011 163.899H557.627C557.135 163.899 556.739 163.755 556.439 163.467C556.151 163.179 556.007 162.771 556.007 162.243V161.037ZM542.993 155.943C542.993 154.059 543.359 152.433 544.091 151.065C544.835 149.685 545.831 148.629 547.079 147.897C548.327 147.153 549.713 146.781 551.237 146.781C552.641 146.781 553.883 147.123 554.963 147.807C556.043 148.479 556.919 149.433 557.591 150.669L556.763 151.479C556.187 150.435 555.473 149.643 554.621 149.103C553.781 148.551 552.863 148.275 551.867 148.275C550.931 148.275 550.085 148.539 549.329 149.067C548.573 149.595 547.973 150.393 547.529 151.461C547.097 152.529 546.881 153.879 546.881 155.511C546.881 157.047 547.091 158.331 547.511 159.363C547.931 160.395 548.501 161.175 549.221 161.703C549.953 162.219 550.781 162.477 551.705 162.477C552.629 162.477 553.517 162.207 554.369 161.667C555.221 161.127 556.001 160.317 556.709 159.237L557.249 160.083C556.325 161.439 555.275 162.483 554.099 163.215C552.923 163.947 551.645 164.313 550.265 164.313C548.861 164.313 547.613 163.959 546.521 163.251C545.429 162.531 544.565 161.541 543.929 160.281C543.305 159.021 542.993 157.575 542.993 155.943ZM574.396 161.757V161.433L574.18 161.343V150.993C574.18 149.949 573.922 149.151 573.406 148.599C572.902 148.047 572.182 147.771 571.246 147.771C570.334 147.771 569.65 147.963 569.194 148.347C568.738 148.731 568.51 149.181 568.51 149.697V151.083C568.51 151.659 568.324 152.103 567.952 152.415C567.58 152.727 567.07 152.883 566.422 152.883C565.858 152.883 565.426 152.739 565.126 152.451C564.826 152.151 564.676 151.743 564.676 151.227C564.676 150.507 564.958 149.811 565.522 149.139C566.086 148.455 566.902 147.891 567.97 147.447C569.05 147.003 570.364 146.781 571.912 146.781C573.916 146.781 575.41 147.219 576.394 148.095C577.378 148.959 577.87 150.123 577.87 151.587V161.307C577.87 161.703 577.942 161.997 578.086 162.189C578.242 162.369 578.452 162.459 578.716 162.459C579.004 162.459 579.214 162.393 579.346 162.261C579.478 162.117 579.586 161.973 579.67 161.829C579.73 161.757 579.79 161.697 579.85 161.649C579.91 161.589 579.982 161.559 580.066 161.559C580.174 161.559 580.252 161.601 580.3 161.685C580.36 161.769 580.39 161.883 580.39 162.027C580.39 162.351 580.276 162.687 580.048 163.035C579.82 163.383 579.484 163.677 579.04 163.917C578.596 164.169 578.038 164.295 577.366 164.295C576.43 164.295 575.698 164.079 575.17 163.647C574.654 163.203 574.396 162.573 574.396 161.757ZM563.866 160.191C563.866 158.799 564.484 157.659 565.72 156.771C566.956 155.871 568.696 155.421 570.94 155.421C571.756 155.421 572.494 155.499 573.154 155.655C573.826 155.799 574.42 155.991 574.936 156.231L574.666 157.095C574.174 156.891 573.664 156.723 573.136 156.591C572.62 156.447 572.056 156.375 571.444 156.375C570.268 156.375 569.35 156.663 568.69 157.239C568.03 157.815 567.7 158.601 567.7 159.597C567.7 160.569 567.97 161.319 568.51 161.847C569.062 162.363 569.77 162.621 570.634 162.621C571.402 162.621 572.146 162.447 572.866 162.099C573.586 161.751 574.21 161.247 574.738 160.587L575.08 161.343C574.396 162.291 573.502 163.023 572.398 163.539C571.306 164.043 570.148 164.295 568.924 164.295C567.436 164.295 566.218 163.923 565.27 163.179C564.334 162.435 563.866 161.439 563.866 160.191ZM591.196 161.631L589.288 165.573L582.448 149.769C582.232 149.253 582.004 148.899 581.764 148.707C581.524 148.515 581.14 148.365 580.612 148.257C580.396 148.197 580.246 148.125 580.162 148.041C580.09 147.945 580.054 147.825 580.054 147.681C580.054 147.513 580.114 147.381 580.234 147.285C580.366 147.189 580.546 147.141 580.774 147.141H588.01C588.238 147.141 588.412 147.189 588.532 147.285C588.664 147.381 588.73 147.513 588.73 147.681C588.73 147.825 588.682 147.945 588.586 148.041C588.502 148.125 588.346 148.191 588.118 148.239L587.272 148.383C586.732 148.479 586.414 148.659 586.318 148.923C586.222 149.175 586.306 149.625 586.57 150.273L591.196 161.631ZM588.082 167.571L589.612 163.755L590.062 162.837L594.976 150.507C595.252 149.823 595.336 149.331 595.228 149.031C595.132 148.731 594.796 148.527 594.22 148.419L593.392 148.275C593.164 148.227 593.002 148.155 592.906 148.059C592.81 147.963 592.762 147.837 592.762 147.681C592.762 147.513 592.822 147.381 592.942 147.285C593.074 147.189 593.254 147.141 593.482 147.141H598.54C598.756 147.141 598.93 147.189 599.062 147.285C599.194 147.381 599.26 147.513 599.26 147.681C599.26 147.813 599.212 147.927 599.116 148.023C599.032 148.119 598.876 148.197 598.648 148.257C598.072 148.401 597.64 148.599 597.352 148.851C597.076 149.103 596.818 149.541 596.578 150.165L589.63 167.427C589.09 168.771 588.574 169.815 588.082 170.559C587.59 171.303 587.056 171.825 586.48 172.125C585.916 172.425 585.244 172.575 584.464 172.575C583.288 172.575 582.364 172.257 581.692 171.621C581.02 170.997 580.684 170.247 580.684 169.371C580.684 168.735 580.834 168.237 581.134 167.877C581.434 167.529 581.83 167.355 582.322 167.355C582.802 167.355 583.174 167.505 583.438 167.805C583.702 168.117 583.9 168.525 584.032 169.029L584.176 169.641C584.248 170.073 584.386 170.391 584.59 170.595C584.794 170.811 585.046 170.919 585.346 170.919C585.646 170.919 585.934 170.823 586.21 170.631C586.498 170.439 586.792 170.097 587.092 169.605C587.392 169.125 587.722 168.447 588.082 167.571ZM111.033 191.735V193.985L111.159 194.273V214.001C111.159 214.301 111.213 214.529 111.321 214.685C111.441 214.853 111.615 214.955 111.843 214.991L113.085 215.189C113.277 215.237 113.421 215.309 113.517 215.405C113.613 215.501 113.661 215.621 113.661 215.765C113.661 215.921 113.601 216.047 113.481 216.143C113.361 216.239 113.175 216.287 112.923 216.287H106.047C105.807 216.287 105.627 216.239 105.507 216.143C105.387 216.047 105.327 215.921 105.327 215.765C105.327 215.621 105.375 215.501 105.471 215.405C105.567 215.321 105.711 215.249 105.903 215.189L106.749 215.009C106.977 214.949 107.145 214.841 107.253 214.685C107.373 214.541 107.433 214.319 107.433 214.019V194.147C107.433 193.907 107.391 193.733 107.307 193.625C107.223 193.505 107.085 193.439 106.893 193.427L105.651 193.373C105.471 193.349 105.339 193.301 105.255 193.229C105.183 193.145 105.147 193.043 105.147 192.923C105.147 192.779 105.189 192.665 105.273 192.581C105.369 192.497 105.537 192.407 105.777 192.311L108.801 191.231C109.137 191.099 109.407 191.009 109.611 190.961C109.827 190.913 110.019 190.889 110.187 190.889C110.475 190.889 110.685 190.967 110.817 191.123C110.961 191.267 111.033 191.471 111.033 191.735ZM110.349 195.875L109.827 195.029C110.739 193.673 111.783 192.629 112.959 191.897C114.147 191.153 115.443 190.781 116.847 190.781C118.239 190.781 119.481 191.135 120.573 191.843C121.665 192.551 122.523 193.535 123.147 194.795C123.783 196.055 124.101 197.507 124.101 199.151C124.101 201.035 123.729 202.661 122.985 204.029C122.253 205.397 121.263 206.453 120.015 207.197C118.779 207.941 117.393 208.313 115.857 208.313C114.465 208.313 113.229 207.977 112.149 207.305C111.069 206.633 110.193 205.661 109.521 204.389L110.331 203.597C110.931 204.641 111.645 205.439 112.473 205.991C113.313 206.531 114.219 206.801 115.191 206.801C116.139 206.801 116.991 206.543 117.747 206.027C118.503 205.511 119.097 204.719 119.529 203.651C119.973 202.571 120.195 201.221 120.195 199.601C120.195 198.041 119.985 196.745 119.565 195.713C119.145 194.681 118.575 193.907 117.855 193.391C117.135 192.863 116.307 192.599 115.371 192.599C114.447 192.599 113.559 192.869 112.707 193.409C111.855 193.949 111.069 194.771 110.349 195.875ZM131.544 198.611C131.544 196.907 131.79 195.473 132.282 194.309C132.786 193.145 133.434 192.269 134.226 191.681C135.018 191.081 135.858 190.781 136.746 190.781C137.802 190.781 138.624 191.075 139.212 191.663C139.8 192.251 140.094 193.061 140.094 194.093C140.094 194.909 139.914 195.527 139.554 195.947C139.206 196.355 138.762 196.559 138.222 196.559C137.67 196.559 137.244 196.403 136.944 196.091C136.644 195.779 136.488 195.347 136.476 194.795V194.201C136.476 193.793 136.38 193.487 136.188 193.283C136.008 193.079 135.702 192.977 135.27 192.977C134.754 192.977 134.25 193.187 133.758 193.607C133.278 194.027 132.882 194.651 132.57 195.479C132.27 196.307 132.12 197.351 132.12 198.611H131.544ZM131.94 191.771L132.12 196.217V205.595C132.12 205.883 132.186 206.105 132.318 206.261C132.45 206.405 132.672 206.495 132.984 206.531L134.622 206.765C134.85 206.801 135.018 206.867 135.126 206.963C135.234 207.059 135.288 207.191 135.288 207.359C135.288 207.527 135.222 207.659 135.09 207.755C134.97 207.851 134.79 207.899 134.55 207.899H126.99C126.738 207.899 126.552 207.851 126.432 207.755C126.312 207.659 126.252 207.527 126.252 207.359C126.252 207.227 126.3 207.113 126.396 207.017C126.492 206.921 126.636 206.849 126.828 206.801L127.71 206.621C127.938 206.561 128.106 206.459 128.214 206.315C128.334 206.159 128.394 205.931 128.394 205.631V194.201C128.394 193.949 128.352 193.769 128.268 193.661C128.184 193.553 128.046 193.487 127.854 193.463L126.612 193.409C126.432 193.385 126.3 193.337 126.216 193.265C126.144 193.181 126.108 193.079 126.108 192.959C126.108 192.815 126.15 192.695 126.234 192.599C126.33 192.503 126.498 192.419 126.738 192.347L129.852 191.303C130.272 191.147 130.584 191.045 130.788 190.997C130.992 190.949 131.16 190.925 131.292 190.925C131.496 190.925 131.646 190.991 131.742 191.123C131.85 191.243 131.916 191.459 131.94 191.771ZM150.244 190.781C151.972 190.781 153.496 191.153 154.816 191.897C156.148 192.641 157.186 193.679 157.93 195.011C158.686 196.331 159.064 197.855 159.064 199.583C159.064 201.251 158.68 202.745 157.912 204.065C157.156 205.385 156.106 206.423 154.762 207.179C153.418 207.935 151.864 208.313 150.1 208.313C148.372 208.313 146.842 207.941 145.51 207.197C144.19 206.441 143.158 205.403 142.414 204.083C141.67 202.763 141.298 201.245 141.298 199.529C141.298 197.837 141.676 196.337 142.432 195.029C143.188 193.709 144.232 192.671 145.564 191.915C146.908 191.159 148.468 190.781 150.244 190.781ZM151.45 206.927C152.434 206.783 153.238 206.375 153.862 205.703C154.486 205.031 154.906 204.119 155.122 202.967C155.338 201.815 155.32 200.453 155.068 198.881C154.816 197.297 154.396 195.983 153.808 194.939C153.232 193.883 152.524 193.121 151.684 192.653C150.844 192.185 149.92 192.023 148.912 192.167C147.916 192.311 147.106 192.719 146.482 193.391C145.858 194.063 145.438 194.981 145.222 196.145C145.018 197.297 145.036 198.653 145.276 200.213C145.528 201.797 145.948 203.111 146.536 204.155C147.124 205.199 147.838 205.955 148.678 206.423C149.518 206.891 150.442 207.059 151.45 206.927ZM174.158 205.037L174.068 204.929V184.625C174.068 184.373 174.026 184.193 173.942 184.085C173.858 183.977 173.72 183.911 173.528 183.887L172.286 183.851C172.094 183.815 171.956 183.761 171.872 183.689C171.8 183.605 171.764 183.503 171.764 183.383C171.764 183.239 171.806 183.125 171.89 183.041C171.986 182.945 172.154 182.855 172.394 182.771L175.562 181.691C175.898 181.571 176.168 181.487 176.372 181.439C176.588 181.379 176.786 181.349 176.966 181.349C177.23 181.349 177.428 181.427 177.56 181.583C177.704 181.727 177.776 181.931 177.776 182.195V205.613C177.776 205.913 177.836 206.141 177.956 206.297C178.076 206.453 178.244 206.561 178.46 206.621L179.324 206.783C179.516 206.843 179.66 206.921 179.756 207.017C179.852 207.101 179.9 207.215 179.9 207.359C179.9 207.527 179.84 207.659 179.72 207.755C179.6 207.851 179.414 207.899 179.162 207.899H175.778C175.286 207.899 174.89 207.755 174.59 207.467C174.302 207.179 174.158 206.771 174.158 206.243V205.037ZM161.144 199.943C161.144 198.059 161.51 196.433 162.242 195.065C162.986 193.685 163.982 192.629 165.23 191.897C166.478 191.153 167.864 190.781 169.388 190.781C170.792 190.781 172.034 191.123 173.114 191.807C174.194 192.479 175.07 193.433 175.742 194.669L174.914 195.479C174.338 194.435 173.624 193.643 172.772 193.103C171.932 192.551 171.014 192.275 170.018 192.275C169.082 192.275 168.236 192.539 167.48 193.067C166.724 193.595 166.124 194.393 165.68 195.461C165.248 196.529 165.032 197.879 165.032 199.511C165.032 201.047 165.242 202.331 165.662 203.363C166.082 204.395 166.652 205.175 167.372 205.703C168.104 206.219 168.932 206.477 169.856 206.477C170.78 206.477 171.668 206.207 172.52 205.667C173.372 205.127 174.152 204.317 174.86 203.237L175.4 204.083C174.476 205.439 173.426 206.483 172.25 207.215C171.074 207.947 169.796 208.313 168.416 208.313C167.012 208.313 165.764 207.959 164.672 207.251C163.58 206.531 162.716 205.541 162.08 204.281C161.456 203.021 161.144 201.575 161.144 199.943ZM194.654 205.991V204.695L194.564 204.587V194.183C194.564 193.943 194.522 193.769 194.438 193.661C194.354 193.541 194.216 193.475 194.024 193.463L192.782 193.409C192.602 193.385 192.47 193.337 192.386 193.265C192.314 193.181 192.278 193.079 192.278 192.959C192.278 192.815 192.32 192.701 192.404 192.617C192.5 192.521 192.668 192.431 192.908 192.347L196.058 191.267C196.394 191.147 196.67 191.063 196.886 191.015C197.102 190.955 197.294 190.925 197.462 190.925C197.738 190.925 197.942 191.003 198.074 191.159C198.218 191.303 198.29 191.507 198.29 191.771V205.613C198.29 205.913 198.344 206.141 198.452 206.297C198.572 206.453 198.746 206.561 198.974 206.621L199.82 206.783C200.024 206.843 200.168 206.921 200.252 207.017C200.348 207.101 200.396 207.215 200.396 207.359C200.396 207.527 200.336 207.659 200.216 207.755C200.096 207.851 199.91 207.899 199.658 207.899H196.346C195.842 207.899 195.434 207.731 195.122 207.395C194.81 207.059 194.654 206.591 194.654 205.991ZM183.476 203.075V194.183C183.476 193.943 183.434 193.769 183.35 193.661C183.266 193.541 183.128 193.475 182.936 193.463L181.694 193.409C181.502 193.385 181.364 193.337 181.28 193.265C181.208 193.181 181.172 193.079 181.172 192.959C181.172 192.815 181.214 192.701 181.298 192.617C181.394 192.521 181.562 192.431 181.802 192.347L184.97 191.267C185.318 191.135 185.594 191.045 185.798 190.997C186.014 190.949 186.194 190.925 186.338 190.925C186.626 190.925 186.836 191.003 186.968 191.159C187.112 191.303 187.184 191.507 187.184 191.771V202.517C187.184 203.729 187.472 204.629 188.048 205.217C188.636 205.805 189.41 206.099 190.37 206.099C190.97 206.099 191.606 205.949 192.278 205.649C192.95 205.349 193.67 204.869 194.438 204.209L195.194 203.561L195.824 204.209L195.068 204.875C193.664 206.135 192.434 207.023 191.378 207.539C190.334 208.043 189.338 208.295 188.39 208.295C186.914 208.295 185.726 207.833 184.826 206.909C183.926 205.973 183.476 204.695 183.476 203.075ZM217.595 195.371C217.595 195.923 217.409 196.391 217.037 196.775C216.677 197.147 216.197 197.333 215.597 197.333C215.009 197.333 214.547 197.165 214.211 196.829C213.887 196.481 213.725 196.025 213.725 195.461V194.831C213.725 194.003 213.437 193.331 212.861 192.815C212.297 192.299 211.511 192.041 210.503 192.041C209.591 192.041 208.781 192.305 208.073 192.833C207.365 193.361 206.807 194.105 206.399 195.065C206.003 196.013 205.805 197.135 205.805 198.431C205.805 200.003 206.063 201.335 206.579 202.427C207.107 203.507 207.833 204.329 208.757 204.893C209.681 205.457 210.731 205.739 211.907 205.739C213.047 205.739 214.031 205.475 214.859 204.947C215.687 204.407 216.281 203.687 216.641 202.787C216.773 202.607 216.881 202.487 216.965 202.427C217.061 202.355 217.169 202.319 217.289 202.319C217.445 202.319 217.553 202.385 217.613 202.517C217.673 202.637 217.697 202.781 217.685 202.949C217.589 203.957 217.229 204.869 216.605 205.685C215.981 206.489 215.159 207.125 214.139 207.593C213.131 208.061 211.973 208.295 210.665 208.295C209.033 208.295 207.587 207.953 206.327 207.269C205.079 206.573 204.101 205.595 203.393 204.335C202.697 203.063 202.349 201.563 202.349 199.835C202.349 198.131 202.703 196.595 203.411 195.227C204.131 193.859 205.139 192.779 206.435 191.987C207.743 191.183 209.267 190.781 211.007 190.781C212.375 190.781 213.545 190.991 214.517 191.411C215.501 191.831 216.257 192.389 216.785 193.085C217.325 193.781 217.595 194.543 217.595 195.371ZM220.551 192.509L219.507 192.257C219.231 192.185 219.039 192.101 218.931 192.005C218.835 191.909 218.787 191.795 218.787 191.663C218.787 191.495 218.847 191.369 218.967 191.285C219.087 191.189 219.243 191.141 219.435 191.141H220.659C220.947 191.141 221.181 191.099 221.361 191.015C221.541 190.919 221.697 190.745 221.829 190.493L223.413 187.793C223.581 187.541 223.743 187.361 223.899 187.253C224.055 187.133 224.223 187.073 224.403 187.073C224.595 187.073 224.739 187.133 224.835 187.253C224.943 187.373 224.997 187.541 224.997 187.757V203.543C224.997 204.383 225.171 205.025 225.519 205.469C225.867 205.901 226.341 206.117 226.941 206.117C227.361 206.117 227.691 206.051 227.931 205.919C228.171 205.775 228.363 205.613 228.507 205.433C228.651 205.241 228.789 205.067 228.921 204.911C229.053 204.743 229.203 204.641 229.371 204.605C229.503 204.593 229.605 204.635 229.677 204.731C229.761 204.815 229.803 204.953 229.803 205.145C229.779 205.685 229.581 206.189 229.209 206.657C228.849 207.113 228.351 207.485 227.715 207.773C227.091 208.061 226.371 208.205 225.555 208.205C224.247 208.205 223.209 207.869 222.441 207.197C221.673 206.525 221.289 205.505 221.289 204.137V193.463C221.289 193.199 221.235 192.995 221.127 192.851C221.019 192.707 220.827 192.593 220.551 192.509ZM223.377 192.419L223.395 191.141H228.993C229.209 191.141 229.377 191.183 229.497 191.267C229.617 191.351 229.677 191.477 229.677 191.645C229.677 191.873 229.557 192.059 229.317 192.203C229.089 192.347 228.729 192.419 228.237 192.419H223.377ZM237.436 191.753V205.613C237.436 205.913 237.49 206.141 237.598 206.297C237.718 206.453 237.892 206.561 238.12 206.621L238.966 206.783C239.158 206.843 239.302 206.921 239.398 207.017C239.494 207.101 239.542 207.215 239.542 207.359C239.542 207.527 239.482 207.659 239.362 207.755C239.242 207.851 239.056 207.899 238.804 207.899H232.288C232.048 207.899 231.868 207.851 231.748 207.755C231.628 207.659 231.568 207.527 231.568 207.359C231.568 207.227 231.61 207.119 231.694 207.035C231.79 206.939 231.934 206.861 232.126 206.801L233.026 206.621C233.254 206.549 233.422 206.441 233.53 206.297C233.65 206.153 233.71 205.931 233.71 205.631V194.183C233.71 193.931 233.668 193.751 233.584 193.643C233.5 193.535 233.362 193.469 233.17 193.445L231.928 193.409C231.748 193.373 231.616 193.319 231.532 193.247C231.448 193.163 231.406 193.061 231.406 192.941C231.406 192.797 231.454 192.683 231.55 192.599C231.646 192.503 231.814 192.413 232.054 192.329L235.204 191.249C235.552 191.129 235.828 191.045 236.032 190.997C236.248 190.937 236.434 190.907 236.59 190.907C236.866 190.907 237.076 190.985 237.22 191.141C237.364 191.285 237.436 191.489 237.436 191.753ZM235.204 187.613C234.448 187.613 233.836 187.403 233.368 186.983C232.9 186.551 232.666 186.005 232.666 185.345C232.666 184.685 232.9 184.145 233.368 183.725C233.836 183.305 234.448 183.095 235.204 183.095C235.972 183.095 236.59 183.305 237.058 183.725C237.526 184.145 237.76 184.685 237.76 185.345C237.76 186.005 237.526 186.551 237.058 186.983C236.59 187.403 235.972 187.613 235.204 187.613ZM250.072 208.097H248.794C248.506 208.097 248.266 208.025 248.074 207.881C247.882 207.737 247.726 207.515 247.606 207.215L242.188 193.607C242.008 193.163 241.846 192.863 241.702 192.707C241.57 192.539 241.408 192.437 241.216 192.401L240.532 192.257C240.316 192.197 240.166 192.125 240.082 192.041C240.01 191.945 239.974 191.825 239.974 191.681C239.974 191.513 240.034 191.381 240.154 191.285C240.286 191.189 240.46 191.141 240.676 191.141H247.912C248.392 191.141 248.632 191.321 248.632 191.681C248.632 191.825 248.584 191.945 248.488 192.041C248.404 192.125 248.248 192.191 248.02 192.239L247.246 192.365C246.658 192.485 246.304 192.677 246.184 192.941C246.076 193.193 246.148 193.643 246.4 194.291L250.936 206.045L250.144 206.531L254.806 194.345C255.07 193.673 255.142 193.205 255.022 192.941C254.914 192.665 254.566 192.473 253.978 192.365L253.186 192.239C252.97 192.191 252.814 192.125 252.718 192.041C252.622 191.945 252.574 191.825 252.574 191.681C252.574 191.513 252.634 191.381 252.754 191.285C252.886 191.189 253.066 191.141 253.294 191.141H258.262C258.478 191.141 258.652 191.189 258.784 191.285C258.916 191.381 258.982 191.513 258.982 191.681C258.982 191.813 258.94 191.927 258.856 192.023C258.772 192.119 258.61 192.191 258.37 192.239L257.704 192.365C257.476 192.413 257.272 192.563 257.092 192.815C256.912 193.055 256.702 193.481 256.462 194.093L251.224 207.305C251.092 207.605 250.93 207.809 250.738 207.917C250.546 208.037 250.324 208.097 250.072 208.097ZM265.738 191.753V205.613C265.738 205.913 265.792 206.141 265.9 206.297C266.02 206.453 266.194 206.561 266.422 206.621L267.268 206.783C267.46 206.843 267.604 206.921 267.7 207.017C267.796 207.101 267.844 207.215 267.844 207.359C267.844 207.527 267.784 207.659 267.664 207.755C267.544 207.851 267.358 207.899 267.106 207.899H260.59C260.35 207.899 260.17 207.851 260.05 207.755C259.93 207.659 259.87 207.527 259.87 207.359C259.87 207.227 259.912 207.119 259.996 207.035C260.092 206.939 260.236 206.861 260.428 206.801L261.328 206.621C261.556 206.549 261.724 206.441 261.832 206.297C261.952 206.153 262.012 205.931 262.012 205.631V194.183C262.012 193.931 261.97 193.751 261.886 193.643C261.802 193.535 261.664 193.469 261.472 193.445L260.23 193.409C260.05 193.373 259.918 193.319 259.834 193.247C259.75 193.163 259.708 193.061 259.708 192.941C259.708 192.797 259.756 192.683 259.852 192.599C259.948 192.503 260.116 192.413 260.356 192.329L263.506 191.249C263.854 191.129 264.13 191.045 264.334 190.997C264.55 190.937 264.736 190.907 264.892 190.907C265.168 190.907 265.378 190.985 265.522 191.141C265.666 191.285 265.738 191.489 265.738 191.753ZM263.506 187.613C262.75 187.613 262.138 187.403 261.67 186.983C261.202 186.551 260.968 186.005 260.968 185.345C260.968 184.685 261.202 184.145 261.67 183.725C262.138 183.305 262.75 183.095 263.506 183.095C264.274 183.095 264.892 183.305 265.36 183.725C265.828 184.145 266.062 184.685 266.062 185.345C266.062 186.005 265.828 186.551 265.36 186.983C264.892 187.403 264.274 187.613 263.506 187.613ZM270.616 192.509L269.572 192.257C269.296 192.185 269.104 192.101 268.996 192.005C268.9 191.909 268.852 191.795 268.852 191.663C268.852 191.495 268.912 191.369 269.032 191.285C269.152 191.189 269.308 191.141 269.5 191.141H270.724C271.012 191.141 271.246 191.099 271.426 191.015C271.606 190.919 271.762 190.745 271.894 190.493L273.478 187.793C273.646 187.541 273.808 187.361 273.964 187.253C274.12 187.133 274.288 187.073 274.468 187.073C274.66 187.073 274.804 187.133 274.9 187.253C275.008 187.373 275.062 187.541 275.062 187.757V203.543C275.062 204.383 275.236 205.025 275.584 205.469C275.932 205.901 276.406 206.117 277.006 206.117C277.426 206.117 277.756 206.051 277.996 205.919C278.236 205.775 278.428 205.613 278.572 205.433C278.716 205.241 278.854 205.067 278.986 204.911C279.118 204.743 279.268 204.641 279.436 204.605C279.568 204.593 279.67 204.635 279.742 204.731C279.826 204.815 279.868 204.953 279.868 205.145C279.844 205.685 279.646 206.189 279.274 206.657C278.914 207.113 278.416 207.485 277.78 207.773C277.156 208.061 276.436 208.205 275.62 208.205C274.312 208.205 273.274 207.869 272.506 207.197C271.738 206.525 271.354 205.505 271.354 204.137V193.463C271.354 193.199 271.3 192.995 271.192 192.851C271.084 192.707 270.892 192.593 270.616 192.509ZM273.442 192.419L273.46 191.141H279.058C279.274 191.141 279.442 191.183 279.562 191.267C279.682 191.351 279.742 191.477 279.742 191.645C279.742 191.873 279.622 192.059 279.382 192.203C279.154 192.347 278.794 192.419 278.302 192.419H273.442ZM291.407 205.631L289.499 209.573L282.659 193.769C282.443 193.253 282.215 192.899 281.975 192.707C281.735 192.515 281.351 192.365 280.823 192.257C280.607 192.197 280.457 192.125 280.373 192.041C280.301 191.945 280.265 191.825 280.265 191.681C280.265 191.513 280.325 191.381 280.445 191.285C280.577 191.189 280.757 191.141 280.985 191.141H288.221C288.449 191.141 288.623 191.189 288.743 191.285C288.875 191.381 288.941 191.513 288.941 191.681C288.941 191.825 288.893 191.945 288.797 192.041C288.713 192.125 288.557 192.191 288.329 192.239L287.483 192.383C286.943 192.479 286.625 192.659 286.529 192.923C286.433 193.175 286.517 193.625 286.781 194.273L291.407 205.631ZM288.293 211.571L289.823 207.755L290.273 206.837L295.187 194.507C295.463 193.823 295.547 193.331 295.439 193.031C295.343 192.731 295.007 192.527 294.431 192.419L293.603 192.275C293.375 192.227 293.213 192.155 293.117 192.059C293.021 191.963 292.973 191.837 292.973 191.681C292.973 191.513 293.033 191.381 293.153 191.285C293.285 191.189 293.465 191.141 293.693 191.141H298.751C298.967 191.141 299.141 191.189 299.273 191.285C299.405 191.381 299.471 191.513 299.471 191.681C299.471 191.813 299.423 191.927 299.327 192.023C299.243 192.119 299.087 192.197 298.859 192.257C298.283 192.401 297.851 192.599 297.563 192.851C297.287 193.103 297.029 193.541 296.789 194.165L289.841 211.427C289.301 212.771 288.785 213.815 288.293 214.559C287.801 215.303 287.267 215.825 286.691 216.125C286.127 216.425 285.455 216.575 284.675 216.575C283.499 216.575 282.575 216.257 281.903 215.621C281.231 214.997 280.895 214.247 280.895 213.371C280.895 212.735 281.045 212.237 281.345 211.877C281.645 211.529 282.041 211.355 282.533 211.355C283.013 211.355 283.385 211.505 283.649 211.805C283.913 212.117 284.111 212.525 284.243 213.029L284.387 213.641C284.459 214.073 284.597 214.391 284.801 214.595C285.005 214.811 285.257 214.919 285.557 214.919C285.857 214.919 286.145 214.823 286.421 214.631C286.709 214.439 287.003 214.097 287.303 213.605C287.603 213.125 287.933 212.447 288.293 211.571ZM318.22 205.757V205.433L318.004 205.343V194.993C318.004 193.949 317.746 193.151 317.23 192.599C316.726 192.047 316.006 191.771 315.07 191.771C314.158 191.771 313.474 191.963 313.018 192.347C312.562 192.731 312.334 193.181 312.334 193.697V195.083C312.334 195.659 312.148 196.103 311.776 196.415C311.404 196.727 310.894 196.883 310.246 196.883C309.682 196.883 309.25 196.739 308.95 196.451C308.65 196.151 308.5 195.743 308.5 195.227C308.5 194.507 308.782 193.811 309.346 193.139C309.91 192.455 310.726 191.891 311.794 191.447C312.874 191.003 314.188 190.781 315.736 190.781C317.74 190.781 319.234 191.219 320.218 192.095C321.202 192.959 321.694 194.123 321.694 195.587V205.307C321.694 205.703 321.766 205.997 321.91 206.189C322.066 206.369 322.276 206.459 322.54 206.459C322.828 206.459 323.038 206.393 323.17 206.261C323.302 206.117 323.41 205.973 323.494 205.829C323.554 205.757 323.614 205.697 323.674 205.649C323.734 205.589 323.806 205.559 323.89 205.559C323.998 205.559 324.076 205.601 324.124 205.685C324.184 205.769 324.214 205.883 324.214 206.027C324.214 206.351 324.1 206.687 323.872 207.035C323.644 207.383 323.308 207.677 322.864 207.917C322.42 208.169 321.862 208.295 321.19 208.295C320.254 208.295 319.522 208.079 318.994 207.647C318.478 207.203 318.22 206.573 318.22 205.757ZM307.69 204.191C307.69 202.799 308.308 201.659 309.544 200.771C310.78 199.871 312.52 199.421 314.764 199.421C315.58 199.421 316.318 199.499 316.978 199.655C317.65 199.799 318.244 199.991 318.76 200.231L318.49 201.095C317.998 200.891 317.488 200.723 316.96 200.591C316.444 200.447 315.88 200.375 315.268 200.375C314.092 200.375 313.174 200.663 312.514 201.239C311.854 201.815 311.524 202.601 311.524 203.597C311.524 204.569 311.794 205.319 312.334 205.847C312.886 206.363 313.594 206.621 314.458 206.621C315.226 206.621 315.97 206.447 316.69 206.099C317.41 205.751 318.034 205.247 318.562 204.587L318.904 205.343C318.22 206.291 317.326 207.023 316.222 207.539C315.13 208.043 313.972 208.295 312.748 208.295C311.26 208.295 310.042 207.923 309.094 207.179C308.158 206.435 307.69 205.439 307.69 204.191ZM331.624 191.753V205.613C331.624 205.913 331.678 206.141 331.786 206.297C331.906 206.441 332.08 206.549 332.308 206.621L333.136 206.801C333.484 206.909 333.658 207.089 333.658 207.341C333.658 207.713 333.412 207.899 332.92 207.899H326.476C326.236 207.899 326.056 207.851 325.936 207.755C325.816 207.659 325.756 207.527 325.756 207.359C325.756 207.227 325.798 207.119 325.882 207.035C325.978 206.939 326.122 206.861 326.314 206.801L327.214 206.621C327.442 206.549 327.61 206.441 327.718 206.297C327.838 206.153 327.898 205.931 327.898 205.631V194.183C327.898 193.931 327.856 193.751 327.772 193.643C327.688 193.535 327.55 193.469 327.358 193.445L326.116 193.409C325.936 193.373 325.804 193.319 325.72 193.247C325.648 193.163 325.612 193.061 325.612 192.941C325.612 192.797 325.654 192.683 325.738 192.599C325.834 192.503 326.002 192.413 326.242 192.329L329.392 191.249C329.728 191.129 330.004 191.045 330.22 190.997C330.436 190.937 330.628 190.907 330.796 190.907C331.072 190.907 331.276 190.985 331.408 191.141C331.552 191.285 331.624 191.489 331.624 191.753ZM331.138 195.497L330.508 194.867L331.264 194.201C332.656 192.965 333.85 192.089 334.846 191.573C335.842 191.045 336.802 190.781 337.726 190.781C339.13 190.781 340.216 191.249 340.984 192.185C341.764 193.109 342.244 194.375 342.424 195.983L343.558 205.541C343.594 205.865 343.666 206.111 343.774 206.279C343.894 206.447 344.08 206.561 344.332 206.621L345.106 206.801C345.298 206.861 345.436 206.939 345.52 207.035C345.616 207.119 345.664 207.227 345.664 207.359C345.664 207.527 345.604 207.659 345.484 207.755C345.376 207.851 345.196 207.899 344.944 207.899H338.446C337.942 207.899 337.69 207.713 337.69 207.341C337.69 207.089 337.858 206.909 338.194 206.801L339.094 206.621C339.346 206.549 339.532 206.429 339.652 206.261C339.784 206.093 339.832 205.853 339.796 205.541L338.716 196.523C338.572 195.335 338.266 194.447 337.798 193.859C337.33 193.271 336.646 192.977 335.746 192.977C335.182 192.977 334.582 193.133 333.946 193.445C333.322 193.757 332.638 194.225 331.894 194.849L331.138 195.497ZM359.651 205.037L359.561 204.929V184.625C359.561 184.373 359.519 184.193 359.435 184.085C359.351 183.977 359.213 183.911 359.021 183.887L357.779 183.851C357.587 183.815 357.449 183.761 357.365 183.689C357.293 183.605 357.257 183.503 357.257 183.383C357.257 183.239 357.299 183.125 357.383 183.041C357.479 182.945 357.647 182.855 357.887 182.771L361.055 181.691C361.391 181.571 361.661 181.487 361.865 181.439C362.081 181.379 362.279 181.349 362.459 181.349C362.723 181.349 362.921 181.427 363.053 181.583C363.197 181.727 363.269 181.931 363.269 182.195V205.613C363.269 205.913 363.329 206.141 363.449 206.297C363.569 206.453 363.737 206.561 363.953 206.621L364.817 206.783C365.009 206.843 365.153 206.921 365.249 207.017C365.345 207.101 365.393 207.215 365.393 207.359C365.393 207.527 365.333 207.659 365.213 207.755C365.093 207.851 364.907 207.899 364.655 207.899H361.271C360.779 207.899 360.383 207.755 360.083 207.467C359.795 207.179 359.651 206.771 359.651 206.243V205.037ZM346.637 199.943C346.637 198.059 347.003 196.433 347.735 195.065C348.479 193.685 349.475 192.629 350.723 191.897C351.971 191.153 353.357 190.781 354.881 190.781C356.285 190.781 357.527 191.123 358.607 191.807C359.687 192.479 360.563 193.433 361.235 194.669L360.407 195.479C359.831 194.435 359.117 193.643 358.265 193.103C357.425 192.551 356.507 192.275 355.511 192.275C354.575 192.275 353.729 192.539 352.973 193.067C352.217 193.595 351.617 194.393 351.173 195.461C350.741 196.529 350.525 197.879 350.525 199.511C350.525 201.047 350.735 202.331 351.155 203.363C351.575 204.395 352.145 205.175 352.865 205.703C353.597 206.219 354.425 206.477 355.349 206.477C356.273 206.477 357.161 206.207 358.013 205.667C358.865 205.127 359.645 204.317 360.353 203.237L360.893 204.083C359.969 205.439 358.919 206.483 357.743 207.215C356.567 207.947 355.289 208.313 353.909 208.313C352.505 208.313 351.257 207.959 350.165 207.251C349.073 206.531 348.209 205.541 347.573 204.281C346.949 203.021 346.637 201.575 346.637 199.943ZM380.265 182.195V205.613C380.265 205.913 380.319 206.141 380.427 206.297C380.547 206.441 380.721 206.549 380.949 206.621L381.777 206.801C382.125 206.909 382.299 207.089 382.299 207.341C382.299 207.713 382.053 207.899 381.561 207.899H375.117C374.877 207.899 374.697 207.851 374.577 207.755C374.457 207.659 374.397 207.527 374.397 207.359C374.397 207.227 374.445 207.113 374.541 207.017C374.637 206.921 374.781 206.849 374.973 206.801L375.855 206.621C376.083 206.549 376.251 206.441 376.359 206.297C376.479 206.153 376.539 205.931 376.539 205.631V184.625C376.539 184.373 376.497 184.193 376.413 184.085C376.329 183.977 376.191 183.911 375.999 183.887L374.757 183.851C374.577 183.815 374.445 183.761 374.361 183.689C374.289 183.605 374.253 183.503 374.253 183.383C374.253 183.239 374.295 183.125 374.379 183.041C374.475 182.945 374.643 182.855 374.883 182.771L378.033 181.691C378.369 181.571 378.645 181.487 378.861 181.439C379.077 181.379 379.269 181.349 379.437 181.349C379.713 181.349 379.917 181.427 380.049 181.583C380.193 181.727 380.265 181.931 380.265 182.195ZM379.779 195.497L379.149 194.867L379.905 194.201C381.297 192.965 382.491 192.089 383.487 191.573C384.483 191.045 385.443 190.781 386.367 190.781C387.771 190.781 388.857 191.249 389.625 192.185C390.405 193.109 390.885 194.375 391.065 195.983L392.199 205.541C392.235 205.865 392.307 206.111 392.415 206.279C392.535 206.447 392.721 206.561 392.973 206.621L393.747 206.801C393.939 206.861 394.077 206.939 394.161 207.035C394.257 207.119 394.305 207.227 394.305 207.359C394.305 207.527 394.245 207.659 394.125 207.755C394.017 207.851 393.837 207.899 393.585 207.899H387.087C386.583 207.899 386.331 207.713 386.331 207.341C386.331 207.089 386.499 206.909 386.835 206.801L387.735 206.621C387.987 206.549 388.173 206.429 388.293 206.261C388.425 206.093 388.473 205.853 388.437 205.541L387.357 196.523C387.213 195.335 386.907 194.447 386.439 193.859C385.971 193.271 385.287 192.977 384.387 192.977C383.823 192.977 383.223 193.133 382.587 193.445C381.963 193.757 381.279 194.225 380.535 194.849L379.779 195.497ZM408.238 205.991V204.695L408.148 204.587V194.183C408.148 193.943 408.106 193.769 408.022 193.661C407.938 193.541 407.8 193.475 407.608 193.463L406.366 193.409C406.186 193.385 406.054 193.337 405.97 193.265C405.898 193.181 405.862 193.079 405.862 192.959C405.862 192.815 405.904 192.701 405.988 192.617C406.084 192.521 406.252 192.431 406.492 192.347L409.642 191.267C409.978 191.147 410.254 191.063 410.47 191.015C410.686 190.955 410.878 190.925 411.046 190.925C411.322 190.925 411.526 191.003 411.658 191.159C411.802 191.303 411.874 191.507 411.874 191.771V205.613C411.874 205.913 411.928 206.141 412.036 206.297C412.156 206.453 412.33 206.561 412.558 206.621L413.404 206.783C413.608 206.843 413.752 206.921 413.836 207.017C413.932 207.101 413.98 207.215 413.98 207.359C413.98 207.527 413.92 207.659 413.8 207.755C413.68 207.851 413.494 207.899 413.242 207.899H409.93C409.426 207.899 409.018 207.731 408.706 207.395C408.394 207.059 408.238 206.591 408.238 205.991ZM397.06 203.075V194.183C397.06 193.943 397.018 193.769 396.934 193.661C396.85 193.541 396.712 193.475 396.52 193.463L395.278 193.409C395.086 193.385 394.948 193.337 394.864 193.265C394.792 193.181 394.756 193.079 394.756 192.959C394.756 192.815 394.798 192.701 394.882 192.617C394.978 192.521 395.146 192.431 395.386 192.347L398.554 191.267C398.902 191.135 399.178 191.045 399.382 190.997C399.598 190.949 399.778 190.925 399.922 190.925C400.21 190.925 400.42 191.003 400.552 191.159C400.696 191.303 400.768 191.507 400.768 191.771V202.517C400.768 203.729 401.056 204.629 401.632 205.217C402.22 205.805 402.994 206.099 403.954 206.099C404.554 206.099 405.19 205.949 405.862 205.649C406.534 205.349 407.254 204.869 408.022 204.209L408.778 203.561L409.408 204.209L408.652 204.875C407.248 206.135 406.018 207.023 404.962 207.539C403.918 208.043 402.922 208.295 401.974 208.295C400.498 208.295 399.31 207.833 398.41 206.909C397.51 205.973 397.06 204.695 397.06 203.075ZM421.891 191.753V205.613C421.891 205.913 421.945 206.141 422.053 206.297C422.173 206.441 422.347 206.549 422.575 206.621L423.421 206.801C423.757 206.909 423.925 207.089 423.925 207.341C423.925 207.713 423.679 207.899 423.187 207.899H416.743C416.503 207.899 416.323 207.851 416.203 207.755C416.083 207.659 416.023 207.527 416.023 207.359C416.023 207.227 416.071 207.119 416.167 207.035C416.263 206.939 416.401 206.861 416.581 206.801L417.481 206.621C417.709 206.549 417.877 206.441 417.985 206.297C418.105 206.153 418.165 205.931 418.165 205.631V194.183C418.165 193.931 418.123 193.751 418.039 193.643C417.955 193.535 417.817 193.469 417.625 193.445L416.383 193.409C416.203 193.373 416.071 193.319 415.987 193.247C415.903 193.163 415.861 193.061 415.861 192.941C415.861 192.797 415.909 192.683 416.005 192.599C416.101 192.503 416.269 192.413 416.509 192.329L419.659 191.249C419.995 191.129 420.271 191.045 420.487 190.997C420.703 190.937 420.895 190.907 421.063 190.907C421.339 190.907 421.543 190.985 421.675 191.141C421.819 191.285 421.891 191.489 421.891 191.753ZM421.405 195.515L420.775 194.867L421.531 194.201C422.935 192.929 424.159 192.041 425.203 191.537C426.259 191.033 427.267 190.781 428.227 190.781C429.715 190.781 430.903 191.249 431.791 192.185C432.691 193.109 433.141 194.381 433.141 196.001V205.541C433.141 205.865 433.207 206.111 433.339 206.279C433.471 206.447 433.657 206.561 433.897 206.621L434.653 206.801C434.989 206.921 435.157 207.101 435.157 207.341C435.157 207.713 434.911 207.899 434.419 207.899H428.083C427.579 207.899 427.327 207.713 427.327 207.341C427.327 207.089 427.495 206.909 427.831 206.801L428.713 206.621C428.965 206.549 429.145 206.429 429.253 206.261C429.373 206.093 429.433 205.847 429.433 205.523V196.559C429.433 195.359 429.139 194.465 428.551 193.877C427.975 193.277 427.201 192.977 426.229 192.977C425.629 192.977 424.993 193.127 424.321 193.427C423.649 193.715 422.929 194.189 422.161 194.849L421.405 195.515ZM432.637 195.515L432.007 194.867L432.763 194.201C434.119 192.977 435.289 192.101 436.273 191.573C437.257 191.045 438.211 190.781 439.135 190.781C440.539 190.781 441.631 191.249 442.411 192.185C443.203 193.109 443.689 194.381 443.869 196.001L445.003 205.541C445.039 205.865 445.111 206.111 445.219 206.279C445.339 206.447 445.519 206.567 445.759 206.639L446.533 206.801C446.713 206.861 446.845 206.939 446.929 207.035C447.025 207.119 447.073 207.227 447.073 207.359C447.073 207.527 447.013 207.659 446.893 207.755C446.785 207.851 446.605 207.899 446.353 207.899H439.891C439.387 207.899 439.135 207.713 439.135 207.341C439.135 207.089 439.303 206.909 439.639 206.801L440.521 206.621C440.773 206.549 440.965 206.429 441.097 206.261C441.229 206.093 441.277 205.847 441.241 205.523L440.161 196.559C440.005 195.359 439.687 194.465 439.207 193.877C438.739 193.277 438.055 192.977 437.155 192.977C436.603 192.977 436.021 193.133 435.409 193.445C434.797 193.757 434.125 194.225 433.393 194.849L432.637 195.515ZM458.903 205.757V205.433L458.687 205.343V194.993C458.687 193.949 458.429 193.151 457.913 192.599C457.409 192.047 456.689 191.771 455.753 191.771C454.841 191.771 454.157 191.963 453.701 192.347C453.245 192.731 453.017 193.181 453.017 193.697V195.083C453.017 195.659 452.831 196.103 452.459 196.415C452.087 196.727 451.577 196.883 450.929 196.883C450.365 196.883 449.933 196.739 449.633 196.451C449.333 196.151 449.183 195.743 449.183 195.227C449.183 194.507 449.465 193.811 450.029 193.139C450.593 192.455 451.409 191.891 452.477 191.447C453.557 191.003 454.871 190.781 456.419 190.781C458.423 190.781 459.917 191.219 460.901 192.095C461.885 192.959 462.377 194.123 462.377 195.587V205.307C462.377 205.703 462.449 205.997 462.593 206.189C462.749 206.369 462.959 206.459 463.223 206.459C463.511 206.459 463.721 206.393 463.853 206.261C463.985 206.117 464.093 205.973 464.177 205.829C464.237 205.757 464.297 205.697 464.357 205.649C464.417 205.589 464.489 205.559 464.573 205.559C464.681 205.559 464.759 205.601 464.807 205.685C464.867 205.769 464.897 205.883 464.897 206.027C464.897 206.351 464.783 206.687 464.555 207.035C464.327 207.383 463.991 207.677 463.547 207.917C463.103 208.169 462.545 208.295 461.873 208.295C460.937 208.295 460.205 208.079 459.677 207.647C459.161 207.203 458.903 206.573 458.903 205.757ZM448.373 204.191C448.373 202.799 448.991 201.659 450.227 200.771C451.463 199.871 453.203 199.421 455.447 199.421C456.263 199.421 457.001 199.499 457.661 199.655C458.333 199.799 458.927 199.991 459.443 200.231L459.173 201.095C458.681 200.891 458.171 200.723 457.643 200.591C457.127 200.447 456.563 200.375 455.951 200.375C454.775 200.375 453.857 200.663 453.197 201.239C452.537 201.815 452.207 202.601 452.207 203.597C452.207 204.569 452.477 205.319 453.017 205.847C453.569 206.363 454.277 206.621 455.141 206.621C455.909 206.621 456.653 206.447 457.373 206.099C458.093 205.751 458.717 205.247 459.245 204.587L459.587 205.343C458.903 206.291 458.009 207.023 456.905 207.539C455.813 208.043 454.655 208.295 453.431 208.295C451.943 208.295 450.725 207.923 449.777 207.179C448.841 206.435 448.373 205.439 448.373 204.191ZM472.306 191.753V205.613C472.306 205.913 472.36 206.141 472.468 206.297C472.588 206.441 472.762 206.549 472.99 206.621L473.818 206.801C474.166 206.909 474.34 207.089 474.34 207.341C474.34 207.713 474.094 207.899 473.602 207.899H467.158C466.918 207.899 466.738 207.851 466.618 207.755C466.498 207.659 466.438 207.527 466.438 207.359C466.438 207.227 466.48 207.119 466.564 207.035C466.66 206.939 466.804 206.861 466.996 206.801L467.896 206.621C468.124 206.549 468.292 206.441 468.4 206.297C468.52 206.153 468.58 205.931 468.58 205.631V194.183C468.58 193.931 468.538 193.751 468.454 193.643C468.37 193.535 468.232 193.469 468.04 193.445L466.798 193.409C466.618 193.373 466.486 193.319 466.402 193.247C466.33 193.163 466.294 193.061 466.294 192.941C466.294 192.797 466.336 192.683 466.42 192.599C466.516 192.503 466.684 192.413 466.924 192.329L470.074 191.249C470.41 191.129 470.686 191.045 470.902 190.997C471.118 190.937 471.31 190.907 471.478 190.907C471.754 190.907 471.958 190.985 472.09 191.141C472.234 191.285 472.306 191.489 472.306 191.753ZM471.82 195.497L471.19 194.867L471.946 194.201C473.338 192.965 474.532 192.089 475.528 191.573C476.524 191.045 477.484 190.781 478.408 190.781C479.812 190.781 480.898 191.249 481.666 192.185C482.446 193.109 482.926 194.375 483.106 195.983L484.24 205.541C484.276 205.865 484.348 206.111 484.456 206.279C484.576 206.447 484.762 206.561 485.014 206.621L485.788 206.801C485.98 206.861 486.118 206.939 486.202 207.035C486.298 207.119 486.346 207.227 486.346 207.359C486.346 207.527 486.286 207.659 486.166 207.755C486.058 207.851 485.878 207.899 485.626 207.899H479.128C478.624 207.899 478.372 207.713 478.372 207.341C478.372 207.089 478.54 206.909 478.876 206.801L479.776 206.621C480.028 206.549 480.214 206.429 480.334 206.261C480.466 206.093 480.514 205.853 480.478 205.541L479.398 196.523C479.254 195.335 478.948 194.447 478.48 193.859C478.012 193.271 477.328 192.977 476.428 192.977C475.864 192.977 475.264 193.133 474.628 193.445C474.004 193.757 473.32 194.225 472.576 194.849L471.82 195.497ZM509.686 195.371C509.686 195.923 509.5 196.391 509.128 196.775C508.768 197.147 508.288 197.333 507.688 197.333C507.1 197.333 506.638 197.165 506.302 196.829C505.978 196.481 505.816 196.025 505.816 195.461V194.831C505.816 194.003 505.528 193.331 504.952 192.815C504.388 192.299 503.602 192.041 502.594 192.041C501.682 192.041 500.872 192.305 500.164 192.833C499.456 193.361 498.898 194.105 498.49 195.065C498.094 196.013 497.896 197.135 497.896 198.431C497.896 200.003 498.154 201.335 498.67 202.427C499.198 203.507 499.924 204.329 500.848 204.893C501.772 205.457 502.822 205.739 503.998 205.739C505.138 205.739 506.122 205.475 506.95 204.947C507.778 204.407 508.372 203.687 508.732 202.787C508.864 202.607 508.972 202.487 509.056 202.427C509.152 202.355 509.26 202.319 509.38 202.319C509.536 202.319 509.644 202.385 509.704 202.517C509.764 202.637 509.788 202.781 509.776 202.949C509.68 203.957 509.32 204.869 508.696 205.685C508.072 206.489 507.25 207.125 506.23 207.593C505.222 208.061 504.064 208.295 502.756 208.295C501.124 208.295 499.678 207.953 498.418 207.269C497.17 206.573 496.192 205.595 495.484 204.335C494.788 203.063 494.44 201.563 494.44 199.835C494.44 198.131 494.794 196.595 495.502 195.227C496.222 193.859 497.23 192.779 498.526 191.987C499.834 191.183 501.358 190.781 503.098 190.781C504.466 190.781 505.636 190.991 506.608 191.411C507.592 191.831 508.348 192.389 508.876 193.085C509.416 193.781 509.686 194.543 509.686 195.371ZM520.49 190.781C522.218 190.781 523.742 191.153 525.062 191.897C526.394 192.641 527.432 193.679 528.176 195.011C528.932 196.331 529.31 197.855 529.31 199.583C529.31 201.251 528.926 202.745 528.158 204.065C527.402 205.385 526.352 206.423 525.008 207.179C523.664 207.935 522.11 208.313 520.346 208.313C518.618 208.313 517.088 207.941 515.756 207.197C514.436 206.441 513.404 205.403 512.66 204.083C511.916 202.763 511.544 201.245 511.544 199.529C511.544 197.837 511.922 196.337 512.678 195.029C513.434 193.709 514.478 192.671 515.81 191.915C517.154 191.159 518.714 190.781 520.49 190.781ZM521.696 206.927C522.68 206.783 523.484 206.375 524.108 205.703C524.732 205.031 525.152 204.119 525.368 202.967C525.584 201.815 525.566 200.453 525.314 198.881C525.062 197.297 524.642 195.983 524.054 194.939C523.478 193.883 522.77 193.121 521.93 192.653C521.09 192.185 520.166 192.023 519.158 192.167C518.162 192.311 517.352 192.719 516.728 193.391C516.104 194.063 515.684 194.981 515.468 196.145C515.264 197.297 515.282 198.653 515.522 200.213C515.774 201.797 516.194 203.111 516.782 204.155C517.37 205.199 518.084 205.955 518.924 206.423C519.764 206.891 520.688 207.059 521.696 206.927ZM537.348 191.753V205.613C537.348 205.913 537.402 206.141 537.51 206.297C537.63 206.441 537.804 206.549 538.032 206.621L538.86 206.801C539.208 206.909 539.382 207.089 539.382 207.341C539.382 207.713 539.136 207.899 538.644 207.899H532.2C531.96 207.899 531.78 207.851 531.66 207.755C531.54 207.659 531.48 207.527 531.48 207.359C531.48 207.227 531.522 207.119 531.606 207.035C531.702 206.939 531.846 206.861 532.038 206.801L532.938 206.621C533.166 206.549 533.334 206.441 533.442 206.297C533.562 206.153 533.622 205.931 533.622 205.631V194.183C533.622 193.931 533.58 193.751 533.496 193.643C533.412 193.535 533.274 193.469 533.082 193.445L531.84 193.409C531.66 193.373 531.528 193.319 531.444 193.247C531.372 193.163 531.336 193.061 531.336 192.941C531.336 192.797 531.378 192.683 531.462 192.599C531.558 192.503 531.726 192.413 531.966 192.329L535.116 191.249C535.452 191.129 535.728 191.045 535.944 190.997C536.16 190.937 536.352 190.907 536.52 190.907C536.796 190.907 537 190.985 537.132 191.141C537.276 191.285 537.348 191.489 537.348 191.753ZM536.862 195.497L536.232 194.867L536.988 194.201C538.38 192.965 539.574 192.089 540.57 191.573C541.566 191.045 542.526 190.781 543.45 190.781C544.854 190.781 545.94 191.249 546.708 192.185C547.488 193.109 547.968 194.375 548.148 195.983L549.282 205.541C549.318 205.865 549.39 206.111 549.498 206.279C549.618 206.447 549.804 206.561 550.056 206.621L550.83 206.801C551.022 206.861 551.16 206.939 551.244 207.035C551.34 207.119 551.388 207.227 551.388 207.359C551.388 207.527 551.328 207.659 551.208 207.755C551.1 207.851 550.92 207.899 550.668 207.899H544.17C543.666 207.899 543.414 207.713 543.414 207.341C543.414 207.089 543.582 206.909 543.918 206.801L544.818 206.621C545.07 206.549 545.256 206.429 545.376 206.261C545.508 206.093 545.556 205.853 545.52 205.541L544.44 196.523C544.296 195.335 543.99 194.447 543.522 193.859C543.054 193.271 542.37 192.977 541.47 192.977C540.906 192.977 540.306 193.133 539.67 193.445C539.046 193.757 538.362 194.225 537.618 194.849L536.862 195.497ZM558.32 191.753V205.613C558.32 205.913 558.374 206.141 558.482 206.297C558.602 206.441 558.776 206.549 559.004 206.621L559.832 206.801C560.18 206.909 560.354 207.089 560.354 207.341C560.354 207.713 560.108 207.899 559.616 207.899H553.172C552.932 207.899 552.752 207.851 552.632 207.755C552.512 207.659 552.452 207.527 552.452 207.359C552.452 207.227 552.494 207.119 552.578 207.035C552.674 206.939 552.818 206.861 553.01 206.801L553.91 206.621C554.138 206.549 554.306 206.441 554.414 206.297C554.534 206.153 554.594 205.931 554.594 205.631V194.183C554.594 193.931 554.552 193.751 554.468 193.643C554.384 193.535 554.246 193.469 554.054 193.445L552.812 193.409C552.632 193.373 552.5 193.319 552.416 193.247C552.344 193.163 552.308 193.061 552.308 192.941C552.308 192.797 552.35 192.683 552.434 192.599C552.53 192.503 552.698 192.413 552.938 192.329L556.088 191.249C556.424 191.129 556.7 191.045 556.916 190.997C557.132 190.937 557.324 190.907 557.492 190.907C557.768 190.907 557.972 190.985 558.104 191.141C558.248 191.285 558.32 191.489 558.32 191.753ZM557.834 195.497L557.204 194.867L557.96 194.201C559.352 192.965 560.546 192.089 561.542 191.573C562.538 191.045 563.498 190.781 564.422 190.781C565.826 190.781 566.912 191.249 567.68 192.185C568.46 193.109 568.94 194.375 569.12 195.983L570.254 205.541C570.29 205.865 570.362 206.111 570.47 206.279C570.59 206.447 570.776 206.561 571.028 206.621L571.802 206.801C571.994 206.861 572.132 206.939 572.216 207.035C572.312 207.119 572.36 207.227 572.36 207.359C572.36 207.527 572.3 207.659 572.18 207.755C572.072 207.851 571.892 207.899 571.64 207.899H565.142C564.638 207.899 564.386 207.713 564.386 207.341C564.386 207.089 564.554 206.909 564.89 206.801L565.79 206.621C566.042 206.549 566.228 206.429 566.348 206.261C566.48 206.093 566.528 205.853 566.492 205.541L565.412 196.523C565.268 195.335 564.962 194.447 564.494 193.859C564.026 193.271 563.342 192.977 562.442 192.977C561.878 192.977 561.278 193.133 560.642 193.445C560.018 193.757 559.334 194.225 558.59 194.849L557.834 195.497ZM588.867 197.513C588.867 198.005 588.723 198.383 588.435 198.647C588.147 198.899 587.721 199.025 587.157 199.025H575.691V197.981H584.259C584.799 197.981 585.069 197.741 585.069 197.261C585.069 195.605 584.727 194.321 584.043 193.409C583.359 192.497 582.447 192.041 581.307 192.041C580.395 192.041 579.597 192.305 578.913 192.833C578.241 193.349 577.713 194.087 577.329 195.047C576.945 196.007 576.753 197.141 576.753 198.449C576.753 200.849 577.317 202.673 578.445 203.921C579.585 205.157 581.073 205.775 582.909 205.775C584.097 205.775 585.123 205.499 585.987 204.947C586.863 204.383 587.469 203.639 587.805 202.715C587.937 202.535 588.051 202.415 588.147 202.355C588.243 202.283 588.345 202.247 588.453 202.247C588.597 202.247 588.699 202.313 588.759 202.445C588.831 202.565 588.867 202.709 588.867 202.877C588.783 203.873 588.423 204.785 587.787 205.613C587.151 206.441 586.305 207.101 585.249 207.593C584.205 208.073 583.011 208.313 581.667 208.313C580.023 208.313 578.571 207.965 577.311 207.269C576.051 206.561 575.067 205.577 574.359 204.317C573.663 203.045 573.315 201.557 573.315 199.853C573.315 198.101 573.657 196.547 574.341 195.191C575.025 193.823 576.003 192.749 577.275 191.969C578.547 191.177 580.053 190.781 581.793 190.781C583.233 190.781 584.481 191.069 585.537 191.645C586.605 192.209 587.427 193.001 588.003 194.021C588.579 195.029 588.867 196.193 588.867 197.513ZM606.14 195.371C606.14 195.923 605.954 196.391 605.582 196.775C605.222 197.147 604.742 197.333 604.142 197.333C603.554 197.333 603.092 197.165 602.756 196.829C602.432 196.481 602.27 196.025 602.27 195.461V194.831C602.27 194.003 601.982 193.331 601.406 192.815C600.842 192.299 600.056 192.041 599.048 192.041C598.136 192.041 597.326 192.305 596.618 192.833C595.91 193.361 595.352 194.105 594.944 195.065C594.548 196.013 594.35 197.135 594.35 198.431C594.35 200.003 594.608 201.335 595.124 202.427C595.652 203.507 596.378 204.329 597.302 204.893C598.226 205.457 599.276 205.739 600.452 205.739C601.592 205.739 602.576 205.475 603.404 204.947C604.232 204.407 604.826 203.687 605.186 202.787C605.318 202.607 605.426 202.487 605.51 202.427C605.606 202.355 605.714 202.319 605.834 202.319C605.99 202.319 606.098 202.385 606.158 202.517C606.218 202.637 606.242 202.781 606.23 202.949C606.134 203.957 605.774 204.869 605.15 205.685C604.526 206.489 603.704 207.125 602.684 207.593C601.676 208.061 600.518 208.295 599.21 208.295C597.578 208.295 596.132 207.953 594.872 207.269C593.624 206.573 592.646 205.595 591.938 204.335C591.242 203.063 590.894 201.563 590.894 199.835C590.894 198.131 591.248 196.595 591.956 195.227C592.676 193.859 593.684 192.779 594.98 191.987C596.288 191.183 597.812 190.781 599.552 190.781C600.92 190.781 602.09 190.991 603.062 191.411C604.046 191.831 604.802 192.389 605.33 193.085C605.87 193.781 606.14 194.543 606.14 195.371ZM609.097 192.509L608.053 192.257C607.777 192.185 607.585 192.101 607.477 192.005C607.381 191.909 607.333 191.795 607.333 191.663C607.333 191.495 607.393 191.369 607.513 191.285C607.633 191.189 607.789 191.141 607.981 191.141H609.205C609.493 191.141 609.727 191.099 609.907 191.015C610.087 190.919 610.243 190.745 610.375 190.493L611.959 187.793C612.127 187.541 612.289 187.361 612.445 187.253C612.601 187.133 612.769 187.073 612.949 187.073C613.141 187.073 613.285 187.133 613.381 187.253C613.489 187.373 613.543 187.541 613.543 187.757V203.543C613.543 204.383 613.717 205.025 614.065 205.469C614.413 205.901 614.887 206.117 615.487 206.117C615.907 206.117 616.237 206.051 616.477 205.919C616.717 205.775 616.909 205.613 617.053 205.433C617.197 205.241 617.335 205.067 617.467 204.911C617.599 204.743 617.749 204.641 617.917 204.605C618.049 204.593 618.151 204.635 618.223 204.731C618.307 204.815 618.349 204.953 618.349 205.145C618.325 205.685 618.127 206.189 617.755 206.657C617.395 207.113 616.897 207.485 616.261 207.773C615.637 208.061 614.917 208.205 614.101 208.205C612.793 208.205 611.755 207.869 610.987 207.197C610.219 206.525 609.835 205.505 609.835 204.137V193.463C609.835 193.199 609.781 192.995 609.673 192.851C609.565 192.707 609.373 192.593 609.097 192.509ZM611.923 192.419L611.941 191.141H617.539C617.755 191.141 617.923 191.183 618.043 191.267C618.163 191.351 618.223 191.477 618.223 191.645C618.223 191.873 618.103 192.059 617.863 192.203C617.635 192.347 617.275 192.419 616.783 192.419H611.923ZM625.981 191.753V205.613C625.981 205.913 626.035 206.141 626.143 206.297C626.263 206.453 626.437 206.561 626.665 206.621L627.511 206.783C627.703 206.843 627.847 206.921 627.943 207.017C628.039 207.101 628.087 207.215 628.087 207.359C628.087 207.527 628.027 207.659 627.907 207.755C627.787 207.851 627.601 207.899 627.349 207.899H620.833C620.593 207.899 620.413 207.851 620.293 207.755C620.173 207.659 620.113 207.527 620.113 207.359C620.113 207.227 620.155 207.119 620.239 207.035C620.335 206.939 620.479 206.861 620.671 206.801L621.571 206.621C621.799 206.549 621.967 206.441 622.075 206.297C622.195 206.153 622.255 205.931 622.255 205.631V194.183C622.255 193.931 622.213 193.751 622.129 193.643C622.045 193.535 621.907 193.469 621.715 193.445L620.473 193.409C620.293 193.373 620.161 193.319 620.077 193.247C619.993 193.163 619.951 193.061 619.951 192.941C619.951 192.797 619.999 192.683 620.095 192.599C620.191 192.503 620.359 192.413 620.599 192.329L623.749 191.249C624.097 191.129 624.373 191.045 624.577 190.997C624.793 190.937 624.979 190.907 625.135 190.907C625.411 190.907 625.621 190.985 625.765 191.141C625.909 191.285 625.981 191.489 625.981 191.753ZM623.749 187.613C622.993 187.613 622.381 187.403 621.913 186.983C621.445 186.551 621.211 186.005 621.211 185.345C621.211 184.685 621.445 184.145 621.913 183.725C622.381 183.305 622.993 183.095 623.749 183.095C624.517 183.095 625.135 183.305 625.603 183.725C626.071 184.145 626.305 184.685 626.305 185.345C626.305 186.005 626.071 186.551 625.603 186.983C625.135 187.403 624.517 187.613 623.749 187.613ZM638.708 190.781C640.436 190.781 641.96 191.153 643.28 191.897C644.612 192.641 645.65 193.679 646.394 195.011C647.15 196.331 647.528 197.855 647.528 199.583C647.528 201.251 647.144 202.745 646.376 204.065C645.62 205.385 644.57 206.423 643.226 207.179C641.882 207.935 640.328 208.313 638.564 208.313C636.836 208.313 635.306 207.941 633.974 207.197C632.654 206.441 631.622 205.403 630.878 204.083C630.134 202.763 629.762 201.245 629.762 199.529C629.762 197.837 630.14 196.337 630.896 195.029C631.652 193.709 632.696 192.671 634.028 191.915C635.372 191.159 636.932 190.781 638.708 190.781ZM639.914 206.927C640.898 206.783 641.702 206.375 642.326 205.703C642.95 205.031 643.37 204.119 643.586 202.967C643.802 201.815 643.784 200.453 643.532 198.881C643.28 197.297 642.86 195.983 642.272 194.939C641.696 193.883 640.988 193.121 640.148 192.653C639.308 192.185 638.384 192.023 637.376 192.167C636.38 192.311 635.57 192.719 634.946 193.391C634.322 194.063 633.902 194.981 633.686 196.145C633.482 197.297 633.5 198.653 633.74 200.213C633.992 201.797 634.412 203.111 635 204.155C635.588 205.199 636.302 205.955 637.142 206.423C637.982 206.891 638.906 207.059 639.914 206.927ZM655.566 191.753V205.613C655.566 205.913 655.62 206.141 655.728 206.297C655.848 206.441 656.022 206.549 656.25 206.621L657.078 206.801C657.426 206.909 657.6 207.089 657.6 207.341C657.6 207.713 657.354 207.899 656.862 207.899H650.418C650.178 207.899 649.998 207.851 649.878 207.755C649.758 207.659 649.698 207.527 649.698 207.359C649.698 207.227 649.74 207.119 649.824 207.035C649.92 206.939 650.064 206.861 650.256 206.801L651.156 206.621C651.384 206.549 651.552 206.441 651.66 206.297C651.78 206.153 651.84 205.931 651.84 205.631V194.183C651.84 193.931 651.798 193.751 651.714 193.643C651.63 193.535 651.492 193.469 651.3 193.445L650.058 193.409C649.878 193.373 649.746 193.319 649.662 193.247C649.59 193.163 649.554 193.061 649.554 192.941C649.554 192.797 649.596 192.683 649.68 192.599C649.776 192.503 649.944 192.413 650.184 192.329L653.334 191.249C653.67 191.129 653.946 191.045 654.162 190.997C654.378 190.937 654.57 190.907 654.738 190.907C655.014 190.907 655.218 190.985 655.35 191.141C655.494 191.285 655.566 191.489 655.566 191.753ZM655.08 195.497L654.45 194.867L655.206 194.201C656.598 192.965 657.792 192.089 658.788 191.573C659.784 191.045 660.744 190.781 661.668 190.781C663.072 190.781 664.158 191.249 664.926 192.185C665.706 193.109 666.186 194.375 666.366 195.983L667.5 205.541C667.536 205.865 667.608 206.111 667.716 206.279C667.836 206.447 668.022 206.561 668.274 206.621L669.048 206.801C669.24 206.861 669.378 206.939 669.462 207.035C669.558 207.119 669.606 207.227 669.606 207.359C669.606 207.527 669.546 207.659 669.426 207.755C669.318 207.851 669.138 207.899 668.886 207.899H662.388C661.884 207.899 661.632 207.713 661.632 207.341C661.632 207.089 661.8 206.909 662.136 206.801L663.036 206.621C663.288 206.549 663.474 206.429 663.594 206.261C663.726 206.093 663.774 205.853 663.738 205.541L662.658 196.523C662.514 195.335 662.208 194.447 661.74 193.859C661.272 193.271 660.588 192.977 659.688 192.977C659.124 192.977 658.524 193.133 657.888 193.445C657.264 193.757 656.58 194.225 655.836 194.849L655.08 195.497Z" fill="black"/>
</svg>
