<svg preserveAspectRatio="none" width="100%" height="100%" overflow="visible" style="display: block;" viewBox="0 0 21.7501 21.7538" fill="none" xmlns="http://www.w3.org/2000/svg">
<path id="Vector" d="M17.0232 11.3494L12.1847 9.56812L10.4035 4.72594C10.298 4.43937 10.1072 4.19206 9.85671 4.01736C9.60625 3.84267 9.30824 3.749 9.00287 3.749C8.69751 3.749 8.39949 3.84267 8.14904 4.01736C7.89858 4.19206 7.70773 4.43937 7.60225 4.72594L5.81912 9.5625L0.976936 11.3438C0.69037 11.4492 0.443055 11.6401 0.268361 11.8905C0.0936662 12.141 0 12.439 0 12.7444C0 13.0497 0.0936662 13.3478 0.268361 13.5982C0.443055 13.8487 0.69037 14.0395 0.976936 14.145L5.81256 15.9375L7.59381 20.7769C7.6993 21.0634 7.89014 21.3108 8.1406 21.4855C8.39106 21.6601 8.68907 21.7538 8.99444 21.7538C9.2998 21.7538 9.59782 21.6601 9.84827 21.4855C10.0987 21.3108 10.2896 21.0634 10.3951 20.7769L12.1763 15.9384L17.0185 14.1572C17.3051 14.0517 17.5524 13.8609 17.7271 13.6104C17.9018 13.3599 17.9954 13.0619 17.9954 12.7566C17.9954 12.4512 17.9018 12.1532 17.7271 11.9027C17.5524 11.6523 17.3051 11.4614 17.0185 11.3559L17.0232 11.3494ZM11.6616 14.5312C11.4589 14.6056 11.2749 14.7232 11.1222 14.8759C10.9696 15.0286 10.852 15.2126 10.7776 15.4153L8.99631 20.2397L7.21881 15.4116C7.14436 15.21 7.02712 15.0269 6.87516 14.8749C6.72319 14.7229 6.54011 14.6057 6.3385 14.5312L1.51412 12.75L6.3385 10.9688C6.54011 10.8943 6.72319 10.7771 6.87516 10.6251C7.02712 10.4731 7.14436 10.29 7.21881 10.0884L9.00006 5.26406L10.7813 10.0884C10.8557 10.2911 10.9733 10.4752 11.126 10.6278C11.2786 10.7805 11.4627 10.8981 11.6654 10.9725L16.4897 12.7537L11.6616 14.5312ZM12.0001 3C12.0001 2.80109 12.0791 2.61032 12.2197 2.46967C12.3604 2.32902 12.5511 2.25 12.7501 2.25H14.2501V0.75C14.2501 0.551088 14.3291 0.360322 14.4697 0.21967C14.6104 0.0790176 14.8011 0 15.0001 0C15.199 0 15.3897 0.0790176 15.5304 0.21967C15.671 0.360322 15.7501 0.551088 15.7501 0.75V2.25H17.2501C17.449 2.25 17.6397 2.32902 17.7804 2.46967C17.921 2.61032 18.0001 2.80109 18.0001 3C18.0001 3.19891 17.921 3.38968 17.7804 3.53033C17.6397 3.67098 17.449 3.75 17.2501 3.75H15.7501V5.25C15.7501 5.44891 15.671 5.63968 15.5304 5.78033C15.3897 5.92098 15.199 6 15.0001 6C14.8011 6 14.6104 5.92098 14.4697 5.78033C14.3291 5.63968 14.2501 5.44891 14.2501 5.25V3.75H12.7501C12.5511 3.75 12.3604 3.67098 12.2197 3.53033C12.0791 3.38968 12.0001 3.19891 12.0001 3ZM21.7501 7.5C21.7501 7.69891 21.671 7.88968 21.5304 8.03033C21.3897 8.17098 21.199 8.25 21.0001 8.25H20.2501V9C20.2501 9.19891 20.171 9.38968 20.0304 9.53033C19.8897 9.67098 19.699 9.75 19.5001 9.75C19.3011 9.75 19.1104 9.67098 18.9697 9.53033C18.8291 9.38968 18.7501 9.19891 18.7501 9V8.25H18.0001C17.8011 8.25 17.6104 8.17098 17.4697 8.03033C17.3291 7.88968 17.2501 7.69891 17.2501 7.5C17.2501 7.30109 17.3291 7.11032 17.4697 6.96967C17.6104 6.82902 17.8011 6.75 18.0001 6.75H18.7501V6C18.7501 5.80109 18.8291 5.61032 18.9697 5.46967C19.1104 5.32902 19.3011 5.25 19.5001 5.25C19.699 5.25 19.8897 5.32902 20.0304 5.46967C20.171 5.61032 20.2501 5.80109 20.2501 6V6.75H21.0001C21.199 6.75 21.3897 6.82902 21.5304 6.96967C21.671 7.11032 21.7501 7.30109 21.7501 7.5Z" fill="var(--fill-0, #854DFF)"/>
</svg>
