<svg width="1728" height="1357" viewBox="0 0 1728 1357" fill="none" xmlns="http://www.w3.org/2000/svg">
<circle cx="8.1909" cy="453.188" r="83.4392" stroke="#854DFF" stroke-width="1.50341" stroke-dasharray="30.07 30.07"/>
<path d="M254.791 73.1241C254.711 70.2124 258.403 68.8987 260.18 71.2069L288.732 108.302C289.526 109.335 290.895 109.738 292.122 109.301L336.225 93.6097C338.97 92.6333 341.36 95.739 339.714 98.1419L313.257 136.76C312.521 137.834 312.56 139.261 313.355 140.293L341.907 177.388C343.683 179.697 341.468 182.93 338.674 182.107L293.771 168.878C292.522 168.51 291.177 168.988 290.441 170.063L263.984 208.681C262.338 211.084 258.579 209.976 258.498 207.065L257.203 160.271C257.167 158.969 256.297 157.838 255.047 157.47L210.144 144.242C207.35 143.419 207.241 139.501 209.986 138.525L254.089 122.833C255.316 122.397 256.122 121.219 256.086 119.917L254.791 73.1241Z" stroke="#854DFF" stroke-width="2" stroke-dasharray="30.07 30.07"/>
<path opacity="0.5" d="M1111.41 435.432C1113.2 433.423 1116.53 434.599 1116.66 437.288L1118.81 481.771C1118.82 482.043 1118.87 482.311 1118.96 482.569L1132.93 524.855C1133.78 527.411 1131.1 529.704 1128.7 528.472L1089.11 508.092C1088.86 507.968 1088.61 507.877 1088.34 507.822L1044.73 498.783C1042.1 498.236 1041.45 494.767 1043.71 493.31L1081.16 469.206C1081.39 469.059 1081.6 468.882 1081.78 468.679L1111.41 435.432Z" stroke="#854DFF" stroke-width="2.00455" stroke-dasharray="30.07 30.07"/>
<path d="M876.451 371.683L876.338 372.217L900.192 385.989L873.342 388.811L872.799 388.868L872.685 389.402L867.072 415.808L856.091 391.147L855.869 390.647L855.326 390.705L828.476 393.526L848.539 375.462L848.945 375.096L848.723 374.598L837.742 349.934L861.596 363.706L862.001 363.34L882.065 345.275L876.451 371.683Z" fill="#854DFF" fill-opacity="0.6" stroke="#854DFF" stroke-width="1.50341"/>
    <path d="M1622.9 356.356L1622.79 356.89L1646.64 370.662L1619.79 373.484L1619.25 373.541L1619.13 374.075L1613.52 400.481L1602.54 375.82L1602.32 375.32L1601.77 375.378L1574.92 378.199L1594.99 360.135L1595.39 359.769L1595.17 359.27L1584.19 334.606L1608.04 348.379L1608.45 348.013L1628.51 329.948L1622.9 356.356Z" fill="#854DFF" fill-opacity="0.6" stroke="#854DFF" stroke-width="1.50341"/>
    <path d="M1624.23 730.028C1626.14 727.83 1629.75 729.364 1629.49 732.266L1627.06 759.804C1626.95 761.101 1627.68 762.325 1628.88 762.835L1654.32 773.653C1657 774.793 1656.66 778.697 1653.82 779.35L1626.88 785.551C1625.61 785.843 1624.67 786.92 1624.56 788.217L1622.13 815.755C1621.87 818.657 1618.05 819.536 1616.56 817.038L1602.33 793.332C1601.66 792.215 1600.35 791.657 1599.08 791.949L1572.14 798.15C1569.3 798.803 1567.28 795.442 1569.2 793.245L1587.35 772.394C1588.2 771.411 1588.33 769.99 1587.66 768.873L1573.44 745.167C1571.94 742.669 1574.51 739.713 1577.19 740.853L1602.63 751.672C1603.83 752.182 1605.22 751.862 1606.08 750.879L1624.23 730.028Z" stroke="#854DFF" stroke-width="1.50341" stroke-dasharray="30.07 30.07"/>
    <path d="M463.451 549.682L463.338 550.216L487.192 563.988L460.342 566.81L459.799 566.867L459.685 567.401L454.072 593.807L443.091 569.146L442.869 568.646L442.326 568.704L415.476 571.525L435.539 553.461L435.945 553.095L435.723 552.597L424.742 527.933L448.596 541.705L449.001 541.339L469.065 523.274L463.451 549.682Z" fill="#854DFF" fill-opacity="0.6" stroke="#854DFF" stroke-width="1.50341"/>
    <path d="M1680.93 154.837L1681.18 154.351L1661.7 134.874L1688.37 139.097L1688.9 139.183L1689.15 138.697L1701.41 114.643L1705.63 141.306L1705.72 141.846L1706.26 141.931L1732.92 146.155L1708.87 158.412L1708.38 158.66L1708.47 159.199L1712.69 185.864L1693.21 166.387L1692.73 166.636L1668.67 178.893L1680.93 154.837Z" fill="#854DFF" fill-opacity="0.6" stroke="#854DFF" stroke-width="1.50341"/>
</svg>
