<svg width="664" height="1755" viewBox="0 0 664 1755" fill="none" xmlns="http://www.w3.org/2000/svg">
<g filter="url(#filter0_d_6872_1260)">
<path d="M618.961 38.9487L618.871 39.376L637.953 50.3931L616.474 52.6512L616.039 52.6969L615.949 53.1237L611.458 74.2488L602.674 54.5189L602.496 54.1197L602.061 54.1654L580.582 56.4222L596.632 41.9714L596.956 41.6793L596.779 41.2801L587.994 21.5489L607.077 32.5664L607.402 32.2749L623.452 17.8227L618.961 38.9487Z" fill="#854DFF" fill-opacity="0.6" stroke="#854DFF" stroke-width="1.20273"/>
<path d="M615.357 258.582C617.089 257.023 619.804 258.59 619.32 260.87L613.721 287.207C613.505 288.226 613.969 289.269 614.872 289.79L638.19 303.253C640.208 304.419 639.556 307.485 637.239 307.729L610.46 310.543C609.424 310.652 608.576 311.416 608.359 312.436L602.761 338.773C602.276 341.052 599.158 341.38 598.21 339.251L587.259 314.653C586.835 313.701 585.846 313.13 584.81 313.239L558.031 316.054C555.714 316.297 554.439 313.433 556.17 311.874L576.18 293.857C576.955 293.16 577.192 292.043 576.768 291.091L565.816 266.493C564.868 264.364 567.198 262.266 569.216 263.431L592.535 276.894C593.438 277.415 594.573 277.296 595.347 276.599L615.357 258.582Z" stroke="#854DFF" stroke-width="2.40545" stroke-dasharray="24.05 24.05"/>
<g filter="url(#filter1_d_6872_1260)">
<path d="M488.558 119.887C490.724 118.736 493.335 120.31 493.329 122.762L493.175 189.101C493.169 191.624 490.413 193.177 488.251 191.875L429.824 156.665C427.663 155.362 427.748 152.2 429.977 151.016L488.558 119.887Z" fill="#854DFF"/>
</g>
</g>
<g filter="url(#filter2_d_6872_1260)">
<path d="M409.039 811.949L409.129 812.376L390.047 823.393L411.527 825.651L411.961 825.697L412.052 826.124L416.542 847.249L425.327 827.519L425.505 827.12L425.939 827.165L447.419 829.422L431.368 814.971L431.044 814.679L431.222 814.28L440.007 794.549L420.924 805.566L420.599 805.275L404.549 790.823L409.039 811.949Z" fill="#854DFF" fill-opacity="0.6" stroke="#854DFF" stroke-width="1.20273"/>
<path d="M412.643 1031.58C410.912 1030.02 408.196 1031.59 408.681 1033.87L414.279 1060.21C414.496 1061.23 414.031 1062.27 413.129 1062.79L389.81 1076.25C387.792 1077.42 388.444 1080.49 390.762 1080.73L417.54 1083.54C418.576 1083.65 419.425 1084.42 419.641 1085.44L425.24 1111.77C425.724 1114.05 428.842 1114.38 429.79 1112.25L440.742 1087.65C441.166 1086.7 442.154 1086.13 443.191 1086.24L469.969 1089.05C472.287 1089.3 473.562 1086.43 471.83 1084.87L451.82 1066.86C451.046 1066.16 450.809 1065.04 451.232 1064.09L462.184 1039.49C463.132 1037.36 460.802 1035.27 458.784 1036.43L435.465 1049.89C434.563 1050.42 433.428 1050.3 432.653 1049.6L412.643 1031.58Z" stroke="#854DFF" stroke-width="2.40545" stroke-dasharray="24.05 24.05"/>
<g filter="url(#filter3_d_6872_1260)">
<path d="M539.442 892.887C537.276 891.736 534.665 893.31 534.671 895.762L534.826 962.101C534.832 964.624 537.588 966.177 539.749 964.875L598.176 929.665C600.338 928.362 600.252 925.2 598.024 924.016L539.442 892.887Z" fill="#854DFF"/>
</g>
</g>
<g filter="url(#filter4_d_6872_1260)">
<path d="M87.1571 540.781C88.8888 539.222 91.604 540.79 91.1195 543.069L85.5213 569.407C85.3046 570.426 85.769 571.469 86.6714 571.99L109.99 585.453C112.008 586.618 111.356 589.685 109.039 589.929L82.2603 592.743C81.2239 592.852 80.3755 593.616 80.1588 594.635L74.5606 620.973C74.0761 623.252 70.958 623.58 70.0102 621.451L59.0584 596.853C58.6346 595.901 57.6459 595.33 56.6095 595.439L29.831 598.254C27.5136 598.497 26.2383 595.633 27.97 594.074L47.9799 576.057C48.7544 575.359 48.9917 574.243 48.5678 573.291L37.6161 548.693C36.6683 546.564 38.9983 544.466 41.0163 545.631L64.3349 559.094C65.2374 559.615 66.3727 559.496 67.1472 558.798L87.1571 540.781Z" stroke="#854DFF" stroke-width="2.40545" stroke-dasharray="24.05 24.05" shape-rendering="crispEdges"/>
</g>
<g filter="url(#filter5_d_6872_1260)">
<path d="M442.225 483.137L437.35 506.074L457.657 517.798L434.337 520.249L429.462 543.185L419.924 521.764L396.604 524.215L414.03 508.525L404.492 487.103L424.8 498.827L442.225 483.137Z" fill="#854DFF" fill-opacity="0.6" shape-rendering="crispEdges"/>
<path d="M436.761 505.949L436.671 506.376L455.754 517.393L434.274 519.651L433.84 519.697L433.749 520.124L429.258 541.249L420.474 521.519L420.296 521.12L419.862 521.165L398.382 523.422L414.432 508.971L414.757 508.679L414.579 508.28L405.794 488.549L424.877 499.566L425.202 499.275L441.252 484.823L436.761 505.949Z" stroke="#854DFF" stroke-width="1.20273" shape-rendering="crispEdges"/>
</g>
<g filter="url(#filter6_d_6872_1260)">
<path d="M306.359 586.887C308.524 585.736 311.135 587.31 311.13 589.762L310.975 656.101C310.969 658.624 308.213 660.177 306.052 658.875L247.625 623.665C245.463 622.362 245.548 619.2 247.777 618.016L306.359 586.887Z" fill="#854DFF"/>
</g>
<defs>
<filter id="filter0_d_6872_1260" x="395" y="-6" width="278.861" height="848.461" filterUnits="userSpaceOnUse" color-interpolation-filters="sRGB">
<feFlood flood-opacity="0" result="BackgroundImageFix"/>
<feColorMatrix in="SourceAlpha" type="matrix" values="0 0 0 0 0 0 0 0 0 0 0 0 0 0 0 0 0 0 127 0" result="hardAlpha"/>
<feOffset dy="4"/>
<feGaussianBlur stdDeviation="5"/>
<feComposite in2="hardAlpha" operator="out"/>
<feColorMatrix type="matrix" values="0 0 0 0 0 0 0 0 0 0 0 0 0 0 0 0 0 0 0.25 0"/>
<feBlend mode="normal" in2="BackgroundImageFix" result="effect1_dropShadow_6872_1260"/>
<feBlend mode="normal" in="SourceGraphic" in2="effect1_dropShadow_6872_1260" result="shape"/>
</filter>
<filter id="filter1_d_6872_1260" x="419.593" y="110.843" width="82.3959" height="90.162" filterUnits="userSpaceOnUse" color-interpolation-filters="sRGB">
<feFlood flood-opacity="0" result="BackgroundImageFix"/>
<feColorMatrix in="SourceAlpha" type="matrix" values="0 0 0 0 0 0 0 0 0 0 0 0 0 0 0 0 0 0 127 0" result="hardAlpha"/>
<feOffset/>
<feGaussianBlur stdDeviation="4.32982"/>
<feComposite in2="hardAlpha" operator="out"/>
<feColorMatrix type="matrix" values="0 0 0 0 0 0 0 0 0 0 0 0 0 0 0 0 0 0 0.25 0"/>
<feBlend mode="normal" in2="BackgroundImageFix" result="effect1_dropShadow_6872_1260"/>
<feBlend mode="normal" in="SourceGraphic" in2="effect1_dropShadow_6872_1260" result="shape"/>
</filter>
<filter id="filter2_d_6872_1260" x="306" y="767" width="327" height="1002" filterUnits="userSpaceOnUse" color-interpolation-filters="sRGB">
<feFlood flood-opacity="0" result="BackgroundImageFix"/>
<feColorMatrix in="SourceAlpha" type="matrix" values="0 0 0 0 0 0 0 0 0 0 0 0 0 0 0 0 0 0 127 0" result="hardAlpha"/>
<feOffset dy="4"/>
<feGaussianBlur stdDeviation="5"/>
<feComposite in2="hardAlpha" operator="out"/>
<feColorMatrix type="matrix" values="0 0 0 0 0 0 0 0 0 0 0 0 0 0 0 0 0 0 0.25 0"/>
<feBlend mode="normal" in2="BackgroundImageFix" result="effect1_dropShadow_6872_1260"/>
<feBlend mode="normal" in="SourceGraphic" in2="effect1_dropShadow_6872_1260" result="shape"/>
</filter>
<filter id="filter3_d_6872_1260" x="526.011" y="883.843" width="82.3959" height="90.162" filterUnits="userSpaceOnUse" color-interpolation-filters="sRGB">
<feFlood flood-opacity="0" result="BackgroundImageFix"/>
<feColorMatrix in="SourceAlpha" type="matrix" values="0 0 0 0 0 0 0 0 0 0 0 0 0 0 0 0 0 0 127 0" result="hardAlpha"/>
<feOffset/>
<feGaussianBlur stdDeviation="4.32982"/>
<feComposite in2="hardAlpha" operator="out"/>
<feColorMatrix type="matrix" values="0 0 0 0 0 0 0 0 0 0 0 0 0 0 0 0 0 0 0.25 0"/>
<feBlend mode="normal" in2="BackgroundImageFix" result="effect1_dropShadow_6872_1260"/>
<feBlend mode="normal" in="SourceGraphic" in2="effect1_dropShadow_6872_1260" result="shape"/>
</filter>
<filter id="filter4_d_6872_1260" x="15.9604" y="532.947" width="106.438" height="105.135" filterUnits="userSpaceOnUse" color-interpolation-filters="sRGB">
<feFlood flood-opacity="0" result="BackgroundImageFix"/>
<feColorMatrix in="SourceAlpha" type="matrix" values="0 0 0 0 0 0 0 0 0 0 0 0 0 0 0 0 0 0 127 0" result="hardAlpha"/>
<feOffset dy="4"/>
<feGaussianBlur stdDeviation="5"/>
<feComposite in2="hardAlpha" operator="out"/>
<feColorMatrix type="matrix" values="0 0 0 0 0 0 0 0 0 0 0 0 0 0 0 0 0 0 0.25 0"/>
<feBlend mode="normal" in2="BackgroundImageFix" result="effect1_dropShadow_6872_1260"/>
<feBlend mode="normal" in="SourceGraphic" in2="effect1_dropShadow_6872_1260" result="shape"/>
</filter>
<filter id="filter5_d_6872_1260" x="386.604" y="477.137" width="81.0532" height="80.0479" filterUnits="userSpaceOnUse" color-interpolation-filters="sRGB">
<feFlood flood-opacity="0" result="BackgroundImageFix"/>
<feColorMatrix in="SourceAlpha" type="matrix" values="0 0 0 0 0 0 0 0 0 0 0 0 0 0 0 0 0 0 127 0" result="hardAlpha"/>
<feOffset dy="4"/>
<feGaussianBlur stdDeviation="5"/>
<feComposite in2="hardAlpha" operator="out"/>
<feColorMatrix type="matrix" values="0 0 0 0 0 0 0 0 0 0 0 0 0 0 0 0 0 0 0.25 0"/>
<feBlend mode="normal" in2="BackgroundImageFix" result="effect1_dropShadow_6872_1260"/>
<feBlend mode="normal" in="SourceGraphic" in2="effect1_dropShadow_6872_1260" result="shape"/>
</filter>
<filter id="filter6_d_6872_1260" x="236.053" y="580.503" width="85.0767" height="92.8428" filterUnits="userSpaceOnUse" color-interpolation-filters="sRGB">
<feFlood flood-opacity="0" result="BackgroundImageFix"/>
<feColorMatrix in="SourceAlpha" type="matrix" values="0 0 0 0 0 0 0 0 0 0 0 0 0 0 0 0 0 0 127 0" result="hardAlpha"/>
<feOffset dy="4"/>
<feGaussianBlur stdDeviation="5"/>
<feComposite in2="hardAlpha" operator="out"/>
<feColorMatrix type="matrix" values="0 0 0 0 0 0 0 0 0 0 0 0 0 0 0 0 0 0 0.25 0"/>
<feBlend mode="normal" in2="BackgroundImageFix" result="effect1_dropShadow_6872_1260"/>
<feBlend mode="normal" in="SourceGraphic" in2="effect1_dropShadow_6872_1260" result="shape"/>
</filter>
</defs>
</svg>
