<svg preserveAspectRatio="none" width="100%" height="100%" overflow="visible" style="display: block;" viewBox="0 0 109 104" fill="none" xmlns="http://www.w3.org/2000/svg">
<path id="Star 12" d="M51.4367 3.58107C52.3368 0.810858 56.2559 0.810853 57.156 3.58107L67.5568 35.5912C67.9593 36.8301 69.1138 37.6689 70.4164 37.6689H104.074C106.987 37.6689 108.198 41.3962 105.841 43.1083L78.6118 62.8916C77.5579 63.6573 77.117 65.0145 77.5195 66.2534L87.9202 98.2635C88.8203 101.034 85.6497 103.337 83.2932 101.625L56.0637 81.8419C55.0099 81.0762 53.5829 81.0762 52.529 81.8419L25.2996 101.625C22.9431 103.337 19.7724 101.034 20.6725 98.2635L31.0733 66.2534C31.4758 65.0145 31.0348 63.6573 29.981 62.8916L2.75151 43.1083C0.395025 41.3962 1.6061 37.6689 4.51887 37.6689H38.1763C39.479 37.6689 40.6335 36.8301 41.036 35.5912L51.4367 3.58107Z" stroke="var(--stroke-0, #854DFF)" stroke-width="3.00682" stroke-dasharray="30.07 30.07"/>
</svg>
