<svg preserveAspectRatio="none" width="100%" height="100%" overflow="visible" style="display: block;" viewBox="0 0 144 137" fill="none" xmlns="http://www.w3.org/2000/svg">
<path id="Star 4" d="M68.6551 3.58107C69.5552 0.810854 73.4743 0.810857 74.3744 3.58107L88.8398 48.1011C89.2424 49.34 90.3968 50.1788 91.6995 50.1788H138.511C141.423 50.1788 142.634 53.9061 140.278 55.6181L102.407 83.133C101.353 83.8987 100.912 85.2559 101.315 86.4948L115.78 131.015C116.68 133.785 113.51 136.089 111.153 134.376L73.2821 106.862C72.2283 106.096 70.8012 106.096 69.7474 106.862L31.8764 134.376C29.5199 136.089 26.3493 133.785 27.2494 131.015L41.7148 86.4948C42.1173 85.2559 41.6764 83.8987 40.6225 83.133L2.75151 55.6181C0.395025 53.9061 1.6061 50.1788 4.51887 50.1788H51.33C52.6326 50.1788 53.7871 49.34 54.1897 48.1011L68.6551 3.58107Z" stroke="var(--stroke-0, #854DFF)" stroke-width="3.00682" stroke-dasharray="30.07 30.07"/>
</svg>
