<svg preserveAspectRatio="none" width="100%" height="100%" overflow="visible" style="display: block;" viewBox="0 0 91 87" fill="none" xmlns="http://www.w3.org/2000/svg">
<path id="Star 5" d="M42.6351 2.12385C43.5352 -0.646361 47.4543 -0.646358 48.3544 2.12385L56.8971 28.4155C57.2996 29.6543 58.4541 30.4931 59.7568 30.4931L87.4014 30.4931C90.3142 30.4931 91.5252 34.2204 89.1687 35.9325L66.8038 52.1816C65.7499 52.9473 65.3089 54.3044 65.7115 55.5433L74.2541 81.8349C75.1542 84.6051 71.9836 86.9087 69.6271 85.1966L47.2621 68.9475C46.2083 68.1819 44.7813 68.1819 43.7274 68.9475L21.3624 85.1967C19.006 86.9087 15.8353 84.6051 16.7354 81.8349L25.2781 55.5433C25.6806 54.3044 25.2397 52.9473 24.1858 52.1816L1.82083 35.9325C-0.535658 34.2204 0.675417 30.4931 3.58819 30.4931L31.2328 30.4931C32.5354 30.4931 33.6899 29.6543 34.0925 28.4155L42.6351 2.12385Z" stroke="var(--stroke-0, #854DFF)" stroke-width="1.50341" stroke-dasharray="30.07 30.07"/>
</svg>
