<svg preserveAspectRatio="none" width="100%" height="100%" overflow="visible" style="display: block;" viewBox="0 0 376 353" fill="none" xmlns="http://www.w3.org/2000/svg">
<path id="Star 8" d="M184.136 4.51847C185.475 1.16052 190.228 1.16051 191.567 4.51845L238.921 123.277C239.492 124.709 240.837 125.686 242.376 125.787L369.955 134.125C373.562 134.361 375.031 138.881 372.251 141.192L273.939 222.927C272.753 223.913 272.239 225.493 272.619 226.988L302.689 345.299C303.712 349.323 298.684 352.048 295.871 348.995L240.535 288.937C240.089 288.453 239.77 287.867 239.605 287.231L224.128 227.537C223.671 225.773 222.079 224.541 220.256 224.541H105.151C104.217 224.541 103.312 224.214 102.594 223.617L3.45181 141.192C0.671976 138.881 2.14075 134.361 5.74811 134.125L133.327 125.787C134.866 125.686 136.21 124.709 136.782 123.277L184.136 4.51847Z" stroke="var(--stroke-0, #854DFF)" stroke-width="4" stroke-dasharray="30 30"/>
</svg>
