<svg preserveAspectRatio="none" width="100%" height="100%" overflow="visible" style="display: block;" viewBox="0 0 80 64" fill="none" xmlns="http://www.w3.org/2000/svg">
<g id="Check Logo">
<path id="Vector" d="M4.07494 34.3085L33.6625 63.896L52.0982 45.4603L22.5107 15.8641C17.4606 10.6749 9.30752 10.4142 4.27486 14.8384C-1.20979 19.6538 -1.56616 28.763 4.07494 34.2998V34.3085Z" fill="url(#paint0_linear_6755_418)"/>
<path id="Vector_2" d="M56.9831 4.02554C43.2063 17.9762 29.4208 31.9268 15.644 45.8775C21.6502 51.8837 27.6563 57.8898 33.6625 63.896C47.5436 50.1192 61.4247 36.3424 75.3058 22.5656C80.5297 17.5503 80.834 9.39719 76.4445 4.32976C71.6639 -1.18097 62.5547 -1.58949 56.9831 4.01684V4.02554Z" fill="var(--fill-0, #854DFF)"/>
</g>
<defs>
<linearGradient id="paint0_linear_6755_418" x1="-2.07899" y1="27.068" x2="50.8813" y2="48.459" gradientUnits="userSpaceOnUse">
<stop stop-color="#854DFF"/>
<stop offset="0.51" stop-color="#5D39B0"/>
<stop offset="1" stop-color="#171626"/>
</linearGradient>
</defs>
</svg>
