<svg width="361" height="181" viewBox="0 0 361 181" fill="none" xmlns="http://www.w3.org/2000/svg">
<path d="M352.766 137.465C351.192 138.362 349.456 138.941 347.658 139.167C345.86 139.393 344.035 139.262 342.288 138.782C340.541 138.302 338.905 137.482 337.475 136.369C336.045 135.257 334.849 133.873 333.954 132.297L301.224 75.1047C282.195 87.9708 261.204 97.6633 239.07 103.804L249.182 164.476C249.481 166.262 249.424 168.09 249.016 169.854C248.608 171.618 247.856 173.285 246.803 174.758C245.75 176.231 244.417 177.483 242.881 178.441C241.344 179.399 239.634 180.045 237.847 180.342C237.112 180.462 236.37 180.525 235.625 180.531C232.365 180.526 229.212 179.366 226.726 177.256C224.241 175.146 222.584 172.223 222.05 169.007L212.111 109.437C191.149 112.354 169.885 112.354 148.924 109.437L138.984 169.007C138.449 172.229 136.787 175.156 134.295 177.267C131.802 179.378 128.641 180.534 125.375 180.531C124.613 180.528 123.853 180.465 123.101 180.342C121.315 180.045 119.604 179.399 118.068 178.441C116.531 177.483 115.198 176.231 114.145 174.758C113.093 173.285 112.341 171.618 111.932 169.854C111.524 168.09 111.468 166.262 111.766 164.476L121.93 103.804C99.8044 97.6438 78.8254 87.9339 59.8107 75.053L27.1836 132.297C25.3561 135.481 22.3384 137.809 18.7944 138.769C15.2504 139.728 11.4705 139.241 8.28603 137.413C5.1016 135.586 2.77357 132.568 1.81408 129.024C0.85459 125.48 1.34224 121.7 3.16974 118.516L37.6229 58.2226C25.5212 47.7675 14.3932 36.2358 4.3756 23.7695C3.12631 22.3746 2.17439 20.7398 1.57793 18.9648C0.981479 17.1898 0.753006 15.3119 0.906466 13.4457C1.05993 11.5794 1.5921 9.76407 2.4705 8.11035C3.3489 6.45663 4.55509 4.99927 6.01546 3.82722C7.47583 2.65518 9.15973 1.79304 10.9644 1.29343C12.769 0.793818 14.6566 0.667214 16.5118 0.921355C18.367 1.1755 20.1509 1.80505 21.7547 2.77158C23.3585 3.7381 24.7485 5.02133 25.8399 6.54294C54.436 41.9263 104.462 84.0625 180.5 84.0625C256.538 84.0625 306.564 41.8746 335.16 6.54294C336.239 4.99019 337.626 3.67606 339.234 2.68232C340.843 1.68858 342.639 1.03648 344.51 0.766598C346.382 0.496714 348.289 0.614816 350.113 1.11356C351.936 1.6123 353.638 2.48101 355.112 3.66564C356.585 4.85027 357.8 6.32549 358.679 7.9995C359.558 9.67352 360.083 11.5105 360.222 13.3962C360.36 15.2819 360.109 17.176 359.485 18.9606C358.86 20.7451 357.874 22.3821 356.59 23.7695C346.572 36.2358 335.444 47.7675 323.343 58.2226L357.796 118.516C358.721 120.087 359.324 121.827 359.572 123.634C359.82 125.44 359.706 127.278 359.238 129.041C358.77 130.803 357.957 132.456 356.846 133.902C355.735 135.348 354.348 136.559 352.766 137.465Z" fill="white"/>
</svg>
