<svg preserveAspectRatio="none" width="100%" height="100%" overflow="visible" style="display: block;" viewBox="0 0 423 262" fill="none" xmlns="http://www.w3.org/2000/svg">
<g id="Frame">
<path id="Vector" d="M207.25 234.5C256.541 234.5 296.5 194.541 296.5 145.25C296.5 95.9586 256.541 56 207.25 56C157.959 56 118 95.9586 118 145.25C118 194.541 157.959 234.5 207.25 234.5Z" stroke="var(--stroke-0, #854DFF)" stroke-width="8"/>
<path id="Vector_2" d="M123.5 90L202.75 152.25M202.75 152.25L299.312 90M202.75 152.25V196V249.5" stroke="var(--stroke-0, white)" stroke-width="40"/>
<path id="Vector_3" d="M133.568 18V5.616H134.882V18H133.568ZM134.432 12.402V11.196H141.074V12.402H134.432ZM134.432 6.822V5.616H141.38V6.822H134.432ZM146.923 18.18C146.107 18.18 145.363 17.982 144.691 17.586C144.031 17.19 143.503 16.656 143.107 15.984C142.723 15.312 142.531 14.562 142.531 13.734C142.531 12.918 142.723 12.18 143.107 11.52C143.503 10.86 144.031 10.338 144.691 9.954C145.363 9.558 146.107 9.36 146.923 9.36C147.751 9.36 148.495 9.552 149.155 9.936C149.815 10.32 150.337 10.848 150.721 11.52C151.117 12.18 151.315 12.918 151.315 13.734C151.315 14.574 151.117 15.33 150.721 16.002C150.337 16.662 149.815 17.19 149.155 17.586C148.495 17.982 147.751 18.18 146.923 18.18ZM146.923 16.956C147.523 16.956 148.051 16.818 148.507 16.542C148.975 16.266 149.341 15.882 149.605 15.39C149.881 14.898 150.019 14.346 150.019 13.734C150.019 13.122 149.881 12.582 149.605 12.114C149.341 11.634 148.975 11.256 148.507 10.98C148.051 10.704 147.523 10.566 146.923 10.566C146.335 10.566 145.807 10.704 145.339 10.98C144.871 11.256 144.505 11.634 144.241 12.114C143.977 12.582 143.845 13.122 143.845 13.734C143.845 14.358 143.977 14.916 144.241 15.408C144.505 15.888 144.871 16.266 145.339 16.542C145.807 16.818 146.335 16.956 146.923 16.956ZM153.319 18V9.54H154.579V18H153.319ZM154.579 13.068L154.057 12.834C154.057 11.766 154.315 10.92 154.831 10.296C155.359 9.672 156.079 9.36 156.991 9.36C157.411 9.36 157.795 9.438 158.143 9.594C158.491 9.738 158.815 9.972 159.115 10.296L158.287 11.178C158.083 10.95 157.855 10.788 157.603 10.692C157.363 10.596 157.087 10.548 156.775 10.548C156.127 10.548 155.599 10.764 155.191 11.196C154.783 11.616 154.579 12.24 154.579 13.068ZM164.063 18.18C163.211 18.18 162.449 17.988 161.777 17.604C161.105 17.22 160.571 16.692 160.175 16.02C159.791 15.348 159.599 14.592 159.599 13.752C159.599 12.924 159.791 12.18 160.175 11.52C160.559 10.848 161.081 10.32 161.741 9.936C162.401 9.552 163.139 9.36 163.955 9.36C164.723 9.36 165.401 9.534 165.989 9.882C166.589 10.23 167.057 10.716 167.393 11.34C167.741 11.952 167.915 12.66 167.915 13.464C167.915 13.56 167.909 13.674 167.897 13.806C167.885 13.926 167.861 14.07 167.825 14.238H160.499V13.158H167.141L166.691 13.554C166.703 12.93 166.595 12.396 166.367 11.952C166.151 11.496 165.833 11.148 165.413 10.908C165.005 10.656 164.507 10.53 163.919 10.53C163.307 10.53 162.773 10.662 162.317 10.926C161.861 11.19 161.501 11.562 161.237 12.042C160.985 12.51 160.859 13.068 160.859 13.716C160.859 14.364 160.991 14.934 161.255 15.426C161.531 15.918 161.909 16.302 162.389 16.578C162.881 16.854 163.445 16.992 164.081 16.992C164.597 16.992 165.071 16.902 165.503 16.722C165.935 16.53 166.301 16.248 166.601 15.876L167.411 16.704C167.015 17.172 166.523 17.538 165.935 17.802C165.359 18.054 164.735 18.18 164.063 18.18ZM170.84 18V5.976H172.1V18H170.84ZM168.698 10.674V9.54H174.224V10.674H168.698ZM182.116 18V13.032C182.116 12.288 181.894 11.688 181.45 11.232C181.018 10.764 180.442 10.53 179.722 10.53C179.23 10.53 178.798 10.638 178.426 10.854C178.054 11.07 177.76 11.364 177.544 11.736C177.328 12.108 177.22 12.534 177.22 13.014L176.644 12.69C176.644 12.054 176.794 11.484 177.094 10.98C177.394 10.476 177.796 10.08 178.3 9.792C178.816 9.504 179.404 9.36 180.064 9.36C180.712 9.36 181.288 9.51 181.792 9.81C182.296 10.098 182.686 10.5 182.962 11.016C183.25 11.532 183.394 12.132 183.394 12.816V18H182.116ZM175.96 18V5.256H177.22V18H175.96ZM189.585 18.18C188.769 18.18 188.025 17.982 187.353 17.586C186.693 17.19 186.165 16.656 185.769 15.984C185.385 15.312 185.193 14.562 185.193 13.734C185.193 12.918 185.385 12.18 185.769 11.52C186.165 10.86 186.693 10.338 187.353 9.954C188.025 9.558 188.769 9.36 189.585 9.36C190.413 9.36 191.157 9.552 191.817 9.936C192.477 10.32 192.999 10.848 193.383 11.52C193.779 12.18 193.977 12.918 193.977 13.734C193.977 14.574 193.779 15.33 193.383 16.002C192.999 16.662 192.477 17.19 191.817 17.586C191.157 17.982 190.413 18.18 189.585 18.18ZM189.585 16.956C190.185 16.956 190.713 16.818 191.169 16.542C191.637 16.266 192.003 15.882 192.267 15.39C192.543 14.898 192.681 14.346 192.681 13.734C192.681 13.122 192.543 12.582 192.267 12.114C192.003 11.634 191.637 11.256 191.169 10.98C190.713 10.704 190.185 10.566 189.585 10.566C188.997 10.566 188.469 10.704 188.001 10.98C187.533 11.256 187.167 11.634 186.903 12.114C186.639 12.582 186.507 13.122 186.507 13.734C186.507 14.358 186.639 14.916 186.903 15.408C187.167 15.888 187.533 16.266 188.001 16.542C188.469 16.818 188.997 16.956 189.585 16.956ZM199.329 18.18C198.645 18.18 198.033 18.024 197.493 17.712C196.953 17.388 196.527 16.95 196.215 16.398C195.915 15.846 195.765 15.198 195.765 14.454V9.54H197.043V14.4C197.043 14.916 197.133 15.366 197.313 15.75C197.505 16.134 197.775 16.434 198.123 16.65C198.471 16.866 198.873 16.974 199.329 16.974C200.037 16.974 200.595 16.74 201.003 16.272C201.423 15.804 201.633 15.18 201.633 14.4V9.54H202.893V14.454C202.893 15.186 202.743 15.834 202.443 16.398C202.143 16.962 201.723 17.4 201.183 17.712C200.643 18.024 200.025 18.18 199.329 18.18ZM208.737 21.744C207.885 21.744 207.123 21.582 206.451 21.258C205.791 20.946 205.257 20.502 204.849 19.926L205.677 19.098C206.013 19.554 206.439 19.908 206.955 20.16C207.471 20.412 208.077 20.538 208.773 20.538C209.733 20.538 210.495 20.28 211.059 19.764C211.635 19.248 211.923 18.546 211.923 17.658V15.552L212.175 13.626L211.923 11.718V9.54H213.183V17.658C213.183 18.474 212.997 19.188 212.625 19.8C212.253 20.412 211.731 20.886 211.059 21.222C210.399 21.57 209.625 21.744 208.737 21.744ZM208.827 17.91C208.047 17.91 207.345 17.724 206.721 17.352C206.097 16.98 205.605 16.47 205.245 15.822C204.885 15.174 204.705 14.442 204.705 13.626C204.705 12.81 204.879 12.084 205.227 11.448C205.587 10.8 206.079 10.29 206.703 9.918C207.327 9.546 208.029 9.36 208.809 9.36C209.469 9.36 210.057 9.486 210.573 9.738C211.101 9.99 211.521 10.35 211.833 10.818C212.157 11.274 212.355 11.814 212.427 12.438V14.832C212.355 15.444 212.157 15.984 211.833 16.452C211.509 16.908 211.089 17.268 210.573 17.532C210.057 17.784 209.475 17.91 208.827 17.91ZM209.061 16.704C209.649 16.704 210.159 16.578 210.591 16.326C211.035 16.074 211.377 15.72 211.617 15.264C211.869 14.796 211.995 14.25 211.995 13.626C211.995 13.014 211.869 12.48 211.617 12.024C211.377 11.568 211.035 11.208 210.591 10.944C210.147 10.68 209.631 10.548 209.043 10.548C208.455 10.548 207.927 10.68 207.459 10.944C207.003 11.208 206.643 11.568 206.379 12.024C206.127 12.48 206.001 13.014 206.001 13.626C206.001 14.226 206.133 14.76 206.397 15.228C206.661 15.696 207.021 16.062 207.477 16.326C207.933 16.578 208.461 16.704 209.061 16.704ZM221.877 18V13.032C221.877 12.288 221.655 11.688 221.211 11.232C220.779 10.764 220.203 10.53 219.483 10.53C218.991 10.53 218.559 10.638 218.187 10.854C217.815 11.07 217.521 11.364 217.305 11.736C217.089 12.108 216.981 12.534 216.981 13.014L216.405 12.69C216.405 12.054 216.555 11.484 216.855 10.98C217.155 10.476 217.557 10.08 218.061 9.792C218.577 9.504 219.165 9.36 219.825 9.36C220.473 9.36 221.049 9.51 221.553 9.81C222.057 10.098 222.447 10.5 222.723 11.016C223.011 11.532 223.155 12.132 223.155 12.816V18H221.877ZM215.721 18V5.256H216.981V18H215.721ZM226.721 18V5.976H227.981V18H226.721ZM224.579 10.674V9.54H230.105V10.674H224.579ZM236.86 13.032V11.862H240.514C241.018 11.862 241.468 11.76 241.864 11.556C242.272 11.352 242.59 11.064 242.818 10.692C243.058 10.308 243.178 9.852 243.178 9.324C243.178 8.796 243.058 8.346 242.818 7.974C242.59 7.59 242.272 7.296 241.864 7.092C241.468 6.876 241.018 6.768 240.514 6.768H236.86V5.616H240.604C241.348 5.616 242.014 5.772 242.602 6.084C243.19 6.384 243.652 6.81 243.988 7.362C244.336 7.914 244.51 8.568 244.51 9.324C244.51 10.068 244.336 10.722 243.988 11.286C243.652 11.838 243.19 12.27 242.602 12.582C242.014 12.882 241.348 13.032 240.604 13.032H236.86ZM236.014 18V5.616H237.328V18H236.014ZM252.815 18V13.032C252.815 12.288 252.593 11.688 252.149 11.232C251.717 10.764 251.141 10.53 250.421 10.53C249.929 10.53 249.497 10.638 249.125 10.854C248.753 11.07 248.459 11.364 248.243 11.736C248.027 12.108 247.919 12.534 247.919 13.014L247.343 12.69C247.343 12.054 247.493 11.484 247.793 10.98C248.093 10.476 248.495 10.08 248.999 9.792C249.515 9.504 250.103 9.36 250.763 9.36C251.411 9.36 251.987 9.51 252.491 9.81C252.995 10.098 253.385 10.5 253.661 11.016C253.949 11.532 254.093 12.132 254.093 12.816V18H252.815ZM246.659 18V5.256H247.919V18H246.659ZM260.122 18.18C259.318 18.18 258.598 17.988 257.962 17.604C257.326 17.208 256.822 16.68 256.45 16.02C256.09 15.36 255.91 14.616 255.91 13.788C255.91 12.948 256.09 12.198 256.45 11.538C256.822 10.866 257.326 10.338 257.962 9.954C258.598 9.558 259.312 9.36 260.104 9.36C260.752 9.36 261.328 9.492 261.832 9.756C262.348 10.008 262.762 10.368 263.074 10.836C263.398 11.292 263.596 11.826 263.668 12.438V15.084C263.596 15.696 263.398 16.236 263.074 16.704C262.762 17.172 262.348 17.538 261.832 17.802C261.328 18.054 260.758 18.18 260.122 18.18ZM260.32 16.974C261.196 16.974 261.898 16.68 262.426 16.092C262.966 15.504 263.236 14.73 263.236 13.77C263.236 13.134 263.11 12.576 262.858 12.096C262.618 11.604 262.276 11.226 261.832 10.962C261.4 10.686 260.89 10.548 260.302 10.548C259.702 10.548 259.168 10.686 258.7 10.962C258.244 11.238 257.878 11.622 257.602 12.114C257.338 12.594 257.206 13.146 257.206 13.77C257.206 14.394 257.338 14.946 257.602 15.426C257.878 15.906 258.25 16.284 258.718 16.56C259.186 16.836 259.72 16.974 260.32 16.974ZM263.164 18V15.732L263.416 13.644L263.164 11.61V9.54H264.424V18H263.164ZM269.571 18.18C269.115 18.18 268.677 18.12 268.257 18C267.837 17.868 267.453 17.688 267.105 17.46C266.769 17.232 266.475 16.962 266.223 16.65L267.033 15.822C267.369 16.23 267.747 16.536 268.167 16.74C268.599 16.932 269.079 17.028 269.607 17.028C270.171 17.028 270.609 16.92 270.921 16.704C271.245 16.488 271.407 16.188 271.407 15.804C271.407 15.444 271.293 15.162 271.065 14.958C270.837 14.754 270.543 14.592 270.183 14.472C269.835 14.352 269.463 14.238 269.067 14.13C268.671 14.01 268.293 13.866 267.933 13.698C267.573 13.518 267.279 13.272 267.051 12.96C266.835 12.648 266.727 12.24 266.727 11.736C266.727 11.256 266.841 10.842 267.069 10.494C267.309 10.134 267.645 9.858 268.077 9.666C268.521 9.462 269.043 9.36 269.643 9.36C270.279 9.36 270.855 9.474 271.371 9.702C271.887 9.93 272.301 10.266 272.613 10.71L271.803 11.52C271.551 11.196 271.233 10.95 270.849 10.782C270.477 10.602 270.057 10.512 269.589 10.512C269.049 10.512 268.635 10.62 268.347 10.836C268.071 11.04 267.933 11.31 267.933 11.646C267.933 11.97 268.047 12.228 268.275 12.42C268.503 12.6 268.791 12.75 269.139 12.87C269.499 12.978 269.877 13.092 270.273 13.212C270.669 13.32 271.047 13.47 271.407 13.662C271.767 13.842 272.055 14.094 272.271 14.418C272.499 14.73 272.613 15.156 272.613 15.696C272.613 16.452 272.337 17.058 271.785 17.514C271.245 17.958 270.507 18.18 269.571 18.18ZM278.514 18.18C277.662 18.18 276.9 17.988 276.228 17.604C275.556 17.22 275.022 16.692 274.626 16.02C274.242 15.348 274.05 14.592 274.05 13.752C274.05 12.924 274.242 12.18 274.626 11.52C275.01 10.848 275.532 10.32 276.192 9.936C276.852 9.552 277.59 9.36 278.406 9.36C279.174 9.36 279.852 9.534 280.44 9.882C281.04 10.23 281.508 10.716 281.844 11.34C282.192 11.952 282.366 12.66 282.366 13.464C282.366 13.56 282.36 13.674 282.348 13.806C282.336 13.926 282.312 14.07 282.276 14.238H274.95V13.158H281.592L281.142 13.554C281.154 12.93 281.046 12.396 280.818 11.952C280.602 11.496 280.284 11.148 279.864 10.908C279.456 10.656 278.958 10.53 278.37 10.53C277.758 10.53 277.224 10.662 276.768 10.926C276.312 11.19 275.952 11.562 275.688 12.042C275.436 12.51 275.31 13.068 275.31 13.716C275.31 14.364 275.442 14.934 275.706 15.426C275.982 15.918 276.36 16.302 276.84 16.578C277.332 16.854 277.896 16.992 278.532 16.992C279.048 16.992 279.522 16.902 279.954 16.722C280.386 16.53 280.752 16.248 281.052 15.876L281.862 16.704C281.466 17.172 280.974 17.538 280.386 17.802C279.81 18.054 279.186 18.18 278.514 18.18Z" fill="var(--fill-0, black)"/>
<path id="Vector_4" d="M135.87 42.286C135.186 41.698 134.604 40.99 134.124 40.162C133.644 39.334 133.278 38.428 133.026 37.444C132.774 36.46 132.648 35.428 132.648 34.348C132.648 33.268 132.774 32.236 133.026 31.252C133.278 30.268 133.644 29.362 134.124 28.534C134.604 27.706 135.186 26.998 135.87 26.41L137.382 27.868C136.614 28.612 136.026 29.53 135.618 30.622C135.21 31.714 135.006 32.956 135.006 34.348C135.006 35.728 135.21 36.97 135.618 38.074C136.026 39.166 136.614 40.09 137.382 40.846L135.87 42.286ZM138.869 40V27.292H141.695V40H138.869ZM141.029 40V37.552H147.995V40H141.029ZM141.029 34.69V32.332H147.365V34.69H141.029ZM141.029 29.722V27.292H147.905V29.722H141.029ZM155.469 40V35.014C155.469 34.558 155.325 34.192 155.037 33.916C154.761 33.628 154.407 33.484 153.975 33.484C153.675 33.484 153.411 33.55 153.183 33.682C152.955 33.802 152.775 33.982 152.643 34.222C152.511 34.45 152.445 34.714 152.445 35.014L151.383 34.492C151.383 33.808 151.533 33.208 151.833 32.692C152.133 32.176 152.547 31.78 153.075 31.504C153.615 31.216 154.221 31.072 154.893 31.072C155.541 31.072 156.111 31.228 156.603 31.54C157.107 31.84 157.503 32.242 157.791 32.746C158.079 33.25 158.223 33.802 158.223 34.402V40H155.469ZM149.691 40V31.252H152.445V40H149.691ZM164.222 40.198C163.322 40.198 162.506 40 161.774 39.604C161.042 39.208 160.466 38.662 160.046 37.966C159.626 37.27 159.416 36.49 159.416 35.626C159.416 34.75 159.626 33.97 160.046 33.286C160.478 32.59 161.06 32.044 161.792 31.648C162.524 31.252 163.346 31.054 164.258 31.054C164.942 31.054 165.566 31.174 166.13 31.414C166.706 31.642 167.216 31.99 167.66 32.458L165.896 34.222C165.692 33.994 165.452 33.826 165.176 33.718C164.912 33.61 164.606 33.556 164.258 33.556C163.862 33.556 163.508 33.646 163.196 33.826C162.896 33.994 162.656 34.234 162.476 34.546C162.308 34.846 162.224 35.2 162.224 35.608C162.224 36.016 162.308 36.376 162.476 36.688C162.656 37 162.902 37.246 163.214 37.426C163.526 37.606 163.874 37.696 164.258 37.696C164.618 37.696 164.936 37.636 165.212 37.516C165.5 37.384 165.746 37.204 165.95 36.976L167.696 38.74C167.24 39.22 166.724 39.586 166.148 39.838C165.572 40.078 164.93 40.198 164.222 40.198ZM172.922 40.198C172.022 40.198 171.206 40 170.474 39.604C169.754 39.196 169.184 38.644 168.764 37.948C168.344 37.252 168.134 36.472 168.134 35.608C168.134 34.744 168.344 33.97 168.764 33.286C169.184 32.602 169.754 32.062 170.474 31.666C171.194 31.258 172.01 31.054 172.922 31.054C173.834 31.054 174.65 31.252 175.37 31.648C176.09 32.044 176.66 32.59 177.08 33.286C177.5 33.97 177.71 34.744 177.71 35.608C177.71 36.472 177.5 37.252 177.08 37.948C176.66 38.644 176.09 39.196 175.37 39.604C174.65 40 173.834 40.198 172.922 40.198ZM172.922 37.696C173.318 37.696 173.666 37.612 173.966 37.444C174.266 37.264 174.494 37.018 174.65 36.706C174.818 36.382 174.902 36.016 174.902 35.608C174.902 35.2 174.818 34.846 174.65 34.546C174.482 34.234 174.248 33.994 173.948 33.826C173.66 33.646 173.318 33.556 172.922 33.556C172.538 33.556 172.196 33.646 171.896 33.826C171.596 33.994 171.362 34.234 171.194 34.546C171.026 34.858 170.942 35.218 170.942 35.626C170.942 36.022 171.026 36.382 171.194 36.706C171.362 37.018 171.596 37.264 171.896 37.444C172.196 37.612 172.538 37.696 172.922 37.696ZM182.969 40.198C182.165 40.198 181.451 40.036 180.827 39.712C180.215 39.376 179.735 38.92 179.387 38.344C179.039 37.756 178.865 37.084 178.865 36.328V31.252H181.619V36.292C181.619 36.592 181.667 36.85 181.763 37.066C181.871 37.282 182.027 37.45 182.231 37.57C182.435 37.69 182.681 37.75 182.969 37.75C183.377 37.75 183.701 37.624 183.941 37.372C184.181 37.108 184.301 36.748 184.301 36.292V31.252H187.055V36.31C187.055 37.078 186.881 37.756 186.533 38.344C186.185 38.92 185.705 39.376 185.093 39.712C184.481 40.036 183.773 40.198 182.969 40.198ZM188.785 40V31.252H191.539V40H188.785ZM191.539 35.194L190.387 34.294C190.615 33.274 190.999 32.482 191.539 31.918C192.079 31.354 192.829 31.072 193.789 31.072C194.209 31.072 194.575 31.138 194.887 31.27C195.211 31.39 195.493 31.582 195.733 31.846L194.095 33.916C193.975 33.784 193.825 33.682 193.645 33.61C193.465 33.538 193.261 33.502 193.033 33.502C192.577 33.502 192.211 33.646 191.935 33.934C191.671 34.21 191.539 34.63 191.539 35.194ZM199.874 40.18C199.07 40.18 198.35 39.982 197.714 39.586C197.09 39.19 196.592 38.65 196.22 37.966C195.86 37.282 195.68 36.502 195.68 35.626C195.68 34.75 195.86 33.97 196.22 33.286C196.592 32.602 197.09 32.062 197.714 31.666C198.35 31.27 199.07 31.072 199.874 31.072C200.462 31.072 200.99 31.186 201.458 31.414C201.938 31.642 202.328 31.96 202.628 32.368C202.928 32.764 203.096 33.22 203.132 33.736V37.516C203.096 38.032 202.928 38.494 202.628 38.902C202.34 39.298 201.956 39.61 201.476 39.838C200.996 40.066 200.462 40.18 199.874 40.18ZM200.432 37.696C201.02 37.696 201.494 37.504 201.854 37.12C202.214 36.724 202.394 36.226 202.394 35.626C202.394 35.218 202.31 34.858 202.142 34.546C201.986 34.234 201.758 33.994 201.458 33.826C201.17 33.646 200.834 33.556 200.45 33.556C200.066 33.556 199.724 33.646 199.424 33.826C199.136 33.994 198.902 34.234 198.722 34.546C198.554 34.858 198.47 35.218 198.47 35.626C198.47 36.022 198.554 36.376 198.722 36.688C198.89 37 199.124 37.246 199.424 37.426C199.724 37.606 200.06 37.696 200.432 37.696ZM202.286 40V37.642L202.7 35.518L202.286 33.394V31.252H204.986V40H202.286ZM210.633 43.924C209.673 43.924 208.827 43.756 208.095 43.42C207.375 43.096 206.805 42.634 206.385 42.034L208.077 40.342C208.389 40.714 208.737 40.996 209.121 41.188C209.517 41.38 209.991 41.476 210.543 41.476C211.227 41.476 211.761 41.308 212.145 40.972C212.541 40.636 212.739 40.162 212.739 39.55V37.318L213.207 35.41L212.793 33.502V31.252H215.493V39.478C215.493 40.378 215.283 41.158 214.863 41.818C214.443 42.478 213.867 42.994 213.135 43.366C212.403 43.738 211.569 43.924 210.633 43.924ZM210.507 39.73C209.703 39.73 208.989 39.538 208.365 39.154C207.741 38.77 207.249 38.248 206.889 37.588C206.529 36.928 206.349 36.196 206.349 35.392C206.349 34.576 206.529 33.844 206.889 33.196C207.249 32.536 207.741 32.02 208.365 31.648C208.989 31.264 209.703 31.072 210.507 31.072C211.107 31.072 211.641 31.186 212.109 31.414C212.589 31.63 212.973 31.942 213.261 32.35C213.561 32.746 213.729 33.208 213.765 33.736V37.066C213.729 37.582 213.561 38.044 213.261 38.452C212.973 38.848 212.589 39.16 212.109 39.388C211.629 39.616 211.095 39.73 210.507 39.73ZM211.029 37.282C211.413 37.282 211.743 37.198 212.019 37.03C212.307 36.862 212.523 36.64 212.667 36.364C212.823 36.076 212.901 35.752 212.901 35.392C212.901 35.032 212.823 34.708 212.667 34.42C212.523 34.132 212.307 33.904 212.019 33.736C211.743 33.568 211.413 33.484 211.029 33.484C210.657 33.484 210.327 33.568 210.039 33.736C209.751 33.904 209.529 34.132 209.373 34.42C209.217 34.708 209.139 35.032 209.139 35.392C209.139 35.728 209.217 36.046 209.373 36.346C209.529 36.634 209.745 36.862 210.021 37.03C210.309 37.198 210.645 37.282 211.029 37.282ZM221.757 40.198C220.809 40.198 219.963 40.006 219.219 39.622C218.487 39.226 217.911 38.68 217.491 37.984C217.071 37.288 216.861 36.502 216.861 35.626C216.861 34.75 217.065 33.97 217.473 33.286C217.893 32.59 218.457 32.044 219.165 31.648C219.873 31.252 220.671 31.054 221.559 31.054C222.423 31.054 223.185 31.24 223.845 31.612C224.505 31.984 225.021 32.5 225.393 33.16C225.777 33.82 225.969 34.576 225.969 35.428C225.969 35.584 225.957 35.752 225.933 35.932C225.921 36.1 225.891 36.298 225.843 36.526L218.301 36.544V34.654L224.673 34.636L223.485 35.428C223.473 34.924 223.395 34.51 223.251 34.186C223.107 33.85 222.891 33.598 222.603 33.43C222.327 33.25 221.985 33.16 221.577 33.16C221.145 33.16 220.767 33.262 220.443 33.466C220.131 33.658 219.885 33.934 219.705 34.294C219.537 34.654 219.453 35.092 219.453 35.608C219.453 36.124 219.543 36.568 219.723 36.94C219.915 37.3 220.179 37.582 220.515 37.786C220.863 37.978 221.271 38.074 221.739 38.074C222.171 38.074 222.561 38.002 222.909 37.858C223.257 37.702 223.563 37.474 223.827 37.174L225.339 38.686C224.907 39.19 224.385 39.568 223.773 39.82C223.161 40.072 222.489 40.198 221.757 40.198ZM227.298 40V31.252H230.052V40H227.298ZM232.896 40V34.888C232.896 34.444 232.758 34.102 232.482 33.862C232.218 33.61 231.888 33.484 231.492 33.484C231.216 33.484 230.97 33.544 230.754 33.664C230.538 33.772 230.364 33.928 230.232 34.132C230.112 34.336 230.052 34.588 230.052 34.888L228.99 34.42C228.99 33.724 229.14 33.13 229.44 32.638C229.74 32.134 230.148 31.75 230.664 31.486C231.18 31.21 231.762 31.072 232.41 31.072C233.022 31.072 233.568 31.21 234.048 31.486C234.54 31.762 234.93 32.146 235.218 32.638C235.506 33.13 235.65 33.718 235.65 34.402V40H232.896ZM238.494 40V34.888C238.494 34.444 238.356 34.102 238.08 33.862C237.816 33.61 237.486 33.484 237.09 33.484C236.814 33.484 236.568 33.544 236.352 33.664C236.136 33.772 235.962 33.928 235.83 34.132C235.71 34.336 235.65 34.588 235.65 34.888L234.066 34.672C234.09 33.928 234.264 33.292 234.588 32.764C234.924 32.224 235.362 31.81 235.902 31.522C236.454 31.222 237.072 31.072 237.756 31.072C238.428 31.072 239.022 31.216 239.538 31.504C240.066 31.78 240.48 32.182 240.78 32.71C241.092 33.226 241.248 33.85 241.248 34.582V40H238.494ZM247.333 40.198C246.385 40.198 245.539 40.006 244.795 39.622C244.063 39.226 243.487 38.68 243.067 37.984C242.647 37.288 242.437 36.502 242.437 35.626C242.437 34.75 242.641 33.97 243.049 33.286C243.469 32.59 244.033 32.044 244.741 31.648C245.449 31.252 246.247 31.054 247.135 31.054C247.999 31.054 248.761 31.24 249.421 31.612C250.081 31.984 250.597 32.5 250.969 33.16C251.353 33.82 251.545 34.576 251.545 35.428C251.545 35.584 251.533 35.752 251.509 35.932C251.497 36.1 251.467 36.298 251.419 36.526L243.877 36.544V34.654L250.249 34.636L249.061 35.428C249.049 34.924 248.971 34.51 248.827 34.186C248.683 33.85 248.467 33.598 248.179 33.43C247.903 33.25 247.561 33.16 247.153 33.16C246.721 33.16 246.343 33.262 246.019 33.466C245.707 33.658 245.461 33.934 245.281 34.294C245.113 34.654 245.029 35.092 245.029 35.608C245.029 36.124 245.119 36.568 245.299 36.94C245.491 37.3 245.755 37.582 246.091 37.786C246.439 37.978 246.847 38.074 247.315 38.074C247.747 38.074 248.137 38.002 248.485 37.858C248.833 37.702 249.139 37.474 249.403 37.174L250.915 38.686C250.483 39.19 249.961 39.568 249.349 39.82C248.737 40.072 248.065 40.198 247.333 40.198ZM258.652 40V35.014C258.652 34.558 258.508 34.192 258.22 33.916C257.944 33.628 257.59 33.484 257.158 33.484C256.858 33.484 256.594 33.55 256.366 33.682C256.138 33.802 255.958 33.982 255.826 34.222C255.694 34.45 255.628 34.714 255.628 35.014L254.566 34.492C254.566 33.808 254.716 33.208 255.016 32.692C255.316 32.176 255.73 31.78 256.258 31.504C256.798 31.216 257.404 31.072 258.076 31.072C258.724 31.072 259.294 31.228 259.786 31.54C260.29 31.84 260.686 32.242 260.974 32.746C261.262 33.25 261.406 33.802 261.406 34.402V40H258.652ZM252.874 40V31.252H255.628V40H252.874ZM264.312 40V27.634H267.066V40H264.312ZM262.332 33.592V31.252H269.046V33.592H262.332ZM273.269 40.216C272.753 40.216 272.243 40.15 271.739 40.018C271.247 39.886 270.785 39.7 270.353 39.46C269.933 39.208 269.573 38.92 269.273 38.596L270.839 37.012C271.127 37.324 271.469 37.57 271.865 37.75C272.261 37.918 272.693 38.002 273.161 38.002C273.485 38.002 273.731 37.954 273.899 37.858C274.079 37.762 274.169 37.63 274.169 37.462C274.169 37.246 274.061 37.084 273.845 36.976C273.641 36.856 273.377 36.754 273.053 36.67C272.729 36.574 272.387 36.472 272.027 36.364C271.667 36.256 271.325 36.106 271.001 35.914C270.677 35.722 270.413 35.458 270.209 35.122C270.005 34.774 269.903 34.336 269.903 33.808C269.903 33.244 270.047 32.758 270.335 32.35C270.623 31.93 271.031 31.6 271.559 31.36C272.087 31.12 272.705 31 273.413 31C274.157 31 274.841 31.132 275.465 31.396C276.101 31.648 276.617 32.026 277.013 32.53L275.447 34.114C275.171 33.79 274.859 33.562 274.511 33.43C274.175 33.298 273.845 33.232 273.521 33.232C273.209 33.232 272.975 33.28 272.819 33.376C272.663 33.46 272.585 33.586 272.585 33.754C272.585 33.934 272.687 34.078 272.891 34.186C273.095 34.294 273.359 34.39 273.683 34.474C274.007 34.558 274.349 34.66 274.709 34.78C275.069 34.9 275.411 35.062 275.735 35.266C276.059 35.47 276.323 35.746 276.527 36.094C276.731 36.43 276.833 36.874 276.833 37.426C276.833 38.278 276.509 38.956 275.861 39.46C275.225 39.964 274.361 40.216 273.269 40.216ZM279.137 42.286L277.625 40.846C278.393 40.09 278.981 39.166 279.389 38.074C279.797 36.97 280.001 35.728 280.001 34.348C280.001 32.956 279.797 31.714 279.389 30.622C278.981 29.53 278.393 28.612 277.625 27.868L279.137 26.41C279.821 26.998 280.403 27.706 280.883 28.534C281.363 29.362 281.729 30.268 281.981 31.252C282.233 32.236 282.359 33.268 282.359 34.348C282.359 35.428 282.233 36.46 281.981 37.444C281.729 38.428 281.363 39.334 280.883 40.162C280.403 40.99 279.821 41.698 279.137 42.286Z" fill="var(--fill-0, #8A38F5)"/>
<path id="Vector_5" d="M302.139 208.532V207.362H305.793C306.297 207.362 306.747 207.26 307.143 207.056C307.551 206.852 307.869 206.564 308.097 206.192C308.337 205.808 308.457 205.352 308.457 204.824C308.457 204.296 308.337 203.846 308.097 203.474C307.869 203.09 307.551 202.796 307.143 202.592C306.747 202.376 306.297 202.268 305.793 202.268H302.139V201.116H305.883C306.627 201.116 307.293 201.272 307.881 201.584C308.469 201.884 308.931 202.31 309.267 202.862C309.615 203.414 309.789 204.068 309.789 204.824C309.789 205.568 309.615 206.222 309.267 206.786C308.931 207.338 308.469 207.77 307.881 208.082C307.293 208.382 306.627 208.532 305.883 208.532H302.139ZM301.293 213.5V201.116H302.607V213.5H301.293ZM315.299 213.68C314.447 213.68 313.685 213.488 313.013 213.104C312.341 212.72 311.807 212.192 311.411 211.52C311.027 210.848 310.835 210.092 310.835 209.252C310.835 208.424 311.027 207.68 311.411 207.02C311.795 206.348 312.317 205.82 312.977 205.436C313.637 205.052 314.375 204.86 315.191 204.86C315.959 204.86 316.637 205.034 317.225 205.382C317.825 205.73 318.293 206.216 318.629 206.84C318.977 207.452 319.151 208.16 319.151 208.964C319.151 209.06 319.145 209.174 319.133 209.306C319.121 209.426 319.097 209.57 319.061 209.738H311.735V208.658H318.377L317.927 209.054C317.939 208.43 317.831 207.896 317.603 207.452C317.387 206.996 317.069 206.648 316.649 206.408C316.241 206.156 315.743 206.03 315.155 206.03C314.543 206.03 314.009 206.162 313.553 206.426C313.097 206.69 312.737 207.062 312.473 207.542C312.221 208.01 312.095 208.568 312.095 209.216C312.095 209.864 312.227 210.434 312.491 210.926C312.767 211.418 313.145 211.802 313.625 212.078C314.117 212.354 314.681 212.492 315.317 212.492C315.833 212.492 316.307 212.402 316.739 212.222C317.171 212.03 317.537 211.748 317.837 211.376L318.647 212.204C318.251 212.672 317.759 213.038 317.171 213.302C316.595 213.554 315.971 213.68 315.299 213.68ZM321.079 213.5V205.04H322.339V213.5H321.079ZM322.339 208.568L321.817 208.334C321.817 207.266 322.075 206.42 322.591 205.796C323.119 205.172 323.839 204.86 324.751 204.86C325.171 204.86 325.555 204.938 325.903 205.094C326.251 205.238 326.575 205.472 326.875 205.796L326.047 206.678C325.843 206.45 325.615 206.288 325.363 206.192C325.123 206.096 324.847 206.048 324.535 206.048C323.887 206.048 323.359 206.264 322.951 206.696C322.543 207.116 322.339 207.74 322.339 208.568ZM329.37 213.5V203.6C329.37 203.012 329.496 202.49 329.748 202.034C330.012 201.578 330.372 201.224 330.828 200.972C331.296 200.708 331.824 200.576 332.412 200.576C332.868 200.576 333.27 200.66 333.618 200.828C333.966 200.984 334.284 201.206 334.572 201.494L333.744 202.322C333.552 202.13 333.348 201.992 333.132 201.908C332.928 201.812 332.688 201.764 332.412 201.764C331.848 201.764 331.41 201.932 331.098 202.268C330.798 202.592 330.648 203.048 330.648 203.636V213.5H329.37ZM327.246 206.174V205.04H333.474V206.174H327.246ZM338.501 213.68C337.685 213.68 336.941 213.482 336.269 213.086C335.609 212.69 335.081 212.156 334.685 211.484C334.301 210.812 334.109 210.062 334.109 209.234C334.109 208.418 334.301 207.68 334.685 207.02C335.081 206.36 335.609 205.838 336.269 205.454C336.941 205.058 337.685 204.86 338.501 204.86C339.329 204.86 340.073 205.052 340.733 205.436C341.393 205.82 341.915 206.348 342.299 207.02C342.695 207.68 342.893 208.418 342.893 209.234C342.893 210.074 342.695 210.83 342.299 211.502C341.915 212.162 341.393 212.69 340.733 213.086C340.073 213.482 339.329 213.68 338.501 213.68ZM338.501 212.456C339.101 212.456 339.629 212.318 340.085 212.042C340.553 211.766 340.919 211.382 341.183 210.89C341.459 210.398 341.597 209.846 341.597 209.234C341.597 208.622 341.459 208.082 341.183 207.614C340.919 207.134 340.553 206.756 340.085 206.48C339.629 206.204 339.101 206.066 338.501 206.066C337.913 206.066 337.385 206.204 336.917 206.48C336.449 206.756 336.083 207.134 335.819 207.614C335.555 208.082 335.423 208.622 335.423 209.234C335.423 209.858 335.555 210.416 335.819 210.908C336.083 211.388 336.449 211.766 336.917 212.042C337.385 212.318 337.913 212.456 338.501 212.456ZM344.897 213.5V205.04H346.157V213.5H344.897ZM346.157 208.568L345.635 208.334C345.635 207.266 345.893 206.42 346.409 205.796C346.937 205.172 347.657 204.86 348.569 204.86C348.989 204.86 349.373 204.938 349.721 205.094C350.069 205.238 350.393 205.472 350.693 205.796L349.865 206.678C349.661 206.45 349.433 206.288 349.181 206.192C348.941 206.096 348.665 206.048 348.353 206.048C347.705 206.048 347.177 206.264 346.769 206.696C346.361 207.116 346.157 207.74 346.157 208.568ZM352.104 213.5V205.04H353.364V213.5H352.104ZM357.918 213.5V208.316C357.918 207.62 357.708 207.068 357.288 206.66C356.868 206.24 356.34 206.03 355.704 206.03C355.272 206.03 354.876 206.126 354.516 206.318C354.168 206.498 353.886 206.756 353.67 207.092C353.466 207.428 353.364 207.83 353.364 208.298L352.788 208.064C352.788 207.416 352.932 206.852 353.22 206.372C353.508 205.892 353.892 205.52 354.372 205.256C354.864 204.992 355.416 204.86 356.028 204.86C356.628 204.86 357.162 204.992 357.63 205.256C358.11 205.52 358.488 205.892 358.764 206.372C359.052 206.852 359.196 207.422 359.196 208.082V213.5H357.918ZM363.75 213.5V208.316C363.75 207.62 363.54 207.068 363.12 206.66C362.7 206.24 362.166 206.03 361.518 206.03C361.098 206.03 360.708 206.126 360.348 206.318C360 206.498 359.718 206.756 359.502 207.092C359.298 207.428 359.196 207.83 359.196 208.298L358.44 208.064C358.476 207.416 358.644 206.852 358.944 206.372C359.256 205.892 359.658 205.52 360.15 205.256C360.654 204.992 361.206 204.86 361.806 204.86C362.406 204.86 362.946 204.992 363.426 205.256C363.918 205.52 364.302 205.892 364.578 206.372C364.866 206.852 365.01 207.422 365.01 208.082V213.5H363.75ZM371.052 213.68C370.248 213.68 369.528 213.488 368.892 213.104C368.256 212.708 367.752 212.18 367.38 211.52C367.02 210.86 366.84 210.116 366.84 209.288C366.84 208.448 367.02 207.698 367.38 207.038C367.752 206.366 368.256 205.838 368.892 205.454C369.528 205.058 370.242 204.86 371.034 204.86C371.682 204.86 372.258 204.992 372.762 205.256C373.278 205.508 373.692 205.868 374.004 206.336C374.328 206.792 374.526 207.326 374.598 207.938V210.584C374.526 211.196 374.328 211.736 374.004 212.204C373.692 212.672 373.278 213.038 372.762 213.302C372.258 213.554 371.688 213.68 371.052 213.68ZM371.25 212.474C372.126 212.474 372.828 212.18 373.356 211.592C373.896 211.004 374.166 210.23 374.166 209.27C374.166 208.634 374.04 208.076 373.788 207.596C373.548 207.104 373.206 206.726 372.762 206.462C372.33 206.186 371.82 206.048 371.232 206.048C370.632 206.048 370.098 206.186 369.63 206.462C369.174 206.738 368.808 207.122 368.532 207.614C368.268 208.094 368.136 208.646 368.136 209.27C368.136 209.894 368.268 210.446 368.532 210.926C368.808 211.406 369.18 211.784 369.648 212.06C370.116 212.336 370.65 212.474 371.25 212.474ZM374.094 213.5V211.232L374.346 209.144L374.094 207.11V205.04H375.354V213.5H374.094ZM384.065 213.5V208.532C384.065 207.788 383.843 207.188 383.399 206.732C382.967 206.264 382.391 206.03 381.671 206.03C381.179 206.03 380.747 206.138 380.375 206.354C380.003 206.57 379.709 206.864 379.493 207.236C379.277 207.608 379.169 208.034 379.169 208.514L378.593 208.19C378.593 207.554 378.743 206.984 379.043 206.48C379.343 205.976 379.745 205.58 380.249 205.292C380.765 205.004 381.353 204.86 382.013 204.86C382.661 204.86 383.237 205.016 383.741 205.328C384.245 205.64 384.635 206.06 384.911 206.588C385.199 207.116 385.343 207.692 385.343 208.316V213.5H384.065ZM377.909 213.5V205.04H379.169V213.5H377.909ZM391.552 213.68C390.724 213.68 389.974 213.488 389.302 213.104C388.642 212.708 388.114 212.174 387.718 211.502C387.334 210.83 387.142 210.08 387.142 209.252C387.142 208.424 387.334 207.68 387.718 207.02C388.114 206.348 388.642 205.82 389.302 205.436C389.974 205.052 390.724 204.86 391.552 204.86C392.188 204.86 392.782 204.98 393.334 205.22C393.886 205.46 394.354 205.796 394.738 206.228L393.91 207.074C393.622 206.75 393.274 206.504 392.866 206.336C392.458 206.156 392.02 206.066 391.552 206.066C390.952 206.066 390.418 206.204 389.95 206.48C389.482 206.756 389.116 207.134 388.852 207.614C388.588 208.082 388.456 208.628 388.456 209.252C388.456 209.864 388.588 210.416 388.852 210.908C389.116 211.388 389.482 211.766 389.95 212.042C390.418 212.318 390.952 212.456 391.552 212.456C392.032 212.456 392.476 212.372 392.884 212.204C393.292 212.024 393.64 211.772 393.928 211.448L394.774 212.294C394.378 212.738 393.898 213.08 393.334 213.32C392.782 213.56 392.188 213.68 391.552 213.68ZM400.289 213.68C399.437 213.68 398.675 213.488 398.003 213.104C397.331 212.72 396.797 212.192 396.401 211.52C396.017 210.848 395.825 210.092 395.825 209.252C395.825 208.424 396.017 207.68 396.401 207.02C396.785 206.348 397.307 205.82 397.967 205.436C398.627 205.052 399.365 204.86 400.181 204.86C400.949 204.86 401.627 205.034 402.215 205.382C402.815 205.73 403.283 206.216 403.619 206.84C403.967 207.452 404.141 208.16 404.141 208.964C404.141 209.06 404.135 209.174 404.123 209.306C404.111 209.426 404.087 209.57 404.051 209.738H396.725V208.658H403.367L402.917 209.054C402.929 208.43 402.821 207.896 402.593 207.452C402.377 206.996 402.059 206.648 401.639 206.408C401.231 206.156 400.733 206.03 400.145 206.03C399.533 206.03 398.999 206.162 398.543 206.426C398.087 206.69 397.727 207.062 397.463 207.542C397.211 208.01 397.085 208.568 397.085 209.216C397.085 209.864 397.217 210.434 397.481 210.926C397.757 211.418 398.135 211.802 398.615 212.078C399.107 212.354 399.671 212.492 400.307 212.492C400.823 212.492 401.297 212.402 401.729 212.222C402.161 212.03 402.527 211.748 402.827 211.376L403.637 212.204C403.241 212.672 402.749 213.038 402.161 213.302C401.585 213.554 400.961 213.68 400.289 213.68ZM330.387 230.532V229.362H334.041C334.545 229.362 334.995 229.26 335.391 229.056C335.799 228.852 336.117 228.564 336.345 228.192C336.585 227.808 336.705 227.352 336.705 226.824C336.705 226.296 336.585 225.846 336.345 225.474C336.117 225.09 335.799 224.796 335.391 224.592C334.995 224.376 334.545 224.268 334.041 224.268H330.387V223.116H334.131C334.875 223.116 335.541 223.272 336.129 223.584C336.717 223.884 337.179 224.31 337.515 224.862C337.863 225.414 338.037 226.068 338.037 226.824C338.037 227.568 337.863 228.222 337.515 228.786C337.179 229.338 336.717 229.77 336.129 230.082C335.541 230.382 334.875 230.532 334.131 230.532H330.387ZM329.541 235.5V223.116H330.855V235.5H329.541ZM346.342 235.5V230.532C346.342 229.788 346.12 229.188 345.676 228.732C345.244 228.264 344.668 228.03 343.948 228.03C343.456 228.03 343.024 228.138 342.652 228.354C342.28 228.57 341.986 228.864 341.77 229.236C341.554 229.608 341.446 230.034 341.446 230.514L340.87 230.19C340.87 229.554 341.02 228.984 341.32 228.48C341.62 227.976 342.022 227.58 342.526 227.292C343.042 227.004 343.63 226.86 344.29 226.86C344.938 226.86 345.514 227.01 346.018 227.31C346.522 227.598 346.912 228 347.188 228.516C347.476 229.032 347.62 229.632 347.62 230.316V235.5H346.342ZM340.186 235.5V222.756H341.446V235.5H340.186ZM353.649 235.68C352.845 235.68 352.125 235.488 351.489 235.104C350.853 234.708 350.349 234.18 349.977 233.52C349.617 232.86 349.437 232.116 349.437 231.288C349.437 230.448 349.617 229.698 349.977 229.038C350.349 228.366 350.853 227.838 351.489 227.454C352.125 227.058 352.839 226.86 353.631 226.86C354.279 226.86 354.855 226.992 355.359 227.256C355.875 227.508 356.289 227.868 356.601 228.336C356.925 228.792 357.123 229.326 357.195 229.938V232.584C357.123 233.196 356.925 233.736 356.601 234.204C356.289 234.672 355.875 235.038 355.359 235.302C354.855 235.554 354.285 235.68 353.649 235.68ZM353.847 234.474C354.723 234.474 355.425 234.18 355.953 233.592C356.493 233.004 356.763 232.23 356.763 231.27C356.763 230.634 356.637 230.076 356.385 229.596C356.145 229.104 355.803 228.726 355.359 228.462C354.927 228.186 354.417 228.048 353.829 228.048C353.229 228.048 352.695 228.186 352.227 228.462C351.771 228.738 351.405 229.122 351.129 229.614C350.865 230.094 350.733 230.646 350.733 231.27C350.733 231.894 350.865 232.446 351.129 232.926C351.405 233.406 351.777 233.784 352.245 234.06C352.713 234.336 353.247 234.474 353.847 234.474ZM356.691 235.5V233.232L356.943 231.144L356.691 229.11V227.04H357.951V235.5H356.691ZM363.099 235.68C362.643 235.68 362.205 235.62 361.785 235.5C361.365 235.368 360.981 235.188 360.633 234.96C360.297 234.732 360.003 234.462 359.751 234.15L360.561 233.322C360.897 233.73 361.275 234.036 361.695 234.24C362.127 234.432 362.607 234.528 363.135 234.528C363.699 234.528 364.137 234.42 364.449 234.204C364.773 233.988 364.935 233.688 364.935 233.304C364.935 232.944 364.821 232.662 364.593 232.458C364.365 232.254 364.071 232.092 363.711 231.972C363.363 231.852 362.991 231.738 362.595 231.63C362.199 231.51 361.821 231.366 361.461 231.198C361.101 231.018 360.807 230.772 360.579 230.46C360.363 230.148 360.255 229.74 360.255 229.236C360.255 228.756 360.369 228.342 360.597 227.994C360.837 227.634 361.173 227.358 361.605 227.166C362.049 226.962 362.571 226.86 363.171 226.86C363.807 226.86 364.383 226.974 364.899 227.202C365.415 227.43 365.829 227.766 366.141 228.21L365.331 229.02C365.079 228.696 364.761 228.45 364.377 228.282C364.005 228.102 363.585 228.012 363.117 228.012C362.577 228.012 362.163 228.12 361.875 228.336C361.599 228.54 361.461 228.81 361.461 229.146C361.461 229.47 361.575 229.728 361.803 229.92C362.031 230.1 362.319 230.25 362.667 230.37C363.027 230.478 363.405 230.592 363.801 230.712C364.197 230.82 364.575 230.97 364.935 231.162C365.295 231.342 365.583 231.594 365.799 231.918C366.027 232.23 366.141 232.656 366.141 233.196C366.141 233.952 365.865 234.558 365.313 235.014C364.773 235.458 364.035 235.68 363.099 235.68ZM372.041 235.68C371.189 235.68 370.427 235.488 369.755 235.104C369.083 234.72 368.549 234.192 368.153 233.52C367.769 232.848 367.577 232.092 367.577 231.252C367.577 230.424 367.769 229.68 368.153 229.02C368.537 228.348 369.059 227.82 369.719 227.436C370.379 227.052 371.117 226.86 371.933 226.86C372.701 226.86 373.379 227.034 373.967 227.382C374.567 227.73 375.035 228.216 375.371 228.84C375.719 229.452 375.893 230.16 375.893 230.964C375.893 231.06 375.887 231.174 375.875 231.306C375.863 231.426 375.839 231.57 375.803 231.738H368.477V230.658H375.119L374.669 231.054C374.681 230.43 374.573 229.896 374.345 229.452C374.129 228.996 373.811 228.648 373.391 228.408C372.983 228.156 372.485 228.03 371.897 228.03C371.285 228.03 370.751 228.162 370.295 228.426C369.839 228.69 369.479 229.062 369.215 229.542C368.963 230.01 368.837 230.568 368.837 231.216C368.837 231.864 368.969 232.434 369.233 232.926C369.509 233.418 369.887 233.802 370.367 234.078C370.859 234.354 371.423 234.492 372.059 234.492C372.575 234.492 373.049 234.402 373.481 234.222C373.913 234.03 374.279 233.748 374.579 233.376L375.389 234.204C374.993 234.672 374.501 235.038 373.913 235.302C373.337 235.554 372.713 235.68 372.041 235.68Z" fill="var(--fill-0, black)"/>
<path id="Vector_6" d="M319.354 259.786C318.67 259.198 318.088 258.49 317.608 257.662C317.128 256.834 316.762 255.928 316.51 254.944C316.258 253.96 316.132 252.928 316.132 251.848C316.132 250.768 316.258 249.736 316.51 248.752C316.762 247.768 317.128 246.862 317.608 246.034C318.088 245.206 318.67 244.498 319.354 243.91L320.866 245.368C320.098 246.112 319.51 247.03 319.102 248.122C318.694 249.214 318.49 250.456 318.49 251.848C318.49 253.228 318.694 254.47 319.102 255.574C319.51 256.666 320.098 257.59 320.866 258.346L319.354 259.786ZM324.512 252.874V250.678H327.248C327.596 250.678 327.914 250.606 328.202 250.462C328.49 250.318 328.718 250.108 328.886 249.832C329.054 249.556 329.138 249.22 329.138 248.824C329.138 248.44 329.054 248.11 328.886 247.834C328.718 247.558 328.49 247.348 328.202 247.204C327.914 247.06 327.596 246.988 327.248 246.988H324.512V244.792H327.662C328.466 244.792 329.192 244.954 329.84 245.278C330.488 245.602 330.998 246.07 331.37 246.682C331.754 247.282 331.946 247.996 331.946 248.824C331.946 249.652 331.754 250.372 331.37 250.984C330.998 251.584 330.488 252.052 329.84 252.388C329.192 252.712 328.466 252.874 327.662 252.874H324.512ZM322.352 257.5V244.792H325.178V257.5H322.352ZM337.246 257.698C336.346 257.698 335.53 257.5 334.798 257.104C334.078 256.696 333.508 256.144 333.088 255.448C332.668 254.752 332.458 253.972 332.458 253.108C332.458 252.244 332.668 251.47 333.088 250.786C333.508 250.102 334.078 249.562 334.798 249.166C335.518 248.758 336.334 248.554 337.246 248.554C338.158 248.554 338.974 248.752 339.694 249.148C340.414 249.544 340.984 250.09 341.404 250.786C341.824 251.47 342.034 252.244 342.034 253.108C342.034 253.972 341.824 254.752 341.404 255.448C340.984 256.144 340.414 256.696 339.694 257.104C338.974 257.5 338.158 257.698 337.246 257.698ZM337.246 255.196C337.642 255.196 337.99 255.112 338.29 254.944C338.59 254.764 338.818 254.518 338.974 254.206C339.142 253.882 339.226 253.516 339.226 253.108C339.226 252.7 339.142 252.346 338.974 252.046C338.806 251.734 338.572 251.494 338.272 251.326C337.984 251.146 337.642 251.056 337.246 251.056C336.862 251.056 336.52 251.146 336.22 251.326C335.92 251.494 335.686 251.734 335.518 252.046C335.35 252.358 335.266 252.718 335.266 253.126C335.266 253.522 335.35 253.882 335.518 254.206C335.686 254.518 335.92 254.764 336.22 254.944C336.52 255.112 336.862 255.196 337.246 255.196ZM346.591 257.716C346.075 257.716 345.565 257.65 345.061 257.518C344.569 257.386 344.107 257.2 343.675 256.96C343.255 256.708 342.895 256.42 342.595 256.096L344.161 254.512C344.449 254.824 344.791 255.07 345.187 255.25C345.583 255.418 346.015 255.502 346.483 255.502C346.807 255.502 347.053 255.454 347.221 255.358C347.401 255.262 347.491 255.13 347.491 254.962C347.491 254.746 347.383 254.584 347.167 254.476C346.963 254.356 346.699 254.254 346.375 254.17C346.051 254.074 345.709 253.972 345.349 253.864C344.989 253.756 344.647 253.606 344.323 253.414C343.999 253.222 343.735 252.958 343.531 252.622C343.327 252.274 343.225 251.836 343.225 251.308C343.225 250.744 343.369 250.258 343.657 249.85C343.945 249.43 344.353 249.1 344.881 248.86C345.409 248.62 346.027 248.5 346.735 248.5C347.479 248.5 348.163 248.632 348.787 248.896C349.423 249.148 349.939 249.526 350.335 250.03L348.769 251.614C348.493 251.29 348.181 251.062 347.833 250.93C347.497 250.798 347.167 250.732 346.843 250.732C346.531 250.732 346.297 250.78 346.141 250.876C345.985 250.96 345.907 251.086 345.907 251.254C345.907 251.434 346.009 251.578 346.213 251.686C346.417 251.794 346.681 251.89 347.005 251.974C347.329 252.058 347.671 252.16 348.031 252.28C348.391 252.4 348.733 252.562 349.057 252.766C349.381 252.97 349.645 253.246 349.849 253.594C350.053 253.93 350.155 254.374 350.155 254.926C350.155 255.778 349.831 256.456 349.183 256.96C348.547 257.464 347.683 257.716 346.591 257.716ZM352.891 257.5V245.134H355.645V257.5H352.891ZM350.911 251.092V248.752H357.625V251.092H350.911ZM358.838 257.5V248.752H361.592V257.5H358.838ZM360.224 247.546C359.792 247.546 359.432 247.402 359.144 247.114C358.868 246.814 358.73 246.454 358.73 246.034C358.73 245.602 358.868 245.242 359.144 244.954C359.432 244.666 359.792 244.522 360.224 244.522C360.656 244.522 361.01 244.666 361.286 244.954C361.562 245.242 361.7 245.602 361.7 246.034C361.7 246.454 361.562 246.814 361.286 247.114C361.01 247.402 360.656 247.546 360.224 247.546ZM369.31 257.5V252.514C369.31 252.058 369.166 251.692 368.878 251.416C368.602 251.128 368.248 250.984 367.816 250.984C367.516 250.984 367.252 251.05 367.024 251.182C366.796 251.302 366.616 251.482 366.484 251.722C366.352 251.95 366.286 252.214 366.286 252.514L365.224 251.992C365.224 251.308 365.374 250.708 365.674 250.192C365.974 249.676 366.388 249.28 366.916 249.004C367.456 248.716 368.062 248.572 368.734 248.572C369.382 248.572 369.952 248.728 370.444 249.04C370.948 249.34 371.344 249.742 371.632 250.246C371.92 250.75 372.064 251.302 372.064 251.902V257.5H369.31ZM363.532 257.5V248.752H366.286V257.5H363.532ZM377.54 261.424C376.58 261.424 375.734 261.256 375.002 260.92C374.282 260.596 373.712 260.134 373.292 259.534L374.984 257.842C375.296 258.214 375.644 258.496 376.028 258.688C376.424 258.88 376.898 258.976 377.45 258.976C378.134 258.976 378.668 258.808 379.052 258.472C379.448 258.136 379.646 257.662 379.646 257.05V254.818L380.114 252.91L379.7 251.002V248.752H382.4V256.978C382.4 257.878 382.19 258.658 381.77 259.318C381.35 259.978 380.774 260.494 380.042 260.866C379.31 261.238 378.476 261.424 377.54 261.424ZM377.414 257.23C376.61 257.23 375.896 257.038 375.272 256.654C374.648 256.27 374.156 255.748 373.796 255.088C373.436 254.428 373.256 253.696 373.256 252.892C373.256 252.076 373.436 251.344 373.796 250.696C374.156 250.036 374.648 249.52 375.272 249.148C375.896 248.764 376.61 248.572 377.414 248.572C378.014 248.572 378.548 248.686 379.016 248.914C379.496 249.13 379.88 249.442 380.168 249.85C380.468 250.246 380.636 250.708 380.672 251.236V254.566C380.636 255.082 380.468 255.544 380.168 255.952C379.88 256.348 379.496 256.66 379.016 256.888C378.536 257.116 378.002 257.23 377.414 257.23ZM377.936 254.782C378.32 254.782 378.65 254.698 378.926 254.53C379.214 254.362 379.43 254.14 379.574 253.864C379.73 253.576 379.808 253.252 379.808 252.892C379.808 252.532 379.73 252.208 379.574 251.92C379.43 251.632 379.214 251.404 378.926 251.236C378.65 251.068 378.32 250.984 377.936 250.984C377.564 250.984 377.234 251.068 376.946 251.236C376.658 251.404 376.436 251.632 376.28 251.92C376.124 252.208 376.046 252.532 376.046 252.892C376.046 253.228 376.124 253.546 376.28 253.846C376.436 254.134 376.652 254.362 376.928 254.53C377.216 254.698 377.552 254.782 377.936 254.782ZM385.154 259.786L383.642 258.346C384.41 257.59 384.998 256.666 385.406 255.574C385.814 254.47 386.018 253.228 386.018 251.848C386.018 250.456 385.814 249.214 385.406 248.122C384.998 247.03 384.41 246.112 383.642 245.368L385.154 243.91C385.838 244.498 386.42 245.206 386.9 246.034C387.38 246.862 387.746 247.768 387.998 248.752C388.25 249.736 388.376 250.768 388.376 251.848C388.376 252.928 388.25 253.96 387.998 254.944C387.746 255.928 387.38 256.834 386.9 257.662C386.42 258.49 385.838 259.198 385.154 259.786Z" fill="var(--fill-0, #8A38F5)"/>
<path id="Vector_7" d="M10.2142 217.456V216.34H13.8142C14.6302 216.34 15.2542 216.136 15.6862 215.728C16.1182 215.308 16.3342 214.75 16.3342 214.054C16.3342 213.382 16.1182 212.836 15.6862 212.416C15.2542 211.984 14.6302 211.768 13.8142 211.768H10.2142V210.616H13.8142C14.6182 210.616 15.3082 210.766 15.8842 211.066C16.4602 211.354 16.8982 211.756 17.1982 212.272C17.5102 212.788 17.6662 213.376 17.6662 214.036C17.6662 214.72 17.5102 215.32 17.1982 215.836C16.8982 216.352 16.4602 216.754 15.8842 217.042C15.3082 217.318 14.6182 217.456 13.8142 217.456H10.2142ZM9.36818 223V210.616H10.6822V223H9.36818ZM16.8562 223L12.2122 217.276L13.4902 216.862L18.5482 223H16.8562ZM23.8139 223.18C22.9619 223.18 22.1999 222.988 21.5279 222.604C20.8559 222.22 20.3219 221.692 19.9259 221.02C19.5419 220.348 19.3499 219.592 19.3499 218.752C19.3499 217.924 19.5419 217.18 19.9259 216.52C20.3099 215.848 20.8319 215.32 21.4919 214.936C22.1519 214.552 22.8899 214.36 23.7059 214.36C24.4739 214.36 25.1519 214.534 25.7399 214.882C26.3399 215.23 26.8079 215.716 27.1439 216.34C27.4919 216.952 27.6659 217.66 27.6659 218.464C27.6659 218.56 27.6599 218.674 27.6479 218.806C27.6359 218.926 27.6119 219.07 27.5759 219.238H20.2499V218.158H26.8919L26.4419 218.554C26.4539 217.93 26.3459 217.396 26.1179 216.952C25.9019 216.496 25.5839 216.148 25.1639 215.908C24.7559 215.656 24.2579 215.53 23.6699 215.53C23.0579 215.53 22.5239 215.662 22.0679 215.926C21.6119 216.19 21.2519 216.562 20.9879 217.042C20.7359 217.51 20.6099 218.068 20.6099 218.716C20.6099 219.364 20.7419 219.934 21.0059 220.426C21.2819 220.918 21.6599 221.302 22.1399 221.578C22.6319 221.854 23.1959 221.992 23.8319 221.992C24.3479 221.992 24.8219 221.902 25.2539 221.722C25.6859 221.53 26.0519 221.248 26.3519 220.876L27.1619 221.704C26.7659 222.172 26.2739 222.538 25.6859 222.802C25.1099 223.054 24.4859 223.18 23.8139 223.18ZM30.519 223V213.19C30.519 212.614 30.651 212.092 30.915 211.624C31.179 211.156 31.545 210.784 32.013 210.508C32.493 210.22 33.051 210.076 33.687 210.076L33.669 211.264C33.069 211.264 32.607 211.45 32.283 211.822C31.959 212.182 31.797 212.65 31.797 213.226V223H30.519ZM28.395 215.674V214.54H36.009V215.674H28.395ZM35.487 223V210.13H36.765V223H35.487ZM43.2026 223.18C42.3506 223.18 41.5886 222.988 40.9166 222.604C40.2446 222.22 39.7106 221.692 39.3146 221.02C38.9306 220.348 38.7386 219.592 38.7386 218.752C38.7386 217.924 38.9306 217.18 39.3146 216.52C39.6986 215.848 40.2206 215.32 40.8806 214.936C41.5406 214.552 42.2786 214.36 43.0946 214.36C43.8626 214.36 44.5406 214.534 45.1286 214.882C45.7286 215.23 46.1966 215.716 46.5326 216.34C46.8806 216.952 47.0546 217.66 47.0546 218.464C47.0546 218.56 47.0486 218.674 47.0366 218.806C47.0246 218.926 47.0006 219.07 46.9646 219.238H39.6386V218.158H46.2806L45.8306 218.554C45.8426 217.93 45.7346 217.396 45.5066 216.952C45.2906 216.496 44.9726 216.148 44.5526 215.908C44.1446 215.656 43.6466 215.53 43.0586 215.53C42.4466 215.53 41.9126 215.662 41.4566 215.926C41.0006 216.19 40.6406 216.562 40.3766 217.042C40.1246 217.51 39.9986 218.068 39.9986 218.716C39.9986 219.364 40.1306 219.934 40.3946 220.426C40.6706 220.918 41.0486 221.302 41.5286 221.578C42.0206 221.854 42.5846 221.992 43.2206 221.992C43.7366 221.992 44.2106 221.902 44.6426 221.722C45.0746 221.53 45.4406 221.248 45.7406 220.876L46.5506 221.704C46.1546 222.172 45.6626 222.538 45.0746 222.802C44.4986 223.054 43.8746 223.18 43.2026 223.18ZM52.8341 223.18C52.0061 223.18 51.2561 222.988 50.5841 222.604C49.9241 222.208 49.3961 221.674 49.0001 221.002C48.6161 220.33 48.4241 219.58 48.4241 218.752C48.4241 217.924 48.6161 217.18 49.0001 216.52C49.3961 215.848 49.9241 215.32 50.5841 214.936C51.2561 214.552 52.0061 214.36 52.8341 214.36C53.4701 214.36 54.0641 214.48 54.6161 214.72C55.1681 214.96 55.6361 215.296 56.0201 215.728L55.1921 216.574C54.9041 216.25 54.5561 216.004 54.1481 215.836C53.7401 215.656 53.3021 215.566 52.8341 215.566C52.2341 215.566 51.7001 215.704 51.2321 215.98C50.7641 216.256 50.3981 216.634 50.1341 217.114C49.8701 217.582 49.7381 218.128 49.7381 218.752C49.7381 219.364 49.8701 219.916 50.1341 220.408C50.3981 220.888 50.7641 221.266 51.2321 221.542C51.7001 221.818 52.2341 221.956 52.8341 221.956C53.3141 221.956 53.7581 221.872 54.1661 221.704C54.5741 221.524 54.9221 221.272 55.2101 220.948L56.0561 221.794C55.6601 222.238 55.1801 222.58 54.6161 222.82C54.0641 223.06 53.4701 223.18 52.8341 223.18ZM59.0676 223V210.976H60.3276V223H59.0676ZM56.9256 215.674V214.54H62.4516V215.674H56.9256ZM64.1872 223V214.54H65.4652V223H64.1872ZM64.8172 212.704C64.5772 212.704 64.3732 212.62 64.2052 212.452C64.0372 212.272 63.9532 212.062 63.9532 211.822C63.9532 211.57 64.0372 211.36 64.2052 211.192C64.3732 211.024 64.5772 210.94 64.8172 210.94C65.0812 210.94 65.2912 211.024 65.4472 211.192C65.6152 211.36 65.6992 211.57 65.6992 211.822C65.6992 212.062 65.6152 212.272 65.4472 212.452C65.2912 212.62 65.0812 212.704 64.8172 212.704ZM71.8532 223.18C71.0372 223.18 70.2932 222.982 69.6212 222.586C68.9612 222.19 68.4332 221.656 68.0372 220.984C67.6532 220.312 67.4612 219.562 67.4612 218.734C67.4612 217.918 67.6532 217.18 68.0372 216.52C68.4332 215.86 68.9612 215.338 69.6212 214.954C70.2932 214.558 71.0372 214.36 71.8532 214.36C72.6812 214.36 73.4252 214.552 74.0852 214.936C74.7452 215.32 75.2672 215.848 75.6512 216.52C76.0472 217.18 76.2452 217.918 76.2452 218.734C76.2452 219.574 76.0472 220.33 75.6512 221.002C75.2672 221.662 74.7452 222.19 74.0852 222.586C73.4252 222.982 72.6812 223.18 71.8532 223.18ZM71.8532 221.956C72.4532 221.956 72.9812 221.818 73.4372 221.542C73.9052 221.266 74.2712 220.882 74.5352 220.39C74.8112 219.898 74.9492 219.346 74.9492 218.734C74.9492 218.122 74.8112 217.582 74.5352 217.114C74.2712 216.634 73.9052 216.256 73.4372 215.98C72.9812 215.704 72.4532 215.566 71.8532 215.566C71.2652 215.566 70.7372 215.704 70.2692 215.98C69.8012 216.256 69.4352 216.634 69.1712 217.114C68.9072 217.582 68.7752 218.122 68.7752 218.734C68.7752 219.358 68.9072 219.916 69.1712 220.408C69.4352 220.888 69.8012 221.266 70.2692 221.542C70.7372 221.818 71.2652 221.956 71.8532 221.956ZM84.4057 223V218.032C84.4057 217.288 84.1837 216.688 83.7397 216.232C83.3077 215.764 82.7317 215.53 82.0117 215.53C81.5197 215.53 81.0877 215.638 80.7157 215.854C80.3437 216.07 80.0497 216.364 79.8337 216.736C79.6177 217.108 79.5097 217.534 79.5097 218.014L78.9337 217.69C78.9337 217.054 79.0837 216.484 79.3837 215.98C79.6837 215.476 80.0857 215.08 80.5897 214.792C81.1057 214.504 81.6937 214.36 82.3537 214.36C83.0017 214.36 83.5777 214.516 84.0817 214.828C84.5857 215.14 84.9757 215.56 85.2517 216.088C85.5397 216.616 85.6837 217.192 85.6837 217.816V223H84.4057ZM78.2497 223V214.54H79.5097V223H78.2497ZM93.0599 218.032V216.862H96.7139C97.2179 216.862 97.6679 216.76 98.0639 216.556C98.4719 216.352 98.7899 216.064 99.0179 215.692C99.2579 215.308 99.3779 214.852 99.3779 214.324C99.3779 213.796 99.2579 213.346 99.0179 212.974C98.7899 212.59 98.4719 212.296 98.0639 212.092C97.6679 211.876 97.2179 211.768 96.7139 211.768H93.0599V210.616H96.8039C97.5479 210.616 98.2139 210.772 98.8019 211.084C99.3899 211.384 99.8519 211.81 100.188 212.362C100.536 212.914 100.71 213.568 100.71 214.324C100.71 215.068 100.536 215.722 100.188 216.286C99.8519 216.838 99.3899 217.27 98.8019 217.582C98.2139 217.882 97.5479 218.032 96.8039 218.032H93.0599ZM92.2139 223V210.616H93.5279V223H92.2139ZM109.015 223V218.032C109.015 217.288 108.793 216.688 108.349 216.232C107.917 215.764 107.341 215.53 106.621 215.53C106.129 215.53 105.697 215.638 105.325 215.854C104.953 216.07 104.659 216.364 104.443 216.736C104.227 217.108 104.119 217.534 104.119 218.014L103.543 217.69C103.543 217.054 103.693 216.484 103.993 215.98C104.293 215.476 104.695 215.08 105.199 214.792C105.715 214.504 106.303 214.36 106.963 214.36C107.611 214.36 108.187 214.51 108.691 214.81C109.195 215.098 109.585 215.5 109.861 216.016C110.149 216.532 110.293 217.132 110.293 217.816V223H109.015ZM102.859 223V210.256H104.119V223H102.859ZM116.322 223.18C115.518 223.18 114.798 222.988 114.162 222.604C113.526 222.208 113.022 221.68 112.65 221.02C112.29 220.36 112.11 219.616 112.11 218.788C112.11 217.948 112.29 217.198 112.65 216.538C113.022 215.866 113.526 215.338 114.162 214.954C114.798 214.558 115.512 214.36 116.304 214.36C116.952 214.36 117.528 214.492 118.032 214.756C118.548 215.008 118.962 215.368 119.274 215.836C119.598 216.292 119.796 216.826 119.868 217.438V220.084C119.796 220.696 119.598 221.236 119.274 221.704C118.962 222.172 118.548 222.538 118.032 222.802C117.528 223.054 116.958 223.18 116.322 223.18ZM116.52 221.974C117.396 221.974 118.098 221.68 118.626 221.092C119.166 220.504 119.436 219.73 119.436 218.77C119.436 218.134 119.31 217.576 119.058 217.096C118.818 216.604 118.476 216.226 118.032 215.962C117.6 215.686 117.09 215.548 116.502 215.548C115.902 215.548 115.368 215.686 114.9 215.962C114.444 216.238 114.078 216.622 113.802 217.114C113.538 217.594 113.406 218.146 113.406 218.77C113.406 219.394 113.538 219.946 113.802 220.426C114.078 220.906 114.45 221.284 114.918 221.56C115.386 221.836 115.92 221.974 116.52 221.974ZM119.364 223V220.732L119.616 218.644L119.364 216.61V214.54H120.624V223H119.364ZM125.771 223.18C125.315 223.18 124.877 223.12 124.457 223C124.037 222.868 123.653 222.688 123.305 222.46C122.969 222.232 122.675 221.962 122.423 221.65L123.233 220.822C123.569 221.23 123.947 221.536 124.367 221.74C124.799 221.932 125.279 222.028 125.807 222.028C126.371 222.028 126.809 221.92 127.121 221.704C127.445 221.488 127.607 221.188 127.607 220.804C127.607 220.444 127.493 220.162 127.265 219.958C127.037 219.754 126.743 219.592 126.383 219.472C126.035 219.352 125.663 219.238 125.267 219.13C124.871 219.01 124.493 218.866 124.133 218.698C123.773 218.518 123.479 218.272 123.251 217.96C123.035 217.648 122.927 217.24 122.927 216.736C122.927 216.256 123.041 215.842 123.269 215.494C123.509 215.134 123.845 214.858 124.277 214.666C124.721 214.462 125.243 214.36 125.843 214.36C126.479 214.36 127.055 214.474 127.571 214.702C128.087 214.93 128.501 215.266 128.813 215.71L128.003 216.52C127.751 216.196 127.433 215.95 127.049 215.782C126.677 215.602 126.257 215.512 125.789 215.512C125.249 215.512 124.835 215.62 124.547 215.836C124.271 216.04 124.133 216.31 124.133 216.646C124.133 216.97 124.247 217.228 124.475 217.42C124.703 217.6 124.991 217.75 125.339 217.87C125.699 217.978 126.077 218.092 126.473 218.212C126.869 218.32 127.247 218.47 127.607 218.662C127.967 218.842 128.255 219.094 128.471 219.418C128.699 219.73 128.813 220.156 128.813 220.696C128.813 221.452 128.537 222.058 127.985 222.514C127.445 222.958 126.707 223.18 125.771 223.18ZM134.714 223.18C133.862 223.18 133.1 222.988 132.428 222.604C131.756 222.22 131.222 221.692 130.826 221.02C130.442 220.348 130.25 219.592 130.25 218.752C130.25 217.924 130.442 217.18 130.826 216.52C131.21 215.848 131.732 215.32 132.392 214.936C133.052 214.552 133.79 214.36 134.606 214.36C135.374 214.36 136.052 214.534 136.64 214.882C137.24 215.23 137.708 215.716 138.044 216.34C138.392 216.952 138.566 217.66 138.566 218.464C138.566 218.56 138.56 218.674 138.548 218.806C138.536 218.926 138.512 219.07 138.476 219.238H131.15V218.158H137.792L137.342 218.554C137.354 217.93 137.246 217.396 137.018 216.952C136.802 216.496 136.484 216.148 136.064 215.908C135.656 215.656 135.158 215.53 134.57 215.53C133.958 215.53 133.424 215.662 132.968 215.926C132.512 216.19 132.152 216.562 131.888 217.042C131.636 217.51 131.51 218.068 131.51 218.716C131.51 219.364 131.642 219.934 131.906 220.426C132.182 220.918 132.56 221.302 133.04 221.578C133.532 221.854 134.096 221.992 134.732 221.992C135.248 221.992 135.722 221.902 136.154 221.722C136.586 221.53 136.952 221.248 137.252 220.876L138.062 221.704C137.666 222.172 137.174 222.538 136.586 222.802C136.01 223.054 135.386 223.18 134.714 223.18Z" fill="var(--fill-0, black)"/>
<path id="Vector_8" d="M4.52456 247.286C3.84056 246.698 3.25856 245.99 2.77856 245.162C2.29856 244.334 1.93256 243.428 1.68056 242.444C1.42856 241.46 1.30256 240.428 1.30256 239.348C1.30256 238.268 1.42856 237.236 1.68056 236.252C1.93256 235.268 2.29856 234.362 2.77856 233.534C3.25856 232.706 3.84056 231.998 4.52456 231.41L6.03656 232.868C5.26856 233.612 4.68056 234.53 4.27256 235.622C3.86456 236.714 3.66056 237.956 3.66056 239.348C3.66056 240.728 3.86456 241.97 4.27256 243.074C4.68056 244.166 5.26856 245.09 6.03656 245.846L4.52456 247.286ZM13.3419 245.198C12.3939 245.198 11.5119 245.036 10.6959 244.712C9.89189 244.376 9.18389 243.908 8.57189 243.308C7.97189 242.708 7.50389 242.012 7.16789 241.22C6.83189 240.416 6.66389 239.552 6.66389 238.628C6.66389 237.704 6.83189 236.846 7.16789 236.054C7.50389 235.25 7.97189 234.554 8.57189 233.966C9.17189 233.378 9.87389 232.922 10.6779 232.598C11.4939 232.262 12.3759 232.094 13.3239 232.094C14.3319 232.094 15.2259 232.256 16.0059 232.58C16.7979 232.904 17.4879 233.348 18.0759 233.912L16.1859 235.82C15.8499 235.46 15.4419 235.178 14.9619 234.974C14.4939 234.77 13.9479 234.668 13.3239 234.668C12.7719 234.668 12.2619 234.764 11.7939 234.956C11.3379 235.136 10.9419 235.4 10.6059 235.748C10.2819 236.096 10.0239 236.516 9.83189 237.008C9.65189 237.5 9.56189 238.04 9.56189 238.628C9.56189 239.228 9.65189 239.774 9.83189 240.266C10.0239 240.758 10.2819 241.178 10.6059 241.526C10.9419 241.874 11.3379 242.144 11.7939 242.336C12.2619 242.528 12.7719 242.624 13.3239 242.624C13.9719 242.624 14.5359 242.522 15.0159 242.318C15.4959 242.114 15.9099 241.832 16.2579 241.472L18.1659 243.38C17.5539 243.944 16.8519 244.388 16.0599 244.712C15.2799 245.036 14.3739 245.198 13.3419 245.198ZM23.4711 245.198C22.5711 245.198 21.7551 245 21.0231 244.604C20.3031 244.196 19.7331 243.644 19.3131 242.948C18.8931 242.252 18.6831 241.472 18.6831 240.608C18.6831 239.744 18.8931 238.97 19.3131 238.286C19.7331 237.602 20.3031 237.062 21.0231 236.666C21.7431 236.258 22.5591 236.054 23.4711 236.054C24.3831 236.054 25.1991 236.252 25.9191 236.648C26.6391 237.044 27.2091 237.59 27.6291 238.286C28.0491 238.97 28.2591 239.744 28.2591 240.608C28.2591 241.472 28.0491 242.252 27.6291 242.948C27.2091 243.644 26.6391 244.196 25.9191 244.604C25.1991 245 24.3831 245.198 23.4711 245.198ZM23.4711 242.696C23.8671 242.696 24.2151 242.612 24.5151 242.444C24.8151 242.264 25.0431 242.018 25.1991 241.706C25.3671 241.382 25.4511 241.016 25.4511 240.608C25.4511 240.2 25.3671 239.846 25.1991 239.546C25.0311 239.234 24.7971 238.994 24.4971 238.826C24.2091 238.646 23.8671 238.556 23.4711 238.556C23.0871 238.556 22.7451 238.646 22.4451 238.826C22.1451 238.994 21.9111 239.234 21.7431 239.546C21.5751 239.858 21.4911 240.218 21.4911 240.626C21.4911 241.022 21.5751 241.382 21.7431 241.706C21.9111 242.018 22.1451 242.264 22.4451 242.444C22.7451 242.612 23.0871 242.696 23.4711 242.696ZM35.4082 245V240.014C35.4082 239.558 35.2642 239.192 34.9762 238.916C34.7002 238.628 34.3462 238.484 33.9142 238.484C33.6142 238.484 33.3502 238.55 33.1222 238.682C32.8942 238.802 32.7142 238.982 32.5822 239.222C32.4502 239.45 32.3842 239.714 32.3842 240.014L31.3222 239.492C31.3222 238.808 31.4722 238.208 31.7722 237.692C32.0722 237.176 32.4862 236.78 33.0142 236.504C33.5542 236.216 34.1602 236.072 34.8322 236.072C35.4802 236.072 36.0502 236.228 36.5422 236.54C37.0462 236.84 37.4422 237.242 37.7302 237.746C38.0182 238.25 38.1622 238.802 38.1622 239.402V245H35.4082ZM29.6302 245V236.252H32.3842V245H29.6302ZM43.639 248.924C42.679 248.924 41.833 248.756 41.101 248.42C40.381 248.096 39.811 247.634 39.391 247.034L41.083 245.342C41.395 245.714 41.743 245.996 42.127 246.188C42.523 246.38 42.997 246.476 43.549 246.476C44.233 246.476 44.767 246.308 45.151 245.972C45.547 245.636 45.745 245.162 45.745 244.55V242.318L46.213 240.41L45.799 238.502V236.252H48.499V244.478C48.499 245.378 48.289 246.158 47.869 246.818C47.449 247.478 46.873 247.994 46.141 248.366C45.409 248.738 44.575 248.924 43.639 248.924ZM43.513 244.73C42.709 244.73 41.995 244.538 41.371 244.154C40.747 243.77 40.255 243.248 39.895 242.588C39.535 241.928 39.355 241.196 39.355 240.392C39.355 239.576 39.535 238.844 39.895 238.196C40.255 237.536 40.747 237.02 41.371 236.648C41.995 236.264 42.709 236.072 43.513 236.072C44.113 236.072 44.647 236.186 45.115 236.414C45.595 236.63 45.979 236.942 46.267 237.35C46.567 237.746 46.735 238.208 46.771 238.736V242.066C46.735 242.582 46.567 243.044 46.267 243.452C45.979 243.848 45.595 244.16 45.115 244.388C44.635 244.616 44.101 244.73 43.513 244.73ZM44.035 242.282C44.419 242.282 44.749 242.198 45.025 242.03C45.313 241.862 45.529 241.64 45.673 241.364C45.829 241.076 45.907 240.752 45.907 240.392C45.907 240.032 45.829 239.708 45.673 239.42C45.529 239.132 45.313 238.904 45.025 238.736C44.749 238.568 44.419 238.484 44.035 238.484C43.663 238.484 43.333 238.568 43.045 238.736C42.757 238.904 42.535 239.132 42.379 239.42C42.223 239.708 42.145 240.032 42.145 240.392C42.145 240.728 42.223 241.046 42.379 241.346C42.535 241.634 42.751 241.862 43.027 242.03C43.315 242.198 43.651 242.282 44.035 242.282ZM50.4427 245V236.252H53.1967V245H50.4427ZM53.1967 240.194L52.0447 239.294C52.2727 238.274 52.6567 237.482 53.1967 236.918C53.7367 236.354 54.4867 236.072 55.4467 236.072C55.8667 236.072 56.2327 236.138 56.5447 236.27C56.8687 236.39 57.1507 236.582 57.3907 236.846L55.7527 238.916C55.6327 238.784 55.4827 238.682 55.3027 238.61C55.1227 238.538 54.9187 238.502 54.6907 238.502C54.2347 238.502 53.8687 238.646 53.5927 238.934C53.3287 239.21 53.1967 239.63 53.1967 240.194ZM61.5322 245.18C60.7283 245.18 60.0083 244.982 59.3723 244.586C58.7483 244.19 58.2503 243.65 57.8783 242.966C57.5183 242.282 57.3383 241.502 57.3383 240.626C57.3383 239.75 57.5183 238.97 57.8783 238.286C58.2503 237.602 58.7483 237.062 59.3723 236.666C60.0083 236.27 60.7283 236.072 61.5322 236.072C62.1203 236.072 62.6483 236.186 63.1163 236.414C63.5963 236.642 63.9863 236.96 64.2863 237.368C64.5863 237.764 64.7543 238.22 64.7903 238.736V242.516C64.7543 243.032 64.5863 243.494 64.2863 243.902C63.9983 244.298 63.6143 244.61 63.1343 244.838C62.6543 245.066 62.1203 245.18 61.5322 245.18ZM62.0903 242.696C62.6783 242.696 63.1523 242.504 63.5123 242.12C63.8723 241.724 64.0523 241.226 64.0523 240.626C64.0523 240.218 63.9683 239.858 63.8003 239.546C63.6443 239.234 63.4163 238.994 63.1163 238.826C62.8283 238.646 62.4923 238.556 62.1083 238.556C61.7243 238.556 61.3823 238.646 61.0823 238.826C60.7943 238.994 60.5603 239.234 60.3803 239.546C60.2123 239.858 60.1283 240.218 60.1283 240.626C60.1283 241.022 60.2123 241.376 60.3803 241.688C60.5483 242 60.7823 242.246 61.0823 242.426C61.3823 242.606 61.7183 242.696 62.0903 242.696ZM63.9443 245V242.642L64.3583 240.518L63.9443 238.394V236.252H66.6443V245H63.9443ZM69.8253 245V232.634H72.5793V245H69.8253ZM67.8453 238.592V236.252H74.5593V238.592H67.8453ZM79.6608 245.198C78.8568 245.198 78.1428 245.036 77.5188 244.712C76.9068 244.376 76.4268 243.92 76.0788 243.344C75.7308 242.756 75.5568 242.084 75.5568 241.328V236.252H78.3108V241.292C78.3108 241.592 78.3588 241.85 78.4548 242.066C78.5628 242.282 78.7188 242.45 78.9228 242.57C79.1268 242.69 79.3728 242.75 79.6608 242.75C80.0688 242.75 80.3928 242.624 80.6328 242.372C80.8728 242.108 80.9928 241.748 80.9928 241.292V236.252H83.7468V241.31C83.7468 242.078 83.5728 242.756 83.2248 243.344C82.8768 243.92 82.3968 244.376 81.7848 244.712C81.1728 245.036 80.4648 245.198 79.6608 245.198ZM85.4759 245V231.932H88.2299V245H85.4759ZM93.8233 245.18C93.0193 245.18 92.2993 244.982 91.6633 244.586C91.0393 244.19 90.5413 243.65 90.1693 242.966C89.8093 242.282 89.6293 241.502 89.6293 240.626C89.6293 239.75 89.8093 238.97 90.1693 238.286C90.5413 237.602 91.0393 237.062 91.6633 236.666C92.2993 236.27 93.0193 236.072 93.8233 236.072C94.4113 236.072 94.9393 236.186 95.4073 236.414C95.8873 236.642 96.2773 236.96 96.5773 237.368C96.8773 237.764 97.0453 238.22 97.0813 238.736V242.516C97.0453 243.032 96.8773 243.494 96.5773 243.902C96.2893 244.298 95.9053 244.61 95.4253 244.838C94.9453 245.066 94.4113 245.18 93.8233 245.18ZM94.3813 242.696C94.9693 242.696 95.4433 242.504 95.8033 242.12C96.1633 241.724 96.3433 241.226 96.3433 240.626C96.3433 240.218 96.2593 239.858 96.0913 239.546C95.9353 239.234 95.7073 238.994 95.4073 238.826C95.1193 238.646 94.7833 238.556 94.3993 238.556C94.0153 238.556 93.6733 238.646 93.3733 238.826C93.0853 238.994 92.8513 239.234 92.6713 239.546C92.5033 239.858 92.4193 240.218 92.4193 240.626C92.4193 241.022 92.5033 241.376 92.6713 241.688C92.8393 242 93.0733 242.246 93.3733 242.426C93.6733 242.606 94.0093 242.696 94.3813 242.696ZM96.2353 245V242.642L96.6493 240.518L96.2353 238.394V236.252H98.9353V245H96.2353ZM102.116 245V232.634H104.87V245H102.116ZM100.136 238.592V236.252H106.85V238.592H100.136ZM108.064 245V236.252H110.818V245H108.064ZM109.45 235.046C109.018 235.046 108.658 234.902 108.37 234.614C108.094 234.314 107.956 233.954 107.956 233.534C107.956 233.102 108.094 232.742 108.37 232.454C108.658 232.166 109.018 232.022 109.45 232.022C109.882 232.022 110.236 232.166 110.512 232.454C110.788 232.742 110.926 233.102 110.926 233.534C110.926 233.954 110.788 234.314 110.512 234.614C110.236 234.902 109.882 235.046 109.45 235.046ZM116.969 245.198C116.069 245.198 115.253 245 114.521 244.604C113.801 244.196 113.231 243.644 112.811 242.948C112.391 242.252 112.181 241.472 112.181 240.608C112.181 239.744 112.391 238.97 112.811 238.286C113.231 237.602 113.801 237.062 114.521 236.666C115.241 236.258 116.057 236.054 116.969 236.054C117.881 236.054 118.697 236.252 119.417 236.648C120.137 237.044 120.707 237.59 121.127 238.286C121.547 238.97 121.757 239.744 121.757 240.608C121.757 241.472 121.547 242.252 121.127 242.948C120.707 243.644 120.137 244.196 119.417 244.604C118.697 245 117.881 245.198 116.969 245.198ZM116.969 242.696C117.365 242.696 117.713 242.612 118.013 242.444C118.313 242.264 118.541 242.018 118.697 241.706C118.865 241.382 118.949 241.016 118.949 240.608C118.949 240.2 118.865 239.846 118.697 239.546C118.529 239.234 118.295 238.994 117.995 238.826C117.707 238.646 117.365 238.556 116.969 238.556C116.585 238.556 116.243 238.646 115.943 238.826C115.643 238.994 115.409 239.234 115.241 239.546C115.073 239.858 114.989 240.218 114.989 240.626C114.989 241.022 115.073 241.382 115.241 241.706C115.409 242.018 115.643 242.264 115.943 242.444C116.243 242.612 116.585 242.696 116.969 242.696ZM128.906 245V240.014C128.906 239.558 128.762 239.192 128.474 238.916C128.198 238.628 127.844 238.484 127.412 238.484C127.112 238.484 126.848 238.55 126.62 238.682C126.392 238.802 126.212 238.982 126.08 239.222C125.948 239.45 125.882 239.714 125.882 240.014L124.82 239.492C124.82 238.808 124.97 238.208 125.27 237.692C125.57 237.176 125.984 236.78 126.512 236.504C127.052 236.216 127.658 236.072 128.33 236.072C128.978 236.072 129.548 236.228 130.04 236.54C130.544 236.84 130.94 237.242 131.228 237.746C131.516 238.25 131.66 238.802 131.66 239.402V245H128.906ZM123.128 245V236.252H125.882V245H123.128ZM136.615 245.216C136.099 245.216 135.589 245.15 135.085 245.018C134.593 244.886 134.131 244.7 133.699 244.46C133.279 244.208 132.919 243.92 132.619 243.596L134.185 242.012C134.473 242.324 134.815 242.57 135.211 242.75C135.607 242.918 136.039 243.002 136.507 243.002C136.831 243.002 137.077 242.954 137.245 242.858C137.425 242.762 137.515 242.63 137.515 242.462C137.515 242.246 137.407 242.084 137.191 241.976C136.987 241.856 136.723 241.754 136.399 241.67C136.075 241.574 135.733 241.472 135.373 241.364C135.013 241.256 134.671 241.106 134.347 240.914C134.023 240.722 133.759 240.458 133.555 240.122C133.351 239.774 133.249 239.336 133.249 238.808C133.249 238.244 133.393 237.758 133.681 237.35C133.969 236.93 134.377 236.6 134.905 236.36C135.433 236.12 136.051 236 136.759 236C137.503 236 138.187 236.132 138.811 236.396C139.447 236.648 139.963 237.026 140.359 237.53L138.793 239.114C138.517 238.79 138.205 238.562 137.857 238.43C137.521 238.298 137.191 238.232 136.867 238.232C136.555 238.232 136.321 238.28 136.165 238.376C136.009 238.46 135.931 238.586 135.931 238.754C135.931 238.934 136.033 239.078 136.237 239.186C136.441 239.294 136.705 239.39 137.029 239.474C137.353 239.558 137.695 239.66 138.055 239.78C138.415 239.9 138.757 240.062 139.081 240.266C139.405 240.47 139.669 240.746 139.873 241.094C140.077 241.43 140.179 241.874 140.179 242.426C140.179 243.278 139.855 243.956 139.207 244.46C138.571 244.964 137.707 245.216 136.615 245.216ZM142.483 247.286L140.971 245.846C141.739 245.09 142.327 244.166 142.735 243.074C143.143 241.97 143.347 240.728 143.347 239.348C143.347 237.956 143.143 236.714 142.735 235.622C142.327 234.53 141.739 233.612 140.971 232.868L142.483 231.41C143.167 231.998 143.749 232.706 144.229 233.534C144.709 234.362 145.075 235.268 145.327 236.252C145.579 237.236 145.705 238.268 145.705 239.348C145.705 240.428 145.579 241.46 145.327 242.444C145.075 243.428 144.709 244.334 144.229 245.162C143.749 245.99 143.167 246.698 142.483 247.286Z" fill="var(--fill-0, #8A38F5)"/>
<path id="Vector_9" d="M275 89.25C276.243 89.25 277.25 88.2426 277.25 87V66.75C277.25 65.5074 276.243 64.5 275 64.5C273.757 64.5 272.75 65.5074 272.75 66.75V84.75H254.75C253.507 84.75 252.5 85.7574 252.5 87C252.5 88.2426 253.507 89.25 254.75 89.25H275ZM264 76L262.409 77.591L273.409 88.591L275 87L276.591 85.409L265.591 74.409L264 76Z" fill="var(--fill-0, #854DFF)"/>
<path id="Vector_10" d="M216.243 231.594C215.467 232.565 215.624 233.981 216.595 234.757L232.407 247.407C233.378 248.183 234.794 248.026 235.57 247.056C236.346 246.085 236.189 244.669 235.218 243.893L221.163 232.649L232.407 218.593C233.184 217.623 233.026 216.207 232.056 215.43C231.086 214.654 229.67 214.811 228.893 215.782L216.243 231.594ZM236 231L235.752 228.764L217.752 230.764L218 233L218.249 235.236L236.248 233.236L236 231Z" fill="var(--fill-0, #854DFF)"/>
<path id="Vector_11" d="M129.229 111.418C128.907 110.217 127.673 109.505 126.473 109.827L106.913 115.068C105.713 115.389 105 116.623 105.322 117.823C105.644 119.024 106.877 119.736 108.078 119.414L125.464 114.756L130.123 132.142C130.445 133.343 131.678 134.055 132.879 133.733C134.079 133.412 134.791 132.178 134.47 130.978L129.229 111.418ZM118 127.684L119.949 128.809L129.004 113.125L127.055 112L125.107 110.875L116.051 126.559L118 127.684Z" fill="var(--fill-0, #854DFF)"/>
</g>
</svg>
