<svg preserveAspectRatio="none" width="100%" height="100%" overflow="visible" style="display: block;" viewBox="0 0 425 249" fill="none" xmlns="http://www.w3.org/2000/svg">
<g id="Frame">
<path id="Vector" d="M209.75 234.5C259.041 234.5 299 194.541 299 145.25C299 95.9586 259.041 56 209.75 56C160.459 56 120.5 95.9586 120.5 145.25C120.5 194.541 160.459 234.5 209.75 234.5Z" stroke="var(--stroke-0, #854DFF)" stroke-width="8"/>
<path id="Vector_2" d="M126 89L205.25 151.25M205.25 151.25L301.812 89M205.25 151.25V195V248.5" stroke="var(--stroke-0, white)" stroke-width="40"/>
<path id="Vector_3" d="M160.545 18V5.616H161.859V18H160.545ZM161.409 12.402V11.196H168.051V12.402H161.409ZM161.409 6.822V5.616H168.357V6.822H161.409ZM173.899 18.18C173.083 18.18 172.339 17.982 171.667 17.586C171.007 17.19 170.479 16.656 170.083 15.984C169.699 15.312 169.507 14.562 169.507 13.734C169.507 12.918 169.699 12.18 170.083 11.52C170.479 10.86 171.007 10.338 171.667 9.954C172.339 9.558 173.083 9.36 173.899 9.36C174.727 9.36 175.471 9.552 176.131 9.936C176.791 10.32 177.313 10.848 177.697 11.52C178.093 12.18 178.291 12.918 178.291 13.734C178.291 14.574 178.093 15.33 177.697 16.002C177.313 16.662 176.791 17.19 176.131 17.586C175.471 17.982 174.727 18.18 173.899 18.18ZM173.899 16.956C174.499 16.956 175.027 16.818 175.483 16.542C175.951 16.266 176.317 15.882 176.581 15.39C176.857 14.898 176.995 14.346 176.995 13.734C176.995 13.122 176.857 12.582 176.581 12.114C176.317 11.634 175.951 11.256 175.483 10.98C175.027 10.704 174.499 10.566 173.899 10.566C173.311 10.566 172.783 10.704 172.315 10.98C171.847 11.256 171.481 11.634 171.217 12.114C170.953 12.582 170.821 13.122 170.821 13.734C170.821 14.358 170.953 14.916 171.217 15.408C171.481 15.888 171.847 16.266 172.315 16.542C172.783 16.818 173.311 16.956 173.899 16.956ZM180.296 18V9.54H181.556V18H180.296ZM181.556 13.068L181.034 12.834C181.034 11.766 181.292 10.92 181.808 10.296C182.336 9.672 183.056 9.36 183.968 9.36C184.388 9.36 184.772 9.438 185.12 9.594C185.468 9.738 185.792 9.972 186.092 10.296L185.264 11.178C185.06 10.95 184.832 10.788 184.58 10.692C184.34 10.596 184.064 10.548 183.752 10.548C183.104 10.548 182.576 10.764 182.168 11.196C181.76 11.616 181.556 12.24 181.556 13.068ZM191.039 18.18C190.187 18.18 189.425 17.988 188.753 17.604C188.081 17.22 187.547 16.692 187.151 16.02C186.767 15.348 186.575 14.592 186.575 13.752C186.575 12.924 186.767 12.18 187.151 11.52C187.535 10.848 188.057 10.32 188.717 9.936C189.377 9.552 190.115 9.36 190.931 9.36C191.699 9.36 192.377 9.534 192.965 9.882C193.565 10.23 194.033 10.716 194.369 11.34C194.717 11.952 194.891 12.66 194.891 13.464C194.891 13.56 194.885 13.674 194.873 13.806C194.861 13.926 194.837 14.07 194.801 14.238H187.475V13.158H194.117L193.667 13.554C193.679 12.93 193.571 12.396 193.343 11.952C193.127 11.496 192.809 11.148 192.389 10.908C191.981 10.656 191.483 10.53 190.895 10.53C190.283 10.53 189.749 10.662 189.293 10.926C188.837 11.19 188.477 11.562 188.213 12.042C187.961 12.51 187.835 13.068 187.835 13.716C187.835 14.364 187.967 14.934 188.231 15.426C188.507 15.918 188.885 16.302 189.365 16.578C189.857 16.854 190.421 16.992 191.057 16.992C191.573 16.992 192.047 16.902 192.479 16.722C192.911 16.53 193.277 16.248 193.577 15.876L194.387 16.704C193.991 17.172 193.499 17.538 192.911 17.802C192.335 18.054 191.711 18.18 191.039 18.18ZM197.817 18V5.976H199.077V18H197.817ZM195.675 10.674V9.54H201.201V10.674H195.675ZM209.092 18V13.032C209.092 12.288 208.87 11.688 208.426 11.232C207.994 10.764 207.418 10.53 206.698 10.53C206.206 10.53 205.774 10.638 205.402 10.854C205.03 11.07 204.736 11.364 204.52 11.736C204.304 12.108 204.196 12.534 204.196 13.014L203.62 12.69C203.62 12.054 203.77 11.484 204.07 10.98C204.37 10.476 204.772 10.08 205.276 9.792C205.792 9.504 206.38 9.36 207.04 9.36C207.688 9.36 208.264 9.51 208.768 9.81C209.272 10.098 209.662 10.5 209.938 11.016C210.226 11.532 210.37 12.132 210.37 12.816V18H209.092ZM202.936 18V5.256H204.196V18H202.936ZM216.561 18.18C215.745 18.18 215.001 17.982 214.329 17.586C213.669 17.19 213.141 16.656 212.745 15.984C212.361 15.312 212.169 14.562 212.169 13.734C212.169 12.918 212.361 12.18 212.745 11.52C213.141 10.86 213.669 10.338 214.329 9.954C215.001 9.558 215.745 9.36 216.561 9.36C217.389 9.36 218.133 9.552 218.793 9.936C219.453 10.32 219.975 10.848 220.359 11.52C220.755 12.18 220.953 12.918 220.953 13.734C220.953 14.574 220.755 15.33 220.359 16.002C219.975 16.662 219.453 17.19 218.793 17.586C218.133 17.982 217.389 18.18 216.561 18.18ZM216.561 16.956C217.161 16.956 217.689 16.818 218.145 16.542C218.613 16.266 218.979 15.882 219.243 15.39C219.519 14.898 219.657 14.346 219.657 13.734C219.657 13.122 219.519 12.582 219.243 12.114C218.979 11.634 218.613 11.256 218.145 10.98C217.689 10.704 217.161 10.566 216.561 10.566C215.973 10.566 215.445 10.704 214.977 10.98C214.509 11.256 214.143 11.634 213.879 12.114C213.615 12.582 213.483 13.122 213.483 13.734C213.483 14.358 213.615 14.916 213.879 15.408C214.143 15.888 214.509 16.266 214.977 16.542C215.445 16.818 215.973 16.956 216.561 16.956ZM226.306 18.18C225.622 18.18 225.01 18.024 224.47 17.712C223.93 17.388 223.504 16.95 223.192 16.398C222.892 15.846 222.742 15.198 222.742 14.454V9.54H224.02V14.4C224.02 14.916 224.11 15.366 224.29 15.75C224.482 16.134 224.752 16.434 225.1 16.65C225.448 16.866 225.85 16.974 226.306 16.974C227.014 16.974 227.572 16.74 227.98 16.272C228.4 15.804 228.61 15.18 228.61 14.4V9.54H229.87V14.454C229.87 15.186 229.72 15.834 229.42 16.398C229.12 16.962 228.7 17.4 228.16 17.712C227.62 18.024 227.002 18.18 226.306 18.18ZM235.713 21.744C234.861 21.744 234.099 21.582 233.427 21.258C232.767 20.946 232.233 20.502 231.825 19.926L232.653 19.098C232.989 19.554 233.415 19.908 233.931 20.16C234.447 20.412 235.053 20.538 235.749 20.538C236.709 20.538 237.471 20.28 238.035 19.764C238.611 19.248 238.899 18.546 238.899 17.658V15.552L239.151 13.626L238.899 11.718V9.54H240.159V17.658C240.159 18.474 239.973 19.188 239.601 19.8C239.229 20.412 238.707 20.886 238.035 21.222C237.375 21.57 236.601 21.744 235.713 21.744ZM235.803 17.91C235.023 17.91 234.321 17.724 233.697 17.352C233.073 16.98 232.581 16.47 232.221 15.822C231.861 15.174 231.681 14.442 231.681 13.626C231.681 12.81 231.855 12.084 232.203 11.448C232.563 10.8 233.055 10.29 233.679 9.918C234.303 9.546 235.005 9.36 235.785 9.36C236.445 9.36 237.033 9.486 237.549 9.738C238.077 9.99 238.497 10.35 238.809 10.818C239.133 11.274 239.331 11.814 239.403 12.438V14.832C239.331 15.444 239.133 15.984 238.809 16.452C238.485 16.908 238.065 17.268 237.549 17.532C237.033 17.784 236.451 17.91 235.803 17.91ZM236.037 16.704C236.625 16.704 237.135 16.578 237.567 16.326C238.011 16.074 238.353 15.72 238.593 15.264C238.845 14.796 238.971 14.25 238.971 13.626C238.971 13.014 238.845 12.48 238.593 12.024C238.353 11.568 238.011 11.208 237.567 10.944C237.123 10.68 236.607 10.548 236.019 10.548C235.431 10.548 234.903 10.68 234.435 10.944C233.979 11.208 233.619 11.568 233.355 12.024C233.103 12.48 232.977 13.014 232.977 13.626C232.977 14.226 233.109 14.76 233.373 15.228C233.637 15.696 233.997 16.062 234.453 16.326C234.909 16.578 235.437 16.704 236.037 16.704ZM248.854 18V13.032C248.854 12.288 248.632 11.688 248.188 11.232C247.756 10.764 247.18 10.53 246.46 10.53C245.968 10.53 245.536 10.638 245.164 10.854C244.792 11.07 244.498 11.364 244.282 11.736C244.066 12.108 243.958 12.534 243.958 13.014L243.382 12.69C243.382 12.054 243.532 11.484 243.832 10.98C244.132 10.476 244.534 10.08 245.038 9.792C245.554 9.504 246.142 9.36 246.802 9.36C247.45 9.36 248.026 9.51 248.53 9.81C249.034 10.098 249.424 10.5 249.7 11.016C249.988 11.532 250.132 12.132 250.132 12.816V18H248.854ZM242.698 18V5.256H243.958V18H242.698ZM253.697 18V5.976H254.957V18H253.697ZM251.555 10.674V9.54H257.081V10.674H251.555ZM186.387 35.032V33.862H190.041C190.545 33.862 190.995 33.76 191.391 33.556C191.799 33.352 192.117 33.064 192.345 32.692C192.585 32.308 192.705 31.852 192.705 31.324C192.705 30.796 192.585 30.346 192.345 29.974C192.117 29.59 191.799 29.296 191.391 29.092C190.995 28.876 190.545 28.768 190.041 28.768H186.387V27.616H190.131C190.875 27.616 191.541 27.772 192.129 28.084C192.717 28.384 193.179 28.81 193.515 29.362C193.863 29.914 194.037 30.568 194.037 31.324C194.037 32.068 193.863 32.722 193.515 33.286C193.179 33.838 192.717 34.27 192.129 34.582C191.541 34.882 190.875 35.032 190.131 35.032H186.387ZM185.541 40V27.616H186.855V40H185.541ZM202.342 40V35.032C202.342 34.288 202.12 33.688 201.676 33.232C201.244 32.764 200.668 32.53 199.948 32.53C199.456 32.53 199.024 32.638 198.652 32.854C198.28 33.07 197.986 33.364 197.77 33.736C197.554 34.108 197.446 34.534 197.446 35.014L196.87 34.69C196.87 34.054 197.02 33.484 197.32 32.98C197.62 32.476 198.022 32.08 198.526 31.792C199.042 31.504 199.63 31.36 200.29 31.36C200.938 31.36 201.514 31.51 202.018 31.81C202.522 32.098 202.912 32.5 203.188 33.016C203.476 33.532 203.62 34.132 203.62 34.816V40H202.342ZM196.186 40V27.256H197.446V40H196.186ZM209.649 40.18C208.845 40.18 208.125 39.988 207.489 39.604C206.853 39.208 206.349 38.68 205.977 38.02C205.617 37.36 205.437 36.616 205.437 35.788C205.437 34.948 205.617 34.198 205.977 33.538C206.349 32.866 206.853 32.338 207.489 31.954C208.125 31.558 208.839 31.36 209.631 31.36C210.279 31.36 210.855 31.492 211.359 31.756C211.875 32.008 212.289 32.368 212.601 32.836C212.925 33.292 213.123 33.826 213.195 34.438V37.084C213.123 37.696 212.925 38.236 212.601 38.704C212.289 39.172 211.875 39.538 211.359 39.802C210.855 40.054 210.285 40.18 209.649 40.18ZM209.847 38.974C210.723 38.974 211.425 38.68 211.953 38.092C212.493 37.504 212.763 36.73 212.763 35.77C212.763 35.134 212.637 34.576 212.385 34.096C212.145 33.604 211.803 33.226 211.359 32.962C210.927 32.686 210.417 32.548 209.829 32.548C209.229 32.548 208.695 32.686 208.227 32.962C207.771 33.238 207.405 33.622 207.129 34.114C206.865 34.594 206.733 35.146 206.733 35.77C206.733 36.394 206.865 36.946 207.129 37.426C207.405 37.906 207.777 38.284 208.245 38.56C208.713 38.836 209.247 38.974 209.847 38.974ZM212.691 40V37.732L212.943 35.644L212.691 33.61V31.54H213.951V40H212.691ZM219.099 40.18C218.643 40.18 218.205 40.12 217.785 40C217.365 39.868 216.981 39.688 216.633 39.46C216.297 39.232 216.003 38.962 215.751 38.65L216.561 37.822C216.897 38.23 217.275 38.536 217.695 38.74C218.127 38.932 218.607 39.028 219.135 39.028C219.699 39.028 220.137 38.92 220.449 38.704C220.773 38.488 220.935 38.188 220.935 37.804C220.935 37.444 220.821 37.162 220.593 36.958C220.365 36.754 220.071 36.592 219.711 36.472C219.363 36.352 218.991 36.238 218.595 36.13C218.199 36.01 217.821 35.866 217.461 35.698C217.101 35.518 216.807 35.272 216.579 34.96C216.363 34.648 216.255 34.24 216.255 33.736C216.255 33.256 216.369 32.842 216.597 32.494C216.837 32.134 217.173 31.858 217.605 31.666C218.049 31.462 218.571 31.36 219.171 31.36C219.807 31.36 220.383 31.474 220.899 31.702C221.415 31.93 221.829 32.266 222.141 32.71L221.331 33.52C221.079 33.196 220.761 32.95 220.377 32.782C220.005 32.602 219.585 32.512 219.117 32.512C218.577 32.512 218.163 32.62 217.875 32.836C217.599 33.04 217.461 33.31 217.461 33.646C217.461 33.97 217.575 34.228 217.803 34.42C218.031 34.6 218.319 34.75 218.667 34.87C219.027 34.978 219.405 35.092 219.801 35.212C220.197 35.32 220.575 35.47 220.935 35.662C221.295 35.842 221.583 36.094 221.799 36.418C222.027 36.73 222.141 37.156 222.141 37.696C222.141 38.452 221.865 39.058 221.313 39.514C220.773 39.958 220.035 40.18 219.099 40.18ZM228.041 40.18C227.189 40.18 226.427 39.988 225.755 39.604C225.083 39.22 224.549 38.692 224.153 38.02C223.769 37.348 223.577 36.592 223.577 35.752C223.577 34.924 223.769 34.18 224.153 33.52C224.537 32.848 225.059 32.32 225.719 31.936C226.379 31.552 227.117 31.36 227.933 31.36C228.701 31.36 229.379 31.534 229.967 31.882C230.567 32.23 231.035 32.716 231.371 33.34C231.719 33.952 231.893 34.66 231.893 35.464C231.893 35.56 231.887 35.674 231.875 35.806C231.863 35.926 231.839 36.07 231.803 36.238H224.477V35.158H231.119L230.669 35.554C230.681 34.93 230.573 34.396 230.345 33.952C230.129 33.496 229.811 33.148 229.391 32.908C228.983 32.656 228.485 32.53 227.897 32.53C227.285 32.53 226.751 32.662 226.295 32.926C225.839 33.19 225.479 33.562 225.215 34.042C224.963 34.51 224.837 35.068 224.837 35.716C224.837 36.364 224.969 36.934 225.233 37.426C225.509 37.918 225.887 38.302 226.367 38.578C226.859 38.854 227.423 38.992 228.059 38.992C228.575 38.992 229.049 38.902 229.481 38.722C229.913 38.53 230.279 38.248 230.579 37.876L231.389 38.704C230.993 39.172 230.501 39.538 229.913 39.802C229.337 40.054 228.713 40.18 228.041 40.18Z" fill="var(--fill-0, black)"/>
<path id="Vector_4" d="M304.639 207.532V206.362H308.293C308.797 206.362 309.247 206.26 309.643 206.056C310.051 205.852 310.369 205.564 310.597 205.192C310.837 204.808 310.957 204.352 310.957 203.824C310.957 203.296 310.837 202.846 310.597 202.474C310.369 202.09 310.051 201.796 309.643 201.592C309.247 201.376 308.797 201.268 308.293 201.268H304.639V200.116H308.383C309.127 200.116 309.793 200.272 310.381 200.584C310.969 200.884 311.431 201.31 311.767 201.862C312.115 202.414 312.289 203.068 312.289 203.824C312.289 204.568 312.115 205.222 311.767 205.786C311.431 206.338 310.969 206.77 310.381 207.082C309.793 207.382 309.127 207.532 308.383 207.532H304.639ZM303.793 212.5V200.116H305.107V212.5H303.793ZM317.799 212.68C316.947 212.68 316.185 212.488 315.513 212.104C314.841 211.72 314.307 211.192 313.911 210.52C313.527 209.848 313.335 209.092 313.335 208.252C313.335 207.424 313.527 206.68 313.911 206.02C314.295 205.348 314.817 204.82 315.477 204.436C316.137 204.052 316.875 203.86 317.691 203.86C318.459 203.86 319.137 204.034 319.725 204.382C320.325 204.73 320.793 205.216 321.129 205.84C321.477 206.452 321.651 207.16 321.651 207.964C321.651 208.06 321.645 208.174 321.633 208.306C321.621 208.426 321.597 208.57 321.561 208.738H314.235V207.658H320.877L320.427 208.054C320.439 207.43 320.331 206.896 320.103 206.452C319.887 205.996 319.569 205.648 319.149 205.408C318.741 205.156 318.243 205.03 317.655 205.03C317.043 205.03 316.509 205.162 316.053 205.426C315.597 205.69 315.237 206.062 314.973 206.542C314.721 207.01 314.595 207.568 314.595 208.216C314.595 208.864 314.727 209.434 314.991 209.926C315.267 210.418 315.645 210.802 316.125 211.078C316.617 211.354 317.181 211.492 317.817 211.492C318.333 211.492 318.807 211.402 319.239 211.222C319.671 211.03 320.037 210.748 320.337 210.376L321.147 211.204C320.751 211.672 320.259 212.038 319.671 212.302C319.095 212.554 318.471 212.68 317.799 212.68ZM323.579 212.5V204.04H324.839V212.5H323.579ZM324.839 207.568L324.317 207.334C324.317 206.266 324.575 205.42 325.091 204.796C325.619 204.172 326.339 203.86 327.251 203.86C327.671 203.86 328.055 203.938 328.403 204.094C328.751 204.238 329.075 204.472 329.375 204.796L328.547 205.678C328.343 205.45 328.115 205.288 327.863 205.192C327.623 205.096 327.347 205.048 327.035 205.048C326.387 205.048 325.859 205.264 325.451 205.696C325.043 206.116 324.839 206.74 324.839 207.568ZM331.87 212.5V202.6C331.87 202.012 331.996 201.49 332.248 201.034C332.512 200.578 332.872 200.224 333.328 199.972C333.796 199.708 334.324 199.576 334.912 199.576C335.368 199.576 335.77 199.66 336.118 199.828C336.466 199.984 336.784 200.206 337.072 200.494L336.244 201.322C336.052 201.13 335.848 200.992 335.632 200.908C335.428 200.812 335.188 200.764 334.912 200.764C334.348 200.764 333.91 200.932 333.598 201.268C333.298 201.592 333.148 202.048 333.148 202.636V212.5H331.87ZM329.746 205.174V204.04H335.974V205.174H329.746ZM341.001 212.68C340.185 212.68 339.441 212.482 338.769 212.086C338.109 211.69 337.581 211.156 337.185 210.484C336.801 209.812 336.609 209.062 336.609 208.234C336.609 207.418 336.801 206.68 337.185 206.02C337.581 205.36 338.109 204.838 338.769 204.454C339.441 204.058 340.185 203.86 341.001 203.86C341.829 203.86 342.573 204.052 343.233 204.436C343.893 204.82 344.415 205.348 344.799 206.02C345.195 206.68 345.393 207.418 345.393 208.234C345.393 209.074 345.195 209.83 344.799 210.502C344.415 211.162 343.893 211.69 343.233 212.086C342.573 212.482 341.829 212.68 341.001 212.68ZM341.001 211.456C341.601 211.456 342.129 211.318 342.585 211.042C343.053 210.766 343.419 210.382 343.683 209.89C343.959 209.398 344.097 208.846 344.097 208.234C344.097 207.622 343.959 207.082 343.683 206.614C343.419 206.134 343.053 205.756 342.585 205.48C342.129 205.204 341.601 205.066 341.001 205.066C340.413 205.066 339.885 205.204 339.417 205.48C338.949 205.756 338.583 206.134 338.319 206.614C338.055 207.082 337.923 207.622 337.923 208.234C337.923 208.858 338.055 209.416 338.319 209.908C338.583 210.388 338.949 210.766 339.417 211.042C339.885 211.318 340.413 211.456 341.001 211.456ZM347.397 212.5V204.04H348.657V212.5H347.397ZM348.657 207.568L348.135 207.334C348.135 206.266 348.393 205.42 348.909 204.796C349.437 204.172 350.157 203.86 351.069 203.86C351.489 203.86 351.873 203.938 352.221 204.094C352.569 204.238 352.893 204.472 353.193 204.796L352.365 205.678C352.161 205.45 351.933 205.288 351.681 205.192C351.441 205.096 351.165 205.048 350.853 205.048C350.205 205.048 349.677 205.264 349.269 205.696C348.861 206.116 348.657 206.74 348.657 207.568ZM354.604 212.5V204.04H355.864V212.5H354.604ZM360.418 212.5V207.316C360.418 206.62 360.208 206.068 359.788 205.66C359.368 205.24 358.84 205.03 358.204 205.03C357.772 205.03 357.376 205.126 357.016 205.318C356.668 205.498 356.386 205.756 356.17 206.092C355.966 206.428 355.864 206.83 355.864 207.298L355.288 207.064C355.288 206.416 355.432 205.852 355.72 205.372C356.008 204.892 356.392 204.52 356.872 204.256C357.364 203.992 357.916 203.86 358.528 203.86C359.128 203.86 359.662 203.992 360.13 204.256C360.61 204.52 360.988 204.892 361.264 205.372C361.552 205.852 361.696 206.422 361.696 207.082V212.5H360.418ZM366.25 212.5V207.316C366.25 206.62 366.04 206.068 365.62 205.66C365.2 205.24 364.666 205.03 364.018 205.03C363.598 205.03 363.208 205.126 362.848 205.318C362.5 205.498 362.218 205.756 362.002 206.092C361.798 206.428 361.696 206.83 361.696 207.298L360.94 207.064C360.976 206.416 361.144 205.852 361.444 205.372C361.756 204.892 362.158 204.52 362.65 204.256C363.154 203.992 363.706 203.86 364.306 203.86C364.906 203.86 365.446 203.992 365.926 204.256C366.418 204.52 366.802 204.892 367.078 205.372C367.366 205.852 367.51 206.422 367.51 207.082V212.5H366.25ZM373.552 212.68C372.748 212.68 372.028 212.488 371.392 212.104C370.756 211.708 370.252 211.18 369.88 210.52C369.52 209.86 369.34 209.116 369.34 208.288C369.34 207.448 369.52 206.698 369.88 206.038C370.252 205.366 370.756 204.838 371.392 204.454C372.028 204.058 372.742 203.86 373.534 203.86C374.182 203.86 374.758 203.992 375.262 204.256C375.778 204.508 376.192 204.868 376.504 205.336C376.828 205.792 377.026 206.326 377.098 206.938V209.584C377.026 210.196 376.828 210.736 376.504 211.204C376.192 211.672 375.778 212.038 375.262 212.302C374.758 212.554 374.188 212.68 373.552 212.68ZM373.75 211.474C374.626 211.474 375.328 211.18 375.856 210.592C376.396 210.004 376.666 209.23 376.666 208.27C376.666 207.634 376.54 207.076 376.288 206.596C376.048 206.104 375.706 205.726 375.262 205.462C374.83 205.186 374.32 205.048 373.732 205.048C373.132 205.048 372.598 205.186 372.13 205.462C371.674 205.738 371.308 206.122 371.032 206.614C370.768 207.094 370.636 207.646 370.636 208.27C370.636 208.894 370.768 209.446 371.032 209.926C371.308 210.406 371.68 210.784 372.148 211.06C372.616 211.336 373.15 211.474 373.75 211.474ZM376.594 212.5V210.232L376.846 208.144L376.594 206.11V204.04H377.854V212.5H376.594ZM386.565 212.5V207.532C386.565 206.788 386.343 206.188 385.899 205.732C385.467 205.264 384.891 205.03 384.171 205.03C383.679 205.03 383.247 205.138 382.875 205.354C382.503 205.57 382.209 205.864 381.993 206.236C381.777 206.608 381.669 207.034 381.669 207.514L381.093 207.19C381.093 206.554 381.243 205.984 381.543 205.48C381.843 204.976 382.245 204.58 382.749 204.292C383.265 204.004 383.853 203.86 384.513 203.86C385.161 203.86 385.737 204.016 386.241 204.328C386.745 204.64 387.135 205.06 387.411 205.588C387.699 206.116 387.843 206.692 387.843 207.316V212.5H386.565ZM380.409 212.5V204.04H381.669V212.5H380.409ZM394.052 212.68C393.224 212.68 392.474 212.488 391.802 212.104C391.142 211.708 390.614 211.174 390.218 210.502C389.834 209.83 389.642 209.08 389.642 208.252C389.642 207.424 389.834 206.68 390.218 206.02C390.614 205.348 391.142 204.82 391.802 204.436C392.474 204.052 393.224 203.86 394.052 203.86C394.688 203.86 395.282 203.98 395.834 204.22C396.386 204.46 396.854 204.796 397.238 205.228L396.41 206.074C396.122 205.75 395.774 205.504 395.366 205.336C394.958 205.156 394.52 205.066 394.052 205.066C393.452 205.066 392.918 205.204 392.45 205.48C391.982 205.756 391.616 206.134 391.352 206.614C391.088 207.082 390.956 207.628 390.956 208.252C390.956 208.864 391.088 209.416 391.352 209.908C391.616 210.388 391.982 210.766 392.45 211.042C392.918 211.318 393.452 211.456 394.052 211.456C394.532 211.456 394.976 211.372 395.384 211.204C395.792 211.024 396.14 210.772 396.428 210.448L397.274 211.294C396.878 211.738 396.398 212.08 395.834 212.32C395.282 212.56 394.688 212.68 394.052 212.68ZM402.789 212.68C401.937 212.68 401.175 212.488 400.503 212.104C399.831 211.72 399.297 211.192 398.901 210.52C398.517 209.848 398.325 209.092 398.325 208.252C398.325 207.424 398.517 206.68 398.901 206.02C399.285 205.348 399.807 204.82 400.467 204.436C401.127 204.052 401.865 203.86 402.681 203.86C403.449 203.86 404.127 204.034 404.715 204.382C405.315 204.73 405.783 205.216 406.119 205.84C406.467 206.452 406.641 207.16 406.641 207.964C406.641 208.06 406.635 208.174 406.623 208.306C406.611 208.426 406.587 208.57 406.551 208.738H399.225V207.658H405.867L405.417 208.054C405.429 207.43 405.321 206.896 405.093 206.452C404.877 205.996 404.559 205.648 404.139 205.408C403.731 205.156 403.233 205.03 402.645 205.03C402.033 205.03 401.499 205.162 401.043 205.426C400.587 205.69 400.227 206.062 399.963 206.542C399.711 207.01 399.585 207.568 399.585 208.216C399.585 208.864 399.717 209.434 399.981 209.926C400.257 210.418 400.635 210.802 401.115 211.078C401.607 211.354 402.171 211.492 402.807 211.492C403.323 211.492 403.797 211.402 404.229 211.222C404.661 211.03 405.027 210.748 405.327 210.376L406.137 211.204C405.741 211.672 405.249 212.038 404.661 212.302C404.085 212.554 403.461 212.68 402.789 212.68ZM332.887 229.532V228.362H336.541C337.045 228.362 337.495 228.26 337.891 228.056C338.299 227.852 338.617 227.564 338.845 227.192C339.085 226.808 339.205 226.352 339.205 225.824C339.205 225.296 339.085 224.846 338.845 224.474C338.617 224.09 338.299 223.796 337.891 223.592C337.495 223.376 337.045 223.268 336.541 223.268H332.887V222.116H336.631C337.375 222.116 338.041 222.272 338.629 222.584C339.217 222.884 339.679 223.31 340.015 223.862C340.363 224.414 340.537 225.068 340.537 225.824C340.537 226.568 340.363 227.222 340.015 227.786C339.679 228.338 339.217 228.77 338.629 229.082C338.041 229.382 337.375 229.532 336.631 229.532H332.887ZM332.041 234.5V222.116H333.355V234.5H332.041ZM348.842 234.5V229.532C348.842 228.788 348.62 228.188 348.176 227.732C347.744 227.264 347.168 227.03 346.448 227.03C345.956 227.03 345.524 227.138 345.152 227.354C344.78 227.57 344.486 227.864 344.27 228.236C344.054 228.608 343.946 229.034 343.946 229.514L343.37 229.19C343.37 228.554 343.52 227.984 343.82 227.48C344.12 226.976 344.522 226.58 345.026 226.292C345.542 226.004 346.13 225.86 346.79 225.86C347.438 225.86 348.014 226.01 348.518 226.31C349.022 226.598 349.412 227 349.688 227.516C349.976 228.032 350.12 228.632 350.12 229.316V234.5H348.842ZM342.686 234.5V221.756H343.946V234.5H342.686ZM356.149 234.68C355.345 234.68 354.625 234.488 353.989 234.104C353.353 233.708 352.849 233.18 352.477 232.52C352.117 231.86 351.937 231.116 351.937 230.288C351.937 229.448 352.117 228.698 352.477 228.038C352.849 227.366 353.353 226.838 353.989 226.454C354.625 226.058 355.339 225.86 356.131 225.86C356.779 225.86 357.355 225.992 357.859 226.256C358.375 226.508 358.789 226.868 359.101 227.336C359.425 227.792 359.623 228.326 359.695 228.938V231.584C359.623 232.196 359.425 232.736 359.101 233.204C358.789 233.672 358.375 234.038 357.859 234.302C357.355 234.554 356.785 234.68 356.149 234.68ZM356.347 233.474C357.223 233.474 357.925 233.18 358.453 232.592C358.993 232.004 359.263 231.23 359.263 230.27C359.263 229.634 359.137 229.076 358.885 228.596C358.645 228.104 358.303 227.726 357.859 227.462C357.427 227.186 356.917 227.048 356.329 227.048C355.729 227.048 355.195 227.186 354.727 227.462C354.271 227.738 353.905 228.122 353.629 228.614C353.365 229.094 353.233 229.646 353.233 230.27C353.233 230.894 353.365 231.446 353.629 231.926C353.905 232.406 354.277 232.784 354.745 233.06C355.213 233.336 355.747 233.474 356.347 233.474ZM359.191 234.5V232.232L359.443 230.144L359.191 228.11V226.04H360.451V234.5H359.191ZM365.599 234.68C365.143 234.68 364.705 234.62 364.285 234.5C363.865 234.368 363.481 234.188 363.133 233.96C362.797 233.732 362.503 233.462 362.251 233.15L363.061 232.322C363.397 232.73 363.775 233.036 364.195 233.24C364.627 233.432 365.107 233.528 365.635 233.528C366.199 233.528 366.637 233.42 366.949 233.204C367.273 232.988 367.435 232.688 367.435 232.304C367.435 231.944 367.321 231.662 367.093 231.458C366.865 231.254 366.571 231.092 366.211 230.972C365.863 230.852 365.491 230.738 365.095 230.63C364.699 230.51 364.321 230.366 363.961 230.198C363.601 230.018 363.307 229.772 363.079 229.46C362.863 229.148 362.755 228.74 362.755 228.236C362.755 227.756 362.869 227.342 363.097 226.994C363.337 226.634 363.673 226.358 364.105 226.166C364.549 225.962 365.071 225.86 365.671 225.86C366.307 225.86 366.883 225.974 367.399 226.202C367.915 226.43 368.329 226.766 368.641 227.21L367.831 228.02C367.579 227.696 367.261 227.45 366.877 227.282C366.505 227.102 366.085 227.012 365.617 227.012C365.077 227.012 364.663 227.12 364.375 227.336C364.099 227.54 363.961 227.81 363.961 228.146C363.961 228.47 364.075 228.728 364.303 228.92C364.531 229.1 364.819 229.25 365.167 229.37C365.527 229.478 365.905 229.592 366.301 229.712C366.697 229.82 367.075 229.97 367.435 230.162C367.795 230.342 368.083 230.594 368.299 230.918C368.527 231.23 368.641 231.656 368.641 232.196C368.641 232.952 368.365 233.558 367.813 234.014C367.273 234.458 366.535 234.68 365.599 234.68ZM374.541 234.68C373.689 234.68 372.927 234.488 372.255 234.104C371.583 233.72 371.049 233.192 370.653 232.52C370.269 231.848 370.077 231.092 370.077 230.252C370.077 229.424 370.269 228.68 370.653 228.02C371.037 227.348 371.559 226.82 372.219 226.436C372.879 226.052 373.617 225.86 374.433 225.86C375.201 225.86 375.879 226.034 376.467 226.382C377.067 226.73 377.535 227.216 377.871 227.84C378.219 228.452 378.393 229.16 378.393 229.964C378.393 230.06 378.387 230.174 378.375 230.306C378.363 230.426 378.339 230.57 378.303 230.738H370.977V229.658H377.619L377.169 230.054C377.181 229.43 377.073 228.896 376.845 228.452C376.629 227.996 376.311 227.648 375.891 227.408C375.483 227.156 374.985 227.03 374.397 227.03C373.785 227.03 373.251 227.162 372.795 227.426C372.339 227.69 371.979 228.062 371.715 228.542C371.463 229.01 371.337 229.568 371.337 230.216C371.337 230.864 371.469 231.434 371.733 231.926C372.009 232.418 372.387 232.802 372.867 233.078C373.359 233.354 373.923 233.492 374.559 233.492C375.075 233.492 375.549 233.402 375.981 233.222C376.413 233.03 376.779 232.748 377.079 232.376L377.889 233.204C377.493 233.672 377.001 234.038 376.413 234.302C375.837 234.554 375.213 234.68 374.541 234.68Z" fill="var(--fill-0, black)"/>
<path id="Vector_5" d="M23.1907 198.456V197.34H26.7907C27.6067 197.34 28.2307 197.136 28.6627 196.728C29.0947 196.308 29.3107 195.75 29.3107 195.054C29.3107 194.382 29.0947 193.836 28.6627 193.416C28.2307 192.984 27.6067 192.768 26.7907 192.768H23.1907V191.616H26.7907C27.5947 191.616 28.2847 191.766 28.8607 192.066C29.4367 192.354 29.8747 192.756 30.1747 193.272C30.4867 193.788 30.6427 194.376 30.6427 195.036C30.6427 195.72 30.4867 196.32 30.1747 196.836C29.8747 197.352 29.4367 197.754 28.8607 198.042C28.2847 198.318 27.5947 198.456 26.7907 198.456H23.1907ZM22.3447 204V191.616H23.6587V204H22.3447ZM29.8327 204L25.1887 198.276L26.4667 197.862L31.5247 204H29.8327ZM36.7904 204.18C35.9384 204.18 35.1764 203.988 34.5044 203.604C33.8324 203.22 33.2984 202.692 32.9024 202.02C32.5184 201.348 32.3264 200.592 32.3264 199.752C32.3264 198.924 32.5184 198.18 32.9024 197.52C33.2864 196.848 33.8084 196.32 34.4684 195.936C35.1284 195.552 35.8664 195.36 36.6824 195.36C37.4504 195.36 38.1284 195.534 38.7164 195.882C39.3164 196.23 39.7844 196.716 40.1204 197.34C40.4684 197.952 40.6424 198.66 40.6424 199.464C40.6424 199.56 40.6364 199.674 40.6244 199.806C40.6124 199.926 40.5884 200.07 40.5524 200.238H33.2264V199.158H39.8684L39.4184 199.554C39.4304 198.93 39.3224 198.396 39.0944 197.952C38.8784 197.496 38.5604 197.148 38.1404 196.908C37.7324 196.656 37.2344 196.53 36.6464 196.53C36.0344 196.53 35.5004 196.662 35.0444 196.926C34.5884 197.19 34.2284 197.562 33.9644 198.042C33.7124 198.51 33.5864 199.068 33.5864 199.716C33.5864 200.364 33.7184 200.934 33.9824 201.426C34.2584 201.918 34.6364 202.302 35.1164 202.578C35.6084 202.854 36.1724 202.992 36.8084 202.992C37.3244 202.992 37.7984 202.902 38.2304 202.722C38.6624 202.53 39.0284 202.248 39.3284 201.876L40.1384 202.704C39.7424 203.172 39.2504 203.538 38.6624 203.802C38.0864 204.054 37.4624 204.18 36.7904 204.18ZM43.4956 204V194.19C43.4956 193.614 43.6276 193.092 43.8916 192.624C44.1556 192.156 44.5216 191.784 44.9896 191.508C45.4696 191.22 46.0276 191.076 46.6636 191.076L46.6456 192.264C46.0456 192.264 45.5836 192.45 45.2596 192.822C44.9356 193.182 44.7736 193.65 44.7736 194.226V204H43.4956ZM41.3716 196.674V195.54H48.9856V196.674H41.3716ZM48.4636 204V191.13H49.7416V204H48.4636ZM56.1791 204.18C55.3271 204.18 54.5651 203.988 53.8931 203.604C53.2211 203.22 52.6871 202.692 52.2911 202.02C51.9071 201.348 51.7151 200.592 51.7151 199.752C51.7151 198.924 51.9071 198.18 52.2911 197.52C52.6751 196.848 53.1971 196.32 53.8571 195.936C54.5171 195.552 55.2551 195.36 56.0711 195.36C56.8391 195.36 57.5171 195.534 58.1051 195.882C58.7051 196.23 59.1731 196.716 59.5091 197.34C59.8571 197.952 60.0311 198.66 60.0311 199.464C60.0311 199.56 60.0251 199.674 60.0131 199.806C60.0011 199.926 59.9771 200.07 59.9411 200.238H52.6151V199.158H59.2571L58.8071 199.554C58.8191 198.93 58.7111 198.396 58.4831 197.952C58.2671 197.496 57.9491 197.148 57.5291 196.908C57.1211 196.656 56.6231 196.53 56.0351 196.53C55.4231 196.53 54.8891 196.662 54.4331 196.926C53.9771 197.19 53.6171 197.562 53.3531 198.042C53.1011 198.51 52.9751 199.068 52.9751 199.716C52.9751 200.364 53.1071 200.934 53.3711 201.426C53.6471 201.918 54.0251 202.302 54.5051 202.578C54.9971 202.854 55.5611 202.992 56.1971 202.992C56.7131 202.992 57.1871 202.902 57.6191 202.722C58.0511 202.53 58.4171 202.248 58.7171 201.876L59.5271 202.704C59.1311 203.172 58.6391 203.538 58.0511 203.802C57.4751 204.054 56.8511 204.18 56.1791 204.18ZM65.8107 204.18C64.9827 204.18 64.2327 203.988 63.5607 203.604C62.9007 203.208 62.3727 202.674 61.9767 202.002C61.5927 201.33 61.4007 200.58 61.4007 199.752C61.4007 198.924 61.5927 198.18 61.9767 197.52C62.3727 196.848 62.9007 196.32 63.5607 195.936C64.2327 195.552 64.9827 195.36 65.8107 195.36C66.4467 195.36 67.0407 195.48 67.5927 195.72C68.1447 195.96 68.6127 196.296 68.9967 196.728L68.1687 197.574C67.8807 197.25 67.5327 197.004 67.1247 196.836C66.7167 196.656 66.2787 196.566 65.8107 196.566C65.2107 196.566 64.6767 196.704 64.2087 196.98C63.7407 197.256 63.3747 197.634 63.1107 198.114C62.8467 198.582 62.7147 199.128 62.7147 199.752C62.7147 200.364 62.8467 200.916 63.1107 201.408C63.3747 201.888 63.7407 202.266 64.2087 202.542C64.6767 202.818 65.2107 202.956 65.8107 202.956C66.2907 202.956 66.7347 202.872 67.1427 202.704C67.5507 202.524 67.8987 202.272 68.1867 201.948L69.0327 202.794C68.6367 203.238 68.1567 203.58 67.5927 203.82C67.0407 204.06 66.4467 204.18 65.8107 204.18ZM72.0441 204V191.976H73.3041V204H72.0441ZM69.9021 196.674V195.54H75.4281V196.674H69.9021ZM77.1637 204V195.54H78.4417V204H77.1637ZM77.7937 193.704C77.5537 193.704 77.3497 193.62 77.1817 193.452C77.0137 193.272 76.9297 193.062 76.9297 192.822C76.9297 192.57 77.0137 192.36 77.1817 192.192C77.3497 192.024 77.5537 191.94 77.7937 191.94C78.0577 191.94 78.2677 192.024 78.4237 192.192C78.5917 192.36 78.6757 192.57 78.6757 192.822C78.6757 193.062 78.5917 193.272 78.4237 193.452C78.2677 193.62 78.0577 193.704 77.7937 193.704ZM84.8298 204.18C84.0138 204.18 83.2698 203.982 82.5978 203.586C81.9378 203.19 81.4098 202.656 81.0138 201.984C80.6298 201.312 80.4378 200.562 80.4378 199.734C80.4378 198.918 80.6298 198.18 81.0138 197.52C81.4098 196.86 81.9378 196.338 82.5978 195.954C83.2698 195.558 84.0138 195.36 84.8298 195.36C85.6578 195.36 86.4018 195.552 87.0618 195.936C87.7218 196.32 88.2438 196.848 88.6278 197.52C89.0238 198.18 89.2218 198.918 89.2218 199.734C89.2218 200.574 89.0238 201.33 88.6278 202.002C88.2438 202.662 87.7218 203.19 87.0618 203.586C86.4018 203.982 85.6578 204.18 84.8298 204.18ZM84.8298 202.956C85.4298 202.956 85.9578 202.818 86.4138 202.542C86.8818 202.266 87.2478 201.882 87.5118 201.39C87.7878 200.898 87.9258 200.346 87.9258 199.734C87.9258 199.122 87.7878 198.582 87.5118 198.114C87.2478 197.634 86.8818 197.256 86.4138 196.98C85.9578 196.704 85.4298 196.566 84.8298 196.566C84.2418 196.566 83.7138 196.704 83.2458 196.98C82.7778 197.256 82.4118 197.634 82.1478 198.114C81.8838 198.582 81.7518 199.122 81.7518 199.734C81.7518 200.358 81.8838 200.916 82.1478 201.408C82.4118 201.888 82.7778 202.266 83.2458 202.542C83.7138 202.818 84.2418 202.956 84.8298 202.956ZM97.3822 204V199.032C97.3822 198.288 97.1602 197.688 96.7162 197.232C96.2842 196.764 95.7082 196.53 94.9882 196.53C94.4962 196.53 94.0642 196.638 93.6922 196.854C93.3202 197.07 93.0262 197.364 92.8102 197.736C92.5942 198.108 92.4862 198.534 92.4862 199.014L91.9102 198.69C91.9102 198.054 92.0602 197.484 92.3602 196.98C92.6602 196.476 93.0622 196.08 93.5662 195.792C94.0822 195.504 94.6702 195.36 95.3302 195.36C95.9782 195.36 96.5542 195.516 97.0582 195.828C97.5622 196.14 97.9522 196.56 98.2282 197.088C98.5162 197.616 98.6602 198.192 98.6602 198.816V204H97.3822ZM91.2262 204V195.54H92.4862V204H91.2262ZM38.387 221.032V219.862H42.041C42.545 219.862 42.995 219.76 43.391 219.556C43.799 219.352 44.117 219.064 44.345 218.692C44.585 218.308 44.705 217.852 44.705 217.324C44.705 216.796 44.585 216.346 44.345 215.974C44.117 215.59 43.799 215.296 43.391 215.092C42.995 214.876 42.545 214.768 42.041 214.768H38.387V213.616H42.131C42.875 213.616 43.541 213.772 44.129 214.084C44.717 214.384 45.179 214.81 45.515 215.362C45.863 215.914 46.037 216.568 46.037 217.324C46.037 218.068 45.863 218.722 45.515 219.286C45.179 219.838 44.717 220.27 44.129 220.582C43.541 220.882 42.875 221.032 42.131 221.032H38.387ZM37.541 226V213.616H38.855V226H37.541ZM54.3422 226V221.032C54.3422 220.288 54.1202 219.688 53.6762 219.232C53.2442 218.764 52.6682 218.53 51.9482 218.53C51.4562 218.53 51.0242 218.638 50.6522 218.854C50.2802 219.07 49.9862 219.364 49.7702 219.736C49.5542 220.108 49.4462 220.534 49.4462 221.014L48.8702 220.69C48.8702 220.054 49.0202 219.484 49.3202 218.98C49.6202 218.476 50.0222 218.08 50.5262 217.792C51.0422 217.504 51.6302 217.36 52.2902 217.36C52.9382 217.36 53.5142 217.51 54.0182 217.81C54.5222 218.098 54.9122 218.5 55.1882 219.016C55.4762 219.532 55.6202 220.132 55.6202 220.816V226H54.3422ZM48.1862 226V213.256H49.4462V226H48.1862ZM61.6492 226.18C60.8452 226.18 60.1252 225.988 59.4892 225.604C58.8532 225.208 58.3492 224.68 57.9772 224.02C57.6172 223.36 57.4372 222.616 57.4372 221.788C57.4372 220.948 57.6172 220.198 57.9772 219.538C58.3492 218.866 58.8532 218.338 59.4892 217.954C60.1252 217.558 60.8392 217.36 61.6312 217.36C62.2792 217.36 62.8552 217.492 63.3592 217.756C63.8752 218.008 64.2892 218.368 64.6012 218.836C64.9252 219.292 65.1232 219.826 65.1952 220.438V223.084C65.1232 223.696 64.9252 224.236 64.6012 224.704C64.2892 225.172 63.8752 225.538 63.3592 225.802C62.8552 226.054 62.2852 226.18 61.6492 226.18ZM61.8472 224.974C62.7232 224.974 63.4252 224.68 63.9532 224.092C64.4932 223.504 64.7632 222.73 64.7632 221.77C64.7632 221.134 64.6372 220.576 64.3852 220.096C64.1452 219.604 63.8032 219.226 63.3592 218.962C62.9272 218.686 62.4172 218.548 61.8292 218.548C61.2292 218.548 60.6952 218.686 60.2272 218.962C59.7712 219.238 59.4052 219.622 59.1292 220.114C58.8652 220.594 58.7332 221.146 58.7332 221.77C58.7332 222.394 58.8652 222.946 59.1292 223.426C59.4052 223.906 59.7772 224.284 60.2452 224.56C60.7132 224.836 61.2472 224.974 61.8472 224.974ZM64.6912 226V223.732L64.9432 221.644L64.6912 219.61V217.54H65.9512V226H64.6912ZM71.0985 226.18C70.6425 226.18 70.2045 226.12 69.7845 226C69.3645 225.868 68.9805 225.688 68.6325 225.46C68.2965 225.232 68.0025 224.962 67.7505 224.65L68.5605 223.822C68.8965 224.23 69.2745 224.536 69.6945 224.74C70.1265 224.932 70.6065 225.028 71.1345 225.028C71.6985 225.028 72.1365 224.92 72.4485 224.704C72.7725 224.488 72.9345 224.188 72.9345 223.804C72.9345 223.444 72.8205 223.162 72.5925 222.958C72.3645 222.754 72.0705 222.592 71.7105 222.472C71.3625 222.352 70.9905 222.238 70.5945 222.13C70.1985 222.01 69.8205 221.866 69.4605 221.698C69.1005 221.518 68.8065 221.272 68.5785 220.96C68.3625 220.648 68.2545 220.24 68.2545 219.736C68.2545 219.256 68.3685 218.842 68.5965 218.494C68.8365 218.134 69.1725 217.858 69.6045 217.666C70.0485 217.462 70.5705 217.36 71.1705 217.36C71.8065 217.36 72.3825 217.474 72.8985 217.702C73.4145 217.93 73.8285 218.266 74.1405 218.71L73.3305 219.52C73.0785 219.196 72.7605 218.95 72.3765 218.782C72.0045 218.602 71.5845 218.512 71.1165 218.512C70.5765 218.512 70.1625 218.62 69.8745 218.836C69.5985 219.04 69.4605 219.31 69.4605 219.646C69.4605 219.97 69.5745 220.228 69.8025 220.42C70.0305 220.6 70.3185 220.75 70.6665 220.87C71.0265 220.978 71.4045 221.092 71.8005 221.212C72.1965 221.32 72.5745 221.47 72.9345 221.662C73.2945 221.842 73.5825 222.094 73.7985 222.418C74.0265 222.73 74.1405 223.156 74.1405 223.696C74.1405 224.452 73.8645 225.058 73.3125 225.514C72.7725 225.958 72.0345 226.18 71.0985 226.18ZM80.0414 226.18C79.1894 226.18 78.4274 225.988 77.7554 225.604C77.0834 225.22 76.5494 224.692 76.1534 224.02C75.7694 223.348 75.5774 222.592 75.5774 221.752C75.5774 220.924 75.7694 220.18 76.1534 219.52C76.5374 218.848 77.0594 218.32 77.7194 217.936C78.3794 217.552 79.1174 217.36 79.9334 217.36C80.7014 217.36 81.3794 217.534 81.9674 217.882C82.5674 218.23 83.0354 218.716 83.3714 219.34C83.7194 219.952 83.8934 220.66 83.8934 221.464C83.8934 221.56 83.8874 221.674 83.8754 221.806C83.8634 221.926 83.8394 222.07 83.8034 222.238H76.4774V221.158H83.1194L82.6694 221.554C82.6814 220.93 82.5734 220.396 82.3454 219.952C82.1294 219.496 81.8114 219.148 81.3914 218.908C80.9834 218.656 80.4854 218.53 79.8974 218.53C79.2854 218.53 78.7514 218.662 78.2954 218.926C77.8394 219.19 77.4794 219.562 77.2154 220.042C76.9634 220.51 76.8374 221.068 76.8374 221.716C76.8374 222.364 76.9694 222.934 77.2334 223.426C77.5094 223.918 77.8874 224.302 78.3674 224.578C78.8594 224.854 79.4234 224.992 80.0594 224.992C80.5754 224.992 81.0494 224.902 81.4814 224.722C81.9134 224.53 82.2794 224.248 82.5794 223.876L83.3894 224.704C82.9934 225.172 82.5014 225.538 81.9134 225.802C81.3374 226.054 80.7134 226.18 80.0414 226.18Z" fill="var(--fill-0, black)"/>
</g>
</svg>
