<svg width="48" height="48" viewBox="0 0 48 48" fill="none" xmlns="http://www.w3.org/2000/svg">
<path d="M42.6225 13.7569L34.2431 5.37941C33.9646 5.10076 33.6338 4.87972 33.2698 4.72892C32.9058 4.57811 32.5156 4.50049 32.1216 4.50049C31.7276 4.50049 31.3374 4.57811 30.9734 4.72892C30.6093 4.87972 30.2786 5.10076 30 5.37941L6.87939 28.5C6.5996 28.7776 6.37778 29.108 6.22681 29.4721C6.07585 29.8361 5.99876 30.2265 6.00002 30.6207V39C6.00002 39.7957 6.31609 40.5587 6.87869 41.1214C7.4413 41.684 8.20437 42 9.00002 42H40.5C40.8978 42 41.2794 41.842 41.5607 41.5607C41.842 41.2794 42 40.8979 42 40.5C42 40.1022 41.842 39.7207 41.5607 39.4394C41.2794 39.1581 40.8978 39 40.5 39H21.6225L42.6225 18C42.9012 17.7214 43.1222 17.3907 43.273 17.0267C43.4238 16.6627 43.5014 16.2725 43.5014 15.8785C43.5014 15.4844 43.4238 15.0943 43.273 14.7303C43.1222 14.3662 42.9012 14.0355 42.6225 13.7569ZM17.3794 39H9.00002V30.6207L25.5 14.1207L33.8794 22.5L17.3794 39ZM36 20.3794L27.6225 12L32.1225 7.50003L40.5 15.8794L36 20.3794Z" fill="#040506"/>
</svg>
