<svg width="40" height="42" viewBox="0 0 40 42" fill="none" xmlns="http://www.w3.org/2000/svg">
<path d="M24.7288 1.79875C25.3431 1.04978 26.5572 1.52465 26.5004 2.49166L25.8467 13.6248C25.7705 14.9222 26.5386 16.1216 27.749 16.595L38.1353 20.6571C39.0375 21.0099 38.9609 22.3116 38.0237 22.5565L27.2335 25.3746C25.976 25.703 25.0729 26.8042 24.9967 28.1016L24.343 39.2348C24.2862 40.2018 23.0248 40.5313 22.5024 39.7155L16.4875 30.3239C15.7866 29.2297 14.4606 28.7113 13.2034 29.0394L2.41199 31.8581C1.47478 32.1028 0.7725 31.0054 1.38684 30.2565L8.45967 21.6339C9.28389 20.6291 9.36746 19.2073 8.66654 18.1129L2.65044 8.72178C2.12807 7.90612 2.95499 6.89809 3.85706 7.25065L14.2442 11.3131C15.4545 11.7863 16.8318 11.4261 17.6559 10.4213L24.7288 1.79875Z" stroke="black" stroke-width="2"/>
</svg>
