<svg width="740" height="261" viewBox="0 0 740 261" fill="none" xmlns="http://www.w3.org/2000/svg">
<path d="M5.6115 225C5.4375 225 5.2635 224.956 5.0895 224.869C4.9155 224.695 4.8285 224.478 4.8285 224.217C4.8285 224.043 4.959 223.869 5.22 223.695C5.481 223.434 5.916 223.26 6.525 223.173L14.616 222.129C15.747 221.868 16.53 221.433 16.965 220.824C17.487 220.215 17.748 219.432 17.748 218.475V45.3014C17.748 44.8664 17.6175 44.5184 17.3565 44.2574C17.1825 43.9965 16.791 43.866 16.182 43.866H6.003C5.742 43.866 5.5245 43.779 5.3505 43.6049C5.1765 43.4309 5.0895 43.2569 5.0895 43.083C5.0895 42.8219 5.1765 42.6479 5.3505 42.5609C5.5245 42.3869 5.7855 42.2564 6.1335 42.1695L37.4535 33.4259C38.1495 33.1649 38.628 33.0344 38.889 33.0344C39.15 32.9474 39.411 32.9039 39.672 32.9039C40.107 32.9039 40.4115 33.0779 40.5855 33.4259C40.7595 33.6869 40.8465 33.9914 40.8465 34.3394V218.344C40.8465 219.388 41.1075 220.215 41.6295 220.824C42.1515 221.433 42.9345 221.868 43.9785 222.129L52.2 223.303C53.07 223.39 53.505 223.695 53.505 224.217C53.505 224.739 53.157 225 52.461 225H5.6115ZM36.9315 181.674L88.3485 129.474C91.9155 125.82 93.351 122.557 92.655 119.686C91.959 116.815 89.436 114.988 85.086 114.205L79.866 113.422C79.431 113.335 79.1265 113.205 78.9525 113.031C78.7785 112.857 78.6915 112.683 78.6915 112.509C78.6915 112.248 78.7785 112.074 78.9525 111.987C79.2135 111.813 79.518 111.726 79.866 111.726H120.974C121.496 111.726 121.844 111.813 122.018 111.987C122.192 112.074 122.279 112.248 122.279 112.509C122.279 112.77 122.148 112.987 121.887 113.161C121.713 113.248 121.278 113.379 120.582 113.553C115.188 114.51 109.925 116.337 104.792 119.034C99.6585 121.731 94.7865 125.428 90.1755 130.126L38.106 183.109L36.9315 181.674ZM73.2105 146.178L113.405 215.473C114.884 218.083 116.45 219.91 118.103 220.954C119.843 221.998 122.061 222.781 124.758 223.303C125.367 223.477 125.715 223.651 125.802 223.825C125.976 223.999 126.063 224.173 126.063 224.347C126.063 224.521 125.976 224.695 125.802 224.869C125.715 224.956 125.498 225 125.15 225H75.951C75.69 225 75.4725 224.956 75.2985 224.869C75.1245 224.695 75.0375 224.478 75.0375 224.217C75.0375 224.043 75.1245 223.869 75.2985 223.695C75.5595 223.521 75.951 223.39 76.473 223.303L82.476 222.52C84.564 222.259 85.9125 221.52 86.5215 220.302C87.1305 218.997 86.826 217.344 85.608 215.343L56.7675 163.143L73.2105 146.178ZM158.947 110.943V218.344C158.947 219.388 159.208 220.215 159.73 220.824C160.252 221.433 161.035 221.868 162.079 222.129L170.301 223.303C170.823 223.39 171.171 223.521 171.345 223.695C171.519 223.782 171.606 223.956 171.606 224.217C171.606 224.478 171.519 224.695 171.345 224.869C171.171 224.956 170.91 225 170.562 225H123.712C123.538 225 123.364 224.956 123.19 224.869C123.016 224.695 122.929 224.478 122.929 224.217C122.929 224.13 123.016 223.999 123.19 223.825C123.364 223.651 123.625 223.521 123.973 223.434L132.716 222.129C133.847 221.868 134.63 221.433 135.065 220.824C135.587 220.215 135.848 219.432 135.848 218.475V122.035C135.848 121.6 135.718 121.252 135.457 120.991C135.283 120.73 134.891 120.6 134.282 120.6H124.103C123.842 120.6 123.625 120.513 123.451 120.339C123.277 120.165 123.19 119.991 123.19 119.817C123.19 119.469 123.277 119.251 123.451 119.164C123.625 118.99 123.886 118.86 124.234 118.773L155.554 110.029C156.25 109.855 156.729 109.768 156.99 109.768C157.251 109.681 157.512 109.638 157.772 109.638C158.208 109.638 158.512 109.768 158.686 110.029C158.86 110.29 158.947 110.595 158.947 110.943ZM146.68 88.6275C142.417 88.6275 138.937 87.192 136.24 84.321C133.63 81.363 132.325 77.7525 132.325 73.4895C132.325 69.2265 133.673 65.6595 136.37 62.7885C139.154 59.8305 142.591 58.3515 146.68 58.3515C151.03 58.3515 154.553 59.8305 157.251 62.7885C160.035 65.7465 161.427 69.3135 161.427 73.4895C161.427 77.7525 160.035 81.363 157.251 84.321C154.467 87.192 150.943 88.6275 146.68 88.6275ZM207.938 110.943V218.344C207.938 219.388 208.199 220.215 208.721 220.824C209.243 221.433 210.026 221.868 211.07 222.129L219.291 223.303C220.161 223.39 220.596 223.695 220.596 224.217C220.596 224.739 220.248 225 219.552 225H172.703C172.529 225 172.355 224.956 172.181 224.869C172.007 224.695 171.92 224.478 171.92 224.217C171.92 224.13 172.007 223.999 172.181 223.825C172.355 223.651 172.616 223.521 172.964 223.434L181.707 222.129C182.838 221.868 183.621 221.433 184.056 220.824C184.578 220.215 184.839 219.432 184.839 218.475V122.035C184.839 121.6 184.709 121.252 184.448 120.991C184.274 120.73 183.882 120.6 183.273 120.6H173.094C172.833 120.6 172.616 120.513 172.442 120.339C172.268 120.165 172.181 119.991 172.181 119.817C172.181 119.469 172.268 119.251 172.442 119.164C172.616 118.99 172.877 118.86 173.225 118.773L204.545 110.029C205.241 109.855 205.719 109.768 205.98 109.768C206.241 109.681 206.502 109.638 206.763 109.638C207.198 109.638 207.503 109.768 207.677 110.029C207.851 110.29 207.938 110.595 207.938 110.943ZM206.111 134.955L205.067 133.78L209.504 129.735C217.769 122.253 224.816 116.946 230.645 113.814C236.561 110.682 242.259 109.116 247.74 109.116C255.744 109.116 261.965 111.769 266.402 117.076C270.926 122.296 273.971 130.387 275.537 141.349L285.716 217.3C285.89 218.692 286.281 219.867 286.89 220.824C287.586 221.694 288.674 222.216 290.153 222.39L297.069 223.434C297.504 223.521 297.809 223.651 297.983 223.825C298.157 223.912 298.244 224.043 298.244 224.217C298.244 224.478 298.157 224.695 297.983 224.869C297.809 224.956 297.548 225 297.2 225H249.567C248.784 225 248.393 224.739 248.393 224.217C248.393 223.869 248.871 223.564 249.828 223.303L258.311 222.129C259.877 221.868 260.921 221.302 261.443 220.432C262.052 219.475 262.269 218.431 262.095 217.3L252.699 143.698C251.481 135.259 249.393 129.082 246.435 125.167C243.564 121.252 239.301 119.295 233.646 119.295C229.905 119.295 226.164 120.252 222.423 122.166C218.769 124.08 214.767 127.038 210.417 131.04L206.111 134.955ZM379.557 208.948V208.426V45.3014C379.557 44.8664 379.427 44.5184 379.166 44.2574C378.992 43.9965 378.6 43.866 377.991 43.866H367.812C367.551 43.866 367.334 43.779 367.16 43.6049C366.986 43.4309 366.899 43.2569 366.899 43.083C366.899 42.8219 366.986 42.6479 367.16 42.5609C367.334 42.3869 367.595 42.2564 367.943 42.1695L399.263 33.4259C399.959 33.1649 400.437 33.0344 400.698 33.0344C400.959 32.9474 401.22 32.9039 401.481 32.9039C401.916 32.9039 402.221 33.0779 402.395 33.4259C402.569 33.6869 402.656 33.9914 402.656 34.3394V218.344C402.656 219.388 402.917 220.215 403.439 220.824C403.961 221.433 404.744 221.868 405.788 222.129L414.009 223.303C414.531 223.39 414.879 223.521 415.053 223.695C415.227 223.782 415.314 223.956 415.314 224.217C415.314 224.478 415.227 224.695 415.053 224.869C414.879 224.956 414.618 225 414.27 225H383.211C381.993 225 381.08 224.652 380.471 223.956C379.862 223.26 379.557 222.172 379.557 220.693V208.948ZM295.776 171.234C295.776 158.358 298.212 147.265 303.084 137.956C307.956 128.647 314.394 121.513 322.398 116.554C330.489 111.595 339.363 109.116 349.02 109.116C357.807 109.116 365.202 110.986 371.205 114.727C377.208 118.468 382.08 123.471 385.821 129.735L383.733 130.648C380.862 125.08 376.86 120.643 371.727 117.337C366.681 113.944 360.678 112.248 353.718 112.248C347.367 112.248 341.582 114.249 336.362 118.251C331.142 122.253 326.966 128.43 323.834 136.782C320.789 145.134 319.266 155.835 319.266 168.885C319.266 180.63 320.615 190.461 323.312 198.378C326.009 206.208 329.75 212.08 334.535 215.995C339.32 219.91 344.844 221.868 351.108 221.868C355.719 221.868 360.635 220.606 365.855 218.083C371.162 215.473 376.251 211.167 381.123 205.164L382.298 206.469C375.425 214.386 368.943 219.91 362.853 223.042C356.85 226.088 350.282 227.61 343.148 227.61C334.1 227.61 326.009 225.348 318.875 220.824C311.741 216.213 306.086 209.688 301.91 201.249C297.821 192.723 295.776 182.718 295.776 171.234ZM448.535 162.49C448.535 150.745 450.144 140.914 453.363 132.997C456.669 125.08 460.845 119.121 465.891 115.119C471.024 111.117 476.288 109.116 481.682 109.116C487.859 109.116 492.6 110.986 495.906 114.727C499.299 118.381 500.996 123.427 500.996 129.865C500.996 134.824 499.821 138.565 497.472 141.088C495.21 143.611 492.339 144.873 488.859 144.873C485.553 144.873 483.03 143.959 481.29 142.132C479.637 140.218 478.724 137.347 478.55 133.519V129.865C478.463 126.82 477.81 124.558 476.592 123.079C475.374 121.6 473.33 120.861 470.459 120.861C467.066 120.861 463.803 122.427 460.671 125.559C457.539 128.691 454.929 133.389 452.841 139.653C450.84 145.917 449.84 153.703 449.84 163.012L448.535 162.49ZM449.84 111.595V156.487V217.822C449.84 218.779 450.101 219.606 450.623 220.302C451.232 220.911 452.058 221.346 453.102 221.607L466.022 223.434C466.457 223.521 466.761 223.608 466.935 223.695C467.109 223.782 467.196 223.956 467.196 224.217C467.196 224.478 467.109 224.695 466.935 224.869C466.761 224.956 466.457 225 466.022 225H414.996C414.648 225 414.344 224.913 414.083 224.739C413.909 224.565 413.822 224.391 413.822 224.217C413.822 223.956 413.952 223.738 414.213 223.564C414.474 223.39 414.866 223.26 415.388 223.173L423.609 222.129C424.74 221.868 425.523 221.476 425.958 220.954C426.48 220.345 426.741 219.649 426.741 218.866V121.644C426.741 121.209 426.611 120.861 426.35 120.6C426.176 120.252 425.828 120.078 425.306 120.078H414.866C414.605 120.078 414.387 119.991 414.213 119.817C414.039 119.643 413.952 119.469 413.952 119.295C413.952 119.034 414.039 118.816 414.213 118.642C414.387 118.468 414.692 118.338 415.127 118.251L446.447 110.551C447.056 110.377 447.491 110.29 447.752 110.29C448.1 110.203 448.404 110.16 448.665 110.16C449.1 110.16 449.405 110.334 449.579 110.682C449.753 110.943 449.84 111.247 449.84 111.595ZM598.832 156.226C598.832 156.835 598.615 157.357 598.18 157.792C597.745 158.227 597.136 158.445 596.353 158.445H515.834V156.487H573.646C574.951 156.487 575.603 155.748 575.603 154.269C575.603 139.827 573.298 128.952 568.687 121.644C564.076 114.336 558.247 110.682 551.2 110.682C545.023 110.682 539.759 112.596 535.409 116.424C531.059 120.165 527.71 125.689 525.361 132.997C523.012 140.305 521.837 149.179 521.837 159.619C521.837 177.541 525.665 191.157 533.321 200.466C541.064 209.775 551.026 214.429 563.206 214.429C571.906 214.429 579.344 211.906 585.521 206.86C591.785 201.814 595.526 194.941 596.744 186.241C596.744 185.893 596.788 185.676 596.875 185.589C597.049 185.415 597.179 185.328 597.266 185.328C597.527 185.328 597.745 185.415 597.919 185.589C598.093 185.676 598.136 185.98 598.049 186.502C597.353 194.332 594.874 201.379 590.611 207.643C586.435 213.82 580.954 218.692 574.168 222.259C567.469 225.827 559.943 227.61 551.591 227.61C541.412 227.61 532.451 225.305 524.708 220.693C517.052 216.082 511.093 209.514 506.83 200.988C502.567 192.462 500.435 182.457 500.435 170.973C500.435 158.967 502.654 148.309 507.091 139C511.528 129.604 517.748 122.253 525.752 116.946C533.756 111.552 543.152 108.855 553.94 108.855C563.075 108.855 570.992 110.899 577.691 114.988C584.39 119.077 589.567 124.689 593.221 131.823C596.962 138.957 598.832 147.091 598.832 156.226ZM686.141 208.948V208.426V45.3014C686.141 44.8664 686.01 44.5184 685.749 44.2574C685.575 43.9965 685.184 43.866 684.575 43.866H674.396C674.135 43.866 673.917 43.779 673.743 43.6049C673.569 43.4309 673.482 43.2569 673.482 43.083C673.482 42.8219 673.569 42.6479 673.743 42.5609C673.917 42.3869 674.178 42.2564 674.526 42.1695L705.846 33.4259C706.542 33.1649 707.021 33.0344 707.282 33.0344C707.543 32.9474 707.804 32.9039 708.065 32.9039C708.5 32.9039 708.804 33.0779 708.978 33.4259C709.152 33.6869 709.239 33.9914 709.239 34.3394V218.344C709.239 219.388 709.5 220.215 710.022 220.824C710.544 221.433 711.327 221.868 712.371 222.129L720.593 223.303C721.115 223.39 721.463 223.521 721.637 223.695C721.811 223.782 721.898 223.956 721.898 224.217C721.898 224.478 721.811 224.695 721.637 224.869C721.463 224.956 721.202 225 720.854 225H689.795C688.577 225 687.663 224.652 687.054 223.956C686.445 223.26 686.141 222.172 686.141 220.693V208.948ZM602.36 171.234C602.36 158.358 604.796 147.265 609.668 137.956C614.54 128.647 620.978 121.513 628.982 116.554C637.073 111.595 645.947 109.116 655.604 109.116C664.391 109.116 671.786 110.986 677.789 114.727C683.792 118.468 688.664 123.471 692.405 129.735L690.317 130.648C687.446 125.08 683.444 120.643 678.311 117.337C673.265 113.944 667.262 112.248 660.302 112.248C653.951 112.248 648.165 114.249 642.945 118.251C637.725 122.253 633.549 128.43 630.417 136.782C627.372 145.134 625.85 155.835 625.85 168.885C625.85 180.63 627.198 190.461 629.895 198.378C632.592 206.208 636.333 212.08 641.118 215.995C645.903 219.91 651.428 221.868 657.692 221.868C662.303 221.868 667.218 220.606 672.438 218.083C677.745 215.473 682.835 211.167 687.707 205.164L688.881 206.469C682.008 214.386 675.527 219.91 669.437 223.042C663.434 226.088 656.865 227.61 649.731 227.61C640.683 227.61 632.592 225.348 625.458 220.824C618.324 216.213 612.669 209.688 608.493 201.249C604.404 192.723 602.36 182.718 602.36 171.234Z" fill="#854DFF"/>
<path d="M118.458 64.9747C118.458 64.9774 118.459 64.98 118.461 64.9819L138.489 85.0098C143.496 90.0165 151.613 90.0165 156.62 85.0098C161.626 80.0036 161.627 71.8871 156.621 66.8801L136.588 46.8407C131.622 41.7378 123.604 41.4813 118.655 45.8321C113.262 50.5666 112.911 59.5222 118.455 64.9673C118.457 64.9693 118.458 64.9719 118.458 64.9747Z" fill="url(#paint0_linear_6855_1109)"/>
<path d="M170.488 35.1989C156.94 48.918 143.384 62.637 129.835 76.356C133.778 80.2982 137.72 84.2403 141.662 88.1824C144.92 91.4406 150.2 91.4506 153.47 88.2047C165.149 76.6135 176.828 65.0223 188.507 53.4311C193.644 48.4991 193.943 40.4814 189.627 35.4981C184.925 30.0789 175.967 29.6771 170.488 35.1904V35.1989Z" fill="#854DFF"/>
<defs>
<linearGradient id="paint0_linear_6855_1109" x1="112.407" y1="57.8587" x2="164.488" y2="78.8946" gradientUnits="userSpaceOnUse">
<stop stop-color="#854DFF"/>
<stop offset="0.51" stop-color="#5D39B0"/>
<stop offset="1" stop-color="#171626"/>
</linearGradient>
</defs>
</svg>
