<svg width="512" height="512" viewBox="0 0 512 512" fill="none" xmlns="http://www.w3.org/2000/svg">
<path d="M479.077 344.591C419.475 281.543 359.937 218.561 300.335 155.513C254.691 200.093 209.109 244.674 163.465 289.254L344.03 480.211C380.055 519.414 439.028 522.135 475.871 489.607C515.982 454.228 519.44 386.385 479.14 344.526L479.077 344.591Z" fill="url(#paint0_linear_2215_4393)"/>
<path d="M0.00490532 101.73V365.714C62.8759 366.621 125.747 367.463 188.618 368.371V101.73C189.372 47.7545 149.009 3.43326 100.598 0.193401C47.9126 -3.37044 -0.560933 42.7651 0.00490532 101.73Z" fill="url(#paint1_linear_2215_4393)"/>
<path d="M349.127 30.0743C249.414 134.009 149.763 238.008 50.1129 342.008C93.5568 386.782 137.001 431.557 180.444 476.332C280.849 373.628 381.254 270.925 481.659 168.222C519.445 130.834 521.645 70.0541 489.895 32.2774C455.316 -8.80402 389.427 -11.8495 349.127 29.9447V30.0743Z" fill="#854DFF"/>
<path d="M0.193604 293.41C6.54357 299.177 16.6029 306.499 30.3088 309.933C69.9804 319.912 102.799 288.226 105.943 285.116C130.777 348.876 155.611 412.572 180.382 476.332C132.788 516.312 72.4952 520.977 35.4642 492.207C10.3787 472.703 2.70844 437.445 0.193604 424.421V293.41Z" fill="#854DFF"/>
<defs>
<linearGradient id="paint0_linear_2215_4393" x1="519.396" y1="407.844" x2="172.592" y2="266.804" gradientUnits="userSpaceOnUse">
<stop stop-color="#854DFF"/>
<stop offset="0.4" stop-color="#603AB5"/>
<stop offset="1" stop-color="#171626"/>
</linearGradient>
<linearGradient id="paint1_linear_2215_4393" x1="13.9332" y1="27.4571" x2="167.131" y2="377.713" gradientUnits="userSpaceOnUse">
<stop stop-color="#854DFF"/>
<stop offset="0.58" stop-color="#5C38AE"/>
<stop offset="1" stop-color="#171626"/>
</linearGradient>
</defs>
</svg>
